<svg width="30" height="30" viewBox="0 0 30 30" fill="none" xmlns="http://www.w3.org/2000/svg">
<g clip-path="url(#clip0)">
<path d="M28.75 10.05H1.25C0.56 10.05 0 10.61 0 11.3001V26.2501C0 28.3176 1.6825 30.0001 3.75 30.0001H26.25C28.3175 30.0001 30 28.3176 30 26.2501V11.3001C30 10.61 29.44 10.05 28.75 10.05Z" fill="#ECEFF1"/>
<path d="M26.25 3.75H3.75C1.67875 3.75 0 5.42875 0 7.5V11.3H30V7.5C30 5.42875 28.3212 3.75 26.25 3.75Z" fill="#2196F3"/>
<path d="M7.5 0H6.25C5.56 0 5 0.56 5 1.25V6.25C5 6.94 5.56 7.5 6.25 7.5H7.5C8.19 7.5 8.75 6.94 8.75 6.25V1.25C8.75 0.56 8.19 0 7.5 0Z" fill="#607D8B"/>
<path d="M23.75 0H22.5C21.81 0 21.25 0.56 21.25 1.25V6.25C21.25 6.94 21.81 7.5 22.5 7.5H23.75C24.44 7.5 25 6.94 25 6.25V1.25C25 0.56 24.44 0 23.75 0Z" fill="#607D8B"/>
<path d="M12.8125 26.3063C11.2625 26.3063 10 25.0451 10 23.4938C10 22.5088 10.5188 21.5938 11.3538 21.1088C11.8013 20.8488 12.375 21.0013 12.635 21.4476C12.895 21.8951 12.7437 22.4688 12.2962 22.7288C12.0325 22.8826 11.875 23.1688 11.875 23.4938C11.875 24.0113 12.2963 24.4313 12.8125 24.4313C13.3287 24.4313 13.75 24.0101 13.75 23.4938C13.75 23.3601 13.7238 23.2451 13.6713 23.1451C13.43 22.6876 13.6037 22.1201 14.0612 21.8776C14.5175 21.6338 15.085 21.8101 15.3287 22.2676C15.525 22.6401 15.625 23.0526 15.625 23.4938C15.625 25.0451 14.3625 26.3063 12.8125 26.3063Z" fill="#FF9800"/>
<path d="M21.5625 25.7112C21.475 25.7112 21.385 25.6987 21.2987 25.6737L8.17375 21.8312C7.775 21.7137 7.5 21.3474 7.5 20.9312V19.0562C7.5 18.6374 7.7775 18.2699 8.18 18.1549L21.305 14.4049C21.5863 14.3262 21.8938 14.3799 22.1263 14.5587C22.3625 14.7349 22.5 15.0124 22.5 15.3062V24.7737C22.5 25.0687 22.3612 25.3462 22.1237 25.5237C21.96 25.6474 21.7625 25.7112 21.5625 25.7112Z" fill="#FFC107"/>
<path d="M21.5625 26.2436C21.045 26.2436 20.625 25.8236 20.625 25.3061V14.6812C20.625 14.1637 21.045 13.7437 21.5625 13.7437C22.08 13.7437 22.5 14.1637 22.5 14.6812V25.3061C22.5 25.8236 22.08 26.2436 21.5625 26.2436Z" fill="#FFB300"/>
<path d="M8.4375 22.4936C7.92 22.4936 7.5 22.0736 7.5 21.5561V18.4311C7.5 17.9137 7.92 17.4937 8.4375 17.4937C8.955 17.4937 9.375 17.9137 9.375 18.4311V21.5561C9.375 22.0736 8.955 22.4936 8.4375 22.4936Z" fill="#FFB300"/>
</g>
<defs>
<clipPath id="clip0">
<rect width="30" height="30" fill="white"/>
</clipPath>
</defs>
</svg>
