<svg width="100" height="100" viewBox="0 0 100 100" fill="none" xmlns="http://www.w3.org/2000/svg">
<path d="M14.5724 76C32.9474 81.6139 42.6585 94.9889 51.514 97.6917C60.3696 100.394 80.5196 100.986 92.964 60.2528C105.408 19.5195 82.2168 5.9 72.4751 2.925C26.8724 -11.0083 -17.9721 66.0583 14.5724 76Z" fill="#E76F51" fill-opacity="0.12"/>
<path d="M15.2777 88.1945C12.9805 88.1945 11.1111 86.325 11.1111 84.0278C11.1111 81.7306 12.9805 79.8611 15.2777 79.8611C17.575 79.8611 19.4444 81.7306 19.4444 84.0278C19.4444 86.325 17.575 88.1945 15.2777 88.1945ZM15.2777 82.6389C14.5111 82.6389 13.8889 83.2611 13.8889 84.0278C13.8889 84.7945 14.5111 85.4167 15.2777 85.4167C16.0444 85.4167 16.6666 84.7945 16.6666 84.0278C16.6666 83.2611 16.0444 82.6389 15.2777 82.6389Z" fill="#A4AFC1"/>
<path d="M45.1389 71.5278H54.8611V81.25H45.1389V71.5278Z" fill="#2A9D8F"/>
<path d="M18.75 53.4722V57.6389C18.75 59.9389 20.6167 61.8056 22.9167 61.8056H40.9722C43.2722 61.8056 45.1389 59.9389 45.1389 57.6389V53.4722H18.75Z" fill="#2A9D8F"/>
<path d="M40.9722 18.75H22.9167C20.6167 18.75 18.75 20.6167 18.75 22.9167V53.4722H45.1389V22.9167C45.1389 20.6167 43.2722 18.75 40.9722 18.75Z" fill="#F3F3F1"/>
<path d="M54.8611 53.4722V57.6389C54.8611 59.9389 56.7278 61.8056 59.0278 61.8056H77.0833C79.3833 61.8056 81.25 59.9389 81.25 57.6389V53.4722H54.8611Z" fill="#2A9D8F"/>
<path d="M77.0833 18.75H59.0278C56.7278 18.75 54.8611 20.6167 54.8611 22.9167V53.4722H81.25V22.9167C81.25 20.6167 79.3833 18.75 77.0833 18.75Z" fill="#F3F3F1"/>
<path d="M24.3056 57.6389V53.4722H18.75V57.6389C18.75 59.9389 20.6167 61.8056 22.9167 61.8056H28.4722C26.1722 61.8056 24.3056 59.9389 24.3056 57.6389Z" fill="#2A9D8F"/>
<path d="M28.4722 18.75H22.9167C20.6167 18.75 18.75 20.6167 18.75 22.9167V53.4722H24.3056V22.9167C24.3056 20.6167 26.1722 18.75 28.4722 18.75Z" fill="#D5DBE1"/>
<path d="M60.4166 57.6389V53.4722H54.8611V57.6389C54.8611 59.9389 56.7278 61.8056 59.0278 61.8056H64.5833C62.2833 61.8056 60.4166 59.9389 60.4166 57.6389Z" fill="#2A9D8F"/>
<path d="M64.5833 18.75H59.0278C56.7278 18.75 54.8611 20.6167 54.8611 22.9167V53.4722H60.4166V22.9167C60.4166 20.6167 62.2833 18.75 64.5833 18.75Z" fill="#D5DBE1"/>
<path d="M45.1389 71.5278H50.6945V81.25H45.1389V71.5278Z" fill="#2A9D8F"/>
<path d="M40.9723 63.8889H22.9167C19.4695 63.8889 16.6667 61.0861 16.6667 57.6389V22.9167C16.6667 19.4694 19.4695 16.6667 22.9167 16.6667H40.9723C44.4195 16.6667 47.2223 19.4694 47.2223 22.9167V57.6389C47.2223 61.0861 44.4195 63.8889 40.9723 63.8889ZM22.9167 20.8333C21.7667 20.8333 20.8334 21.7667 20.8334 22.9167V57.6389C20.8334 58.7889 21.7667 59.7222 22.9167 59.7222H40.9723C42.1223 59.7222 43.0556 58.7889 43.0556 57.6389V22.9167C43.0556 21.7667 42.1223 20.8333 40.9723 20.8333H22.9167Z" fill="black"/>
<path d="M18.75 51.3889H45.1389V55.5555H18.75V51.3889Z" fill="black"/>
<path d="M77.0834 63.8889H59.0278C55.5806 63.8889 52.7778 61.0861 52.7778 57.6389V22.9167C52.7778 19.4694 55.5806 16.6667 59.0278 16.6667H77.0834C80.5306 16.6667 83.3334 19.4694 83.3334 22.9167V57.6389C83.3334 61.0861 80.5306 63.8889 77.0834 63.8889ZM59.0278 20.8333C57.8778 20.8333 56.9445 21.7667 56.9445 22.9167V57.6389C56.9445 58.7889 57.8778 59.7222 59.0278 59.7222H77.0834C78.2334 59.7222 79.1667 58.7889 79.1667 57.6389V22.9167C79.1667 21.7667 78.2334 20.8333 77.0834 20.8333H59.0278Z" fill="black"/>
<path d="M54.8611 51.3889H81.25V55.5555H54.8611V51.3889Z" fill="black"/>
<path d="M54.8612 83.3333H45.139C43.989 83.3333 43.0557 82.4 43.0557 81.25V71.5278C43.0557 70.3778 43.989 69.4444 45.139 69.4444H54.8612C56.0112 69.4444 56.9446 70.3778 56.9446 71.5278V81.25C56.9446 82.4 56.0112 83.3333 54.8612 83.3333ZM47.2223 79.1667H52.7779V73.6111H47.2223V79.1667Z" fill="black"/>
<path d="M45.1389 78.4722H37.5C33.2861 78.4722 29.8611 75.0472 29.8611 70.8333V61.8056H34.0277V70.8333C34.0277 72.7472 35.5861 74.3056 37.5 74.3056H45.1389V78.4722Z" fill="black"/>
<path d="M62.5 78.4722H54.8611V74.3056H62.5C64.4139 74.3056 65.9722 72.7472 65.9722 70.8333V61.8056H70.1389V70.8333C70.1389 75.0472 66.7139 78.4722 62.5 78.4722Z" fill="black"/>
</svg>
