<svg width="30" height="30" viewBox="0 0 30 30" fill="none" xmlns="http://www.w3.org/2000/svg">
<g clip-path="url(#clip0)">
<path d="M7.81192 23.1641C5.81076 23.1641 4.0307 21.8828 3.38432 19.9752L3.3406 19.8315C3.18816 19.3263 3.1243 18.9015 3.1243 18.4765V9.95361L0.0917729 20.0764C-0.298251 21.5653 0.590519 23.1089 2.08172 23.5202L21.411 28.6968C21.6523 28.7592 21.8935 28.7892 22.1311 28.7892C23.376 28.7892 24.5136 27.9629 24.8324 26.7453L25.9586 23.1641H7.81192Z" fill="#ECEFF1"/>
<path d="M30.0002 4.1009V18.4764C30.0002 20.0264 28.7377 21.289 27.1876 21.289H7.81208C7.68711 21.289 7.56214 21.2764 7.44952 21.2638C6.13708 21.1015 5.11212 20.0264 5.0121 18.7014C4.99951 18.6263 4.99951 18.5513 4.99951 18.4764V4.1009C4.99951 2.55087 6.26205 1.28833 7.81208 1.28833H27.1876C28.7377 1.28833 30.0002 2.55087 30.0002 4.1009Z" fill="#ECEFF1"/>
<path d="M13.7496 7.53847C13.7496 8.91912 12.6303 10.0386 11.2496 10.0386C9.86877 10.0386 8.74951 8.91912 8.74951 7.53847C8.74951 6.15782 9.86877 5.03833 11.2496 5.03833C12.6303 5.03833 13.7496 6.15782 13.7496 7.53847Z" fill="#FFC107"/>
<path d="M29.9999 14.9636V18.4763C29.9999 20.0263 28.7374 21.2889 27.1873 21.2889H7.81178C7.6868 21.2889 7.56183 21.2763 7.44922 21.2637L20.3246 8.38854C21.1747 7.53845 22.5746 7.53845 23.4246 8.38854L29.9999 14.9636Z" fill="#388E3C"/>
<path d="M22.5745 21.289H7.8117C7.68673 21.289 7.56175 21.2764 7.44914 21.2638C6.1367 21.1015 5.11174 20.0264 5.01172 18.7014L10.9493 12.7636C11.7994 11.9138 13.1993 11.9138 14.0493 12.7636L22.5745 21.289Z" fill="#4CAF50"/>
</g>
<defs>
<clipPath id="clip0">
<rect width="30" height="30" fill="white"/>
</clipPath>
</defs>
</svg>
