<svg width="72" height="67" viewBox="0 0 72 67" fill="none" xmlns="http://www.w3.org/2000/svg">
<g clip-path="url(#clip0)">
<path d="M36.3018 6.91575C35.4736 6.91575 34.8014 6.24358 34.8014 5.41537V1.50038C34.8014 0.67217 35.4736 0 36.3018 0C37.13 0 37.8022 0.67217 37.8022 1.50038V5.41537C37.8022 6.24358 37.13 6.91575 36.3018 6.91575Z" fill="white"/>
<path d="M49.4471 12.3611C49.063 12.3611 48.6789 12.2151 48.3868 11.921C47.8007 11.3348 47.8007 10.3846 48.3868 9.79846L51.1555 7.02976C51.7417 6.44361 52.6919 6.44361 53.2781 7.02976C53.8642 7.61591 53.8642 8.56615 53.2781 9.1523L50.5094 11.921C50.2153 12.2131 49.8312 12.3611 49.4471 12.3611Z" fill="white"/>
<path d="M58.8075 25.5065H54.8925C54.0643 25.5065 53.3921 24.8343 53.3921 24.0061C53.3921 23.1779 54.0643 22.5057 54.8925 22.5057H58.8075C59.6357 22.5057 60.3078 23.1779 60.3078 24.0061C60.3078 24.8343 59.6357 25.5065 58.8075 25.5065Z" fill="white"/>
<path d="M52.2158 41.4205C51.8317 41.4205 51.4476 41.2745 51.1555 40.9804L48.3868 38.2117C47.8007 37.6255 47.8007 36.6753 48.3868 36.0891C48.973 35.503 49.9232 35.503 50.5094 36.0891L53.2781 38.8578C53.8642 39.444 53.8642 40.3942 53.2781 40.9804C52.984 41.2745 52.5999 41.4205 52.2158 41.4205Z" fill="white"/>
<path d="M20.3878 41.4205C20.0037 41.4205 19.6196 41.2745 19.3275 40.9804C18.7413 40.3942 18.7413 39.444 19.3275 38.8578L22.0962 36.0891C22.6823 35.503 23.6326 35.503 24.2187 36.0891C24.8049 36.6753 24.8049 37.6255 24.2187 38.2117L21.45 40.9804C21.156 41.2745 20.7719 41.4205 20.3878 41.4205Z" fill="white"/>
<path d="M17.7111 25.5065H13.7961C12.9679 25.5065 12.2957 24.8343 12.2957 24.0061C12.2957 23.1779 12.9679 22.5057 13.7961 22.5057H17.7111C18.5393 22.5057 19.2115 23.1779 19.2115 24.0061C19.2115 24.8343 18.5393 25.5065 17.7111 25.5065Z" fill="white"/>
<path d="M23.1565 12.3611C22.7724 12.3611 22.3883 12.2151 22.0962 11.921L19.3275 9.1523C18.7413 8.56615 18.7413 7.61591 19.3275 7.02976C19.9136 6.44361 20.8639 6.44361 21.45 7.02976L24.2187 9.79846C24.8049 10.3846 24.8049 11.3348 24.2187 11.921C23.9227 12.2131 23.5406 12.3611 23.1565 12.3611Z" fill="white"/>
<path d="M42.3033 42.0106V44.5113C42.3033 46.4317 40.7229 48.0121 38.8024 48.0121H33.8012C32.1208 48.0121 30.3003 46.7318 30.3003 43.9311V42.0106H42.3033Z" fill="white"/>
<path d="M45.124 13.1233C41.8432 10.4627 37.5221 9.42239 33.301 10.3226C27.9997 11.4229 23.6986 15.744 22.5983 21.0453C21.478 26.4867 23.5185 31.8881 27.8796 35.1889C29.0599 36.0691 29.8801 37.4295 30.1602 39.0099V39.0299C30.2002 39.0099 30.2602 39.0099 30.3003 39.0099H42.3033C42.3433 39.0099 42.3633 39.0099 42.4033 39.0299V39.0099C42.6834 37.4895 43.5836 36.0891 44.964 35.0089C48.3448 32.3282 50.3053 28.3272 50.3053 24.0061C50.3053 19.765 48.4248 15.804 45.124 13.1233ZM43.8037 25.0063C42.9835 25.0063 42.3033 24.3262 42.3033 23.506C42.3033 20.4652 39.8427 18.0046 36.8019 18.0046C35.9817 18.0046 35.3015 17.3244 35.3015 16.5042C35.3015 15.684 35.9817 15.0038 36.8019 15.0038C41.4831 15.0038 45.304 18.8248 45.304 23.506C45.304 24.3262 44.6239 25.0063 43.8037 25.0063Z" fill="white"/>
<path d="M30.1603 39.0099H30.3003C30.2603 39.0099 30.2003 39.0099 30.1603 39.0299V39.0099Z" fill="white"/>
<path d="M42.4033 39.0099V39.0299C42.3633 39.0099 42.3433 39.0099 42.3033 39.0099H42.4033Z" fill="white"/>
</g>
<path d="M0.356662 63.4446V62.2923H5.33621L6.07697 61.5378V59.5213L5.33621 58.7669H1.42665L0 57.3402V54.775L1.42665 53.3346H6.80401V54.4869H1.98907L1.2346 55.2414L1.24832 56.915L1.98907 57.6694H5.89864L7.32528 59.1098V62.0042L5.89864 63.4446H0.356662Z" fill="white"/>
<path d="M9.30342 63.4446V53.3346H10.5106V58.8354H10.8124L13.6931 56.2702H15.2844L12.1842 59.1784L15.4901 63.4446H14.0361L11.3474 59.9603L10.5106 60.7422V63.4446H9.30342Z" fill="white"/>
<path d="M16.7517 55.4883V53.8696H17.9589V55.4883H16.7517ZM16.7517 63.4446V56.2702H17.9589V63.4446H16.7517Z" fill="white"/>
<path d="M20.1946 63.4446V53.3346H21.4017V63.4446H20.1946Z" fill="white"/>
<path d="M23.6374 63.4446V53.3346H24.8446V63.4446H23.6374Z" fill="white"/>
<path d="M27.0802 63.4446V62.4432H30.8801L31.5248 61.7848V60.9205L30.8389 60.2347H27.9993L26.7373 59.0001V57.546L27.9993 56.2702H32.0461V57.2853H28.5755L27.9445 57.9026V58.6022L28.6029 59.2607H31.4699L32.732 60.4953V62.1826L31.4836 63.4446H27.0802Z" fill="white"/>
<path d="M34.9666 66.0098V65.0084L38.835 64.9947L39.5894 64.254V62.3198L38.4783 63.4446H35.8445L34.4041 62.0042V57.7106L35.8445 56.2702H38.4783L39.5894 57.4088V56.2702H40.7966V64.5695L39.3562 66.0098H34.9666ZM38.1765 62.4844L39.5894 61.0577V58.6708L38.1765 57.2305H36.3658L35.6113 57.9849V61.7299L36.3658 62.4844H38.1765Z" fill="white"/>
<path d="M44.3932 63.4446L42.9666 62.0042V56.2702H44.1737L44.16 61.7162L44.9008 62.4844H46.6841L48.097 61.0714V56.2702H49.3042V63.4446H48.097V62.3335L46.9996 63.4446H44.3932Z" fill="white"/>
<path d="M51.5418 63.4446V56.2702H52.749V57.5597L53.9973 56.2702H55.8354V57.4774H54.0521L52.749 58.8217V63.4446H51.5418Z" fill="white"/>
<path d="M58.4727 63.4446L57.046 62.0042V56.2702H58.2532L58.2395 61.7162L58.9802 62.4844H60.7636L62.1765 61.0714V56.2702H63.3836V63.4446H62.1765V62.3335L61.0791 63.4446H58.4727Z" fill="white"/>
<path d="M65.6212 63.4446V53.3346H66.8284V57.4088L67.9258 56.2702H70.5734L72 57.7106V63.4446H70.7928V58.0124L70.0658 57.2305H68.2413L66.8284 58.6708V63.4446H65.6212Z" fill="white"/>
<defs>
<clipPath id="clip0">
<rect width="48.0121" height="48.0121" fill="white" transform="translate(12.2957)"/>
</clipPath>
</defs>
</svg>
