<svg width="1500" height="672" viewBox="0 0 1500 672" fill="none" xmlns="http://www.w3.org/2000/svg">
<path d="M-30 671.568V348.472L112.486 182.185C113.865 180.568 115.726 179.233 117.912 178.295C120.097 177.357 122.541 176.843 125.037 176.797C127.532 176.752 130.005 177.176 132.245 178.033C134.484 178.89 136.424 180.155 137.9 181.721L256.286 306.784L452.268 7.04047C453.532 5.1044 455.446 3.46988 457.806 2.30977C460.166 1.14966 462.886 0.507058 465.678 0.449941C468.469 0.392823 471.229 0.923314 473.664 1.98529C476.1 3.04727 478.121 4.60128 479.515 6.48298L619.969 195.658L683.185 133.219C684.771 131.701 686.807 130.505 689.118 129.734C691.429 128.962 693.947 128.639 696.454 128.791C698.962 128.944 701.385 129.567 703.514 130.608C705.643 131.649 707.416 133.076 708.679 134.768L813.242 251.345L947.124 61.9842C948.432 60.0875 950.372 58.4989 952.74 57.3843C955.108 56.2696 957.817 55.6699 960.585 55.6477C963.353 55.6256 966.078 56.1818 968.475 57.2583C970.872 58.3348 972.853 59.8921 974.211 61.7674L1138.33 286.033L1202.82 210.772C1204.24 209.124 1206.16 207.773 1208.41 206.839C1210.66 205.905 1213.17 205.416 1215.72 205.416C1218.28 205.416 1220.79 205.905 1223.04 206.839C1225.29 207.773 1227.21 209.124 1228.63 210.772L1293.08 286.033L1395.14 179.15C1396.66 177.54 1398.68 176.251 1401 175.401C1403.33 174.55 1405.89 174.164 1408.46 174.278C1411.03 174.391 1413.52 175.001 1415.7 176.052C1417.89 177.103 1419.71 178.562 1420.99 180.296L1533 331.128V671.568H-30Z" fill="#E76F51" fill-opacity="0.03"/>
<path d="M683.185 133.28L656.895 159.328L665.817 167.349C666.837 168.274 668.105 169.013 669.533 169.514C670.961 170.015 672.513 170.265 674.079 170.248C675.645 170.23 677.188 169.944 678.596 169.411C680.004 168.878 681.245 168.111 682.229 167.163L688.005 161.65C688.984 160.712 690.215 159.951 691.611 159.42C693.006 158.888 694.534 158.599 696.088 158.573C697.642 158.546 699.184 158.783 700.608 159.266C702.033 159.75 703.305 160.468 704.337 161.372C705.471 162.36 706.893 163.124 708.484 163.6C710.074 164.075 711.788 164.249 713.482 164.107C715.176 163.965 716.802 163.51 718.225 162.781C719.648 162.052 720.827 161.07 721.664 159.916L726.086 153.722L708.679 134.767C707.408 133.08 705.631 131.658 703.498 130.622C701.365 129.587 698.941 128.97 696.433 128.824C693.926 128.678 691.411 129.007 689.103 129.783C686.795 130.559 684.765 131.759 683.185 133.28Z" fill="#FAFAFA"/>
<path d="M947.123 61.9836L897.052 132.847L903.266 142.51C904.238 143.915 905.659 145.102 907.392 145.956C909.125 146.81 911.112 147.303 913.161 147.387C915.21 147.471 917.253 147.144 919.092 146.436C920.931 145.728 922.505 144.664 923.661 143.346L934.775 129.843C935.799 128.656 937.162 127.67 938.757 126.959C940.351 126.249 942.135 125.834 943.97 125.747C945.804 125.661 947.64 125.904 949.333 126.458C951.027 127.013 952.534 127.863 953.736 128.944C954.87 130.015 956.303 130.87 957.927 131.444C959.55 132.018 961.321 132.297 963.104 132.258C964.887 132.219 966.635 131.864 968.214 131.22C969.794 130.576 971.164 129.66 972.219 128.542L983.771 116.339C984.701 115.349 985.878 114.515 987.232 113.888C988.587 113.26 990.09 112.852 991.652 112.687C993.215 112.522 994.804 112.604 996.324 112.929C997.844 113.253 999.265 113.812 1000.5 114.574L1023.05 128.48L974.21 61.7668C972.852 59.8915 970.871 58.3342 968.474 57.2577C966.077 56.1812 963.352 55.625 960.584 55.6472C957.816 55.6693 955.107 56.269 952.739 57.3837C950.371 58.4983 948.432 60.087 947.123 61.9836Z" fill="#FAFAFA"/>
<path d="M1202.82 210.771L1174.06 244.345L1196.84 234.124C1198.45 233.387 1200.36 233.134 1202.19 233.414C1204.03 233.693 1205.67 234.486 1206.8 235.642L1213.01 241.836C1213.68 242.508 1214.52 243.064 1215.48 243.466C1216.44 243.868 1217.5 244.107 1218.58 244.169C1219.67 244.23 1220.76 244.112 1221.79 243.822C1222.81 243.532 1223.74 243.077 1224.53 242.486L1229.78 238.491C1231.23 237.405 1233.15 236.798 1235.16 236.798C1237.17 236.798 1239.1 237.405 1240.54 238.491L1273.76 263.423L1228.63 210.771C1227.21 209.123 1225.29 207.773 1223.04 206.839C1220.79 205.905 1218.27 205.416 1215.72 205.416C1213.17 205.416 1210.66 205.905 1208.41 206.839C1206.16 207.773 1204.24 209.123 1202.82 210.771Z" fill="#FAFAFA"/>
<path d="M452.268 7.10124L419.405 57.3373L422.99 61.8901C424.164 63.3507 425.755 64.5807 427.641 65.4844C429.526 66.3881 431.654 66.9409 433.86 67.0998C436.065 67.2587 438.288 67.0193 440.355 66.4004C442.422 65.7814 444.277 64.7997 445.775 63.5316L455.455 55.1383C456.803 53.9767 458.45 53.048 460.289 52.4124C462.128 51.7768 464.118 51.4484 466.13 51.4484C468.143 51.4484 470.133 51.7768 471.972 52.4124C473.811 53.048 475.458 53.9767 476.806 55.1383L497.559 73.0399C498.932 74.2143 500.61 75.1488 502.481 75.7815C504.353 76.4142 506.376 76.7308 508.417 76.7103C510.458 76.6898 512.47 76.3327 514.32 75.6626C516.17 74.9925 517.816 74.0247 519.149 72.8231L524.726 67.7438L479.515 6.54375C478.121 4.66204 476.1 3.10804 473.665 2.04606C471.229 0.984081 468.469 0.453614 465.678 0.510732C462.886 0.567849 460.166 1.21043 457.806 2.37054C455.446 3.53065 453.532 5.16517 452.268 7.10124Z" fill="#FAFAFA"/>
<path d="M1420.99 180.295C1419.71 178.561 1417.89 177.103 1415.71 176.052C1413.52 175.001 1411.03 174.391 1408.46 174.277C1405.89 174.163 1403.33 174.549 1401 175.4C1398.68 176.251 1396.66 177.54 1395.14 179.149L1365.62 210.121L1379.32 228.704C1380.05 229.693 1381.08 230.527 1382.33 231.134C1383.57 231.741 1384.98 232.101 1386.44 232.184C1387.91 232.267 1389.37 232.069 1390.72 231.608C1392.06 231.147 1393.23 230.437 1394.14 229.54L1405.09 218.824C1405.92 218 1406.99 217.333 1408.2 216.875C1409.41 216.417 1410.74 216.179 1412.08 216.179C1413.43 216.179 1414.76 216.417 1415.97 216.875C1417.18 217.333 1418.24 218 1419.08 218.824L1423.06 222.417C1424.04 223.357 1425.31 224.083 1426.76 224.523C1428.21 224.964 1429.78 225.103 1431.32 224.928C1432.86 224.753 1434.32 224.27 1435.54 223.525C1436.77 222.781 1437.72 221.801 1438.32 220.682L1443.57 210.71L1420.99 180.295Z" fill="#FAFAFA"/>
<path d="M125.392 220.311L139.373 226.505C141.865 227.62 144.744 228.097 147.604 227.869C150.463 227.641 153.158 226.72 155.307 225.235L169.607 215.231L137.74 181.689C136.265 180.124 134.325 178.858 132.085 178.001C129.846 177.144 127.373 176.72 124.877 176.766C122.382 176.811 119.937 177.325 117.752 178.263C115.567 179.201 113.705 180.536 112.326 182.154L73.9264 227.001L76.9538 229.602C79.3446 231.66 82.678 232.907 86.2381 233.075C89.7983 233.243 93.3011 232.318 95.9943 230.5L109.657 221.488C111.8 220.048 114.465 219.161 117.283 218.95C120.102 218.74 122.936 219.215 125.392 220.311Z" fill="#FAFAFA"/>
<g opacity="0.05">
<path opacity="0.05" d="M137.86 181.782L95.198 281.913L116.987 286.033L86.0363 355.471L169.727 281.913L223.821 356.493L256.286 306.846L137.86 181.782Z" fill="black"/>
<path opacity="0.05" d="M479.515 6.54434L518.791 147.311L470.951 191.693L479.435 255.03L449.122 364.453L619.969 195.719L479.515 6.54434Z" fill="black"/>
<path opacity="0.05" d="M708.798 134.705L689.558 188.782H720.509L664.901 299.072L751.5 244.345L791.015 282.935L813.362 251.282L708.798 134.705Z" fill="black"/>
<path opacity="0.05" d="M1138.37 286.033L974.251 61.7668L1014.56 174.875L961.823 234.558L1091.92 265.189L1050.09 301.983L1072.04 323.199L1038.18 402.92L1138.37 286.033Z" fill="black"/>
<path opacity="0.05" d="M1228.63 210.771L1202.1 272.963L1237.83 269.153L1237.39 344.383L1293.08 286.033L1228.63 210.771Z" fill="black"/>
<path opacity="0.05" d="M1420.99 180.295L1469.62 293.59L1412.02 339.397L1457 376.222L1412.02 489.64L1533 331.127L1420.99 180.295Z" fill="black"/>
</g>
</svg>
