<svg width="674" height="674" viewBox="0 0 674 674" fill="none" xmlns="http://www.w3.org/2000/svg">
<path d="M547.246 405.91C569.26 405.91 587.106 397.406 587.106 386.917C587.106 376.427 569.26 367.923 547.246 367.923C525.232 367.923 507.386 376.427 507.386 386.917C507.386 397.406 525.232 405.91 547.246 405.91Z" fill="#E76F51" fill-opacity="0.03"/>
<path d="M135.986 517.025C156.169 517.025 172.53 509.228 172.53 499.609C172.53 489.991 156.169 482.193 135.986 482.193C115.803 482.193 99.4414 489.991 99.4414 499.609C99.4414 509.228 115.803 517.025 135.986 517.025Z" fill="#E76F51" fill-opacity="0.03"/>
<path d="M407.312 550.51C428.314 550.51 445.339 542.392 445.339 532.379C445.339 522.366 428.314 514.249 407.312 514.249C386.31 514.249 369.285 522.366 369.285 532.379C369.285 542.392 386.31 550.51 407.312 550.51Z" fill="#E76F51" fill-opacity="0.03"/>
<path d="M218.565 463.753C239.567 463.753 256.592 455.635 256.592 445.622C256.592 435.609 239.567 427.491 218.565 427.491C197.563 427.491 180.538 435.609 180.538 445.622C180.538 455.635 197.563 463.753 218.565 463.753Z" fill="#E76F51" fill-opacity="0.03"/>
<path d="M442.347 342.58C443.277 331.406 468.889 289.483 476.721 282.985C484.553 276.488 498.383 260.069 492.425 250.741C486.467 241.413 468.957 245.565 452.511 274.641C439.759 297.193 435.796 347.069 435.796 347.069L442.347 342.58Z" fill="#2A9D8F"/>
<path d="M438.842 341.529H438.735C438.647 341.516 438.564 341.486 438.488 341.44C438.413 341.394 438.348 341.333 438.296 341.262C438.245 341.19 438.208 341.109 438.188 341.023C438.169 340.937 438.167 340.848 438.182 340.761C445.421 293.958 460.801 264.761 485.2 251.496C485.357 251.411 485.542 251.391 485.714 251.441C485.799 251.466 485.879 251.508 485.948 251.564C486.017 251.619 486.074 251.688 486.117 251.766C486.159 251.844 486.186 251.929 486.195 252.018C486.205 252.106 486.197 252.195 486.172 252.28C486.147 252.365 486.105 252.445 486.05 252.514C485.994 252.583 485.925 252.64 485.847 252.683C461.839 265.731 446.688 294.619 439.503 340.977C439.475 341.131 439.393 341.271 439.273 341.372C439.152 341.473 439 341.529 438.842 341.529Z" fill="white"/>
<path d="M444.922 288.364C444.922 288.364 465.479 252.831 482.505 236.56C491.941 227.542 497.737 221.732 497.225 214.912C496.847 209.735 492.547 206.972 483.3 209.25C464.873 213.779 454.992 232.449 448.629 253.356C444.114 268.077 444.922 288.364 444.922 288.364Z" fill="#2A9D8F"/>
<path opacity="0.2" d="M444.922 288.364C444.922 288.364 465.479 252.831 482.505 236.56C491.941 227.542 497.737 221.732 497.225 214.912C496.847 209.735 492.547 206.972 483.3 209.25C464.873 213.779 454.992 232.449 448.629 253.356C444.114 268.077 444.922 288.364 444.922 288.364Z" fill="black"/>
<path d="M447.308 282.527H447.214C447.036 282.497 446.876 282.399 446.77 282.252C446.664 282.106 446.62 281.924 446.648 281.745C453.967 235.563 481.79 218.174 490.147 213.941C490.307 213.861 490.491 213.847 490.66 213.903C490.829 213.958 490.97 214.079 491.051 214.237C491.092 214.316 491.117 214.402 491.125 214.49C491.132 214.579 491.122 214.668 491.094 214.752C491.066 214.836 491.022 214.914 490.964 214.981C490.905 215.048 490.834 215.102 490.754 215.141C482.545 219.306 455.207 236.398 447.982 281.961C447.956 282.12 447.874 282.265 447.75 282.369C447.627 282.473 447.47 282.529 447.308 282.527Z" fill="white"/>
<path d="M166.248 121.724L156.893 116.332C153.429 114.27 148.293 114.674 142.55 117.99C134.611 122.574 127.817 133.708 125.026 143.05L118.394 139.235C114.984 136.943 110.306 136.539 105.143 139.585C94.7234 145.597 86.2715 158.916 86.2715 169.322C86.2715 179.203 92.3644 185.498 99.8593 189.542L107.233 193.802L107.327 192.75C108.81 193.249 110.279 193.694 111.708 194.098L123.84 197.307L135.972 180.052C147.552 163.62 161.342 140.96 161.342 125.997C161.342 125.431 161.315 124.879 161.261 124.339L163.822 125.687L166.248 121.724Z" fill="#F28F8F"/>
<path d="M166.248 121.724L156.893 116.332C153.429 114.27 148.293 114.674 142.55 117.99C134.611 122.574 127.817 133.708 125.026 143.05L118.394 139.235C114.984 136.943 110.306 136.539 105.143 139.585C94.7234 145.597 86.2715 158.916 86.2715 169.322C86.2715 179.203 92.3644 185.498 99.8593 189.542L107.233 193.802L107.327 192.75C108.81 193.249 110.279 193.694 111.708 194.098L123.84 197.307L135.972 180.052C147.552 163.62 161.342 140.96 161.342 125.997C161.342 125.431 161.315 124.879 161.261 124.339L163.822 125.687L166.248 121.724Z" fill="#E76F51"/>
<path d="M133.45 202.807L121.318 199.585C109.712 196.511 95.8682 189.731 95.8682 174.863C95.8682 164.443 104.32 151.124 114.74 145.112C124.324 139.572 132.264 145.49 133.437 154.063C134.65 144.115 142.563 129.044 152.147 123.517C162.554 117.505 171.019 121.077 171.019 131.484C171.019 146.312 157.216 169.107 145.65 185.552L133.45 202.807Z" fill="black"/>
<path d="M251.454 124.245C251.47 123.569 251.375 122.895 251.171 122.25L258.437 113.933L249.136 108.703C248.259 108.096 246.992 108.029 245.294 109.013L229.118 118.381L226.948 119.635C227.331 117.767 227.592 115.875 227.729 113.973C227.729 113.178 227.797 112.41 227.797 111.655L228.093 111.816L233.485 105.454L224.265 100.264C221.151 98.2286 215.759 102.084 215.759 103.607C215.759 105.454 216.554 115.065 215.759 117.815C214.964 120.565 206.66 139.558 206.66 139.558V179.163L236.99 161.639C241.034 159.32 243.73 154.413 243.73 151.084C243.775 149.596 243.499 148.115 242.921 146.743C245.496 145.26 248.071 139.882 248.071 137.59C248.071 134.139 246.884 133.25 246.884 133.25C248.205 132.127 249.289 130.752 250.074 129.206C250.858 127.66 251.327 125.974 251.454 124.245Z" fill="#FAFAFA"/>
<path d="M216.354 184.554L206.77 179.014L206.729 139.423L216.327 144.964L216.354 184.554Z" fill="#E76F51"/>
<path d="M257.777 142.955C257.777 145.247 255.215 150.625 252.641 152.108C253.201 153.494 253.467 154.981 253.422 156.476C253.422 159.778 250.659 164.712 246.683 167.004L216.353 184.528V146.622V144.95C216.353 144.95 224.683 125.943 225.465 123.194C226.247 120.444 225.465 110.846 225.465 108.999C225.465 107.152 233 102.138 235.386 107.395C237.772 112.652 237.974 118.017 236.586 125L254.919 114.405C258.788 112.167 260.311 115.375 260.311 117.882C260.188 120.762 259.155 123.528 257.359 125.782C257.359 125.782 261.012 124.703 261.012 129.61C260.909 131.331 260.461 133.014 259.694 134.559C258.928 136.104 257.858 137.478 256.55 138.601C256.55 138.601 257.777 139.531 257.777 142.955Z" fill="black"/>
<path d="M198.749 200.057L212 192.413L211.959 146.339L198.749 153.982V200.057Z" fill="black"/>
<path d="M198.749 200.057L189.151 194.53V148.442L198.749 153.982V200.057Z" fill="#E76F51"/>
<path d="M202.375 140.798L211.96 146.339L198.749 153.982L189.151 148.441L202.375 140.798Z" fill="#F5F5F5"/>
<path d="M225.425 123.207C224.644 125.903 216.313 144.964 216.313 144.964L206.742 139.572C206.742 139.572 215.046 120.578 215.841 117.829C216.637 115.079 215.841 105.467 215.841 103.621L225.439 109.013C225.425 110.859 226.234 120.471 225.425 123.207Z" fill="#E76F51"/>
<path d="M560.066 183.477L555.618 175.119L559.19 164.793V158.471L548.244 164.793V171.115L552.949 179.284C553.022 179.412 553.136 179.512 553.272 179.567L560.066 183.477Z" fill="black"/>
<path opacity="0.1" d="M560.066 183.477L555.618 175.119L559.19 164.793V158.471L548.244 164.793V171.115L552.949 179.284C553.022 179.412 553.136 179.512 553.272 179.567L560.066 183.477Z" fill="black"/>
<path d="M534.671 144.236L564.812 126.712C565.83 126.2 566.954 125.933 568.094 125.933C569.234 125.933 570.358 126.2 571.377 126.712L574.073 128.262C575.032 128.883 575.83 129.722 576.401 130.711C576.973 131.7 577.302 132.81 577.362 133.951V158.377C577.299 159.517 576.969 160.626 576.397 161.614C575.826 162.602 575.029 163.442 574.073 164.065L543.905 181.589C542.886 182.101 541.762 182.368 540.622 182.368C539.482 182.368 538.358 182.101 537.34 181.589L534.644 180.039C533.688 179.416 532.893 178.576 532.324 177.587C531.755 176.599 531.427 175.49 531.368 174.35V149.898C531.438 148.762 531.773 147.657 532.346 146.674C532.92 145.691 533.716 144.856 534.671 144.236Z" fill="black"/>
<path opacity="0.3" d="M534.671 144.236L564.812 126.712C565.83 126.2 566.954 125.933 568.094 125.933C569.234 125.933 570.358 126.2 571.377 126.712L574.073 128.262C575.032 128.883 575.83 129.722 576.401 130.711C576.973 131.7 577.302 132.81 577.362 133.951V158.377C577.299 159.517 576.969 160.626 576.397 161.614C575.826 162.602 575.029 163.442 574.073 164.065L543.905 181.589C542.886 182.101 541.762 182.368 540.622 182.368C539.482 182.368 538.358 182.101 537.34 181.589L534.644 180.039C533.688 179.416 532.893 178.576 532.324 177.587C531.755 176.599 531.427 175.49 531.368 174.35V149.898C531.438 148.762 531.773 147.657 532.346 146.674C532.92 145.691 533.716 144.856 534.671 144.236Z" fill="#E76F51"/>
<path d="M543.918 181.562C542.098 182.6 540.629 181.765 540.629 179.662V155.236C540.692 154.096 541.022 152.987 541.594 151.999C542.165 151.01 542.961 150.171 543.918 149.547L574.086 132.023C575.906 130.972 577.375 131.821 577.375 133.924V158.35C577.313 159.49 576.982 160.599 576.411 161.587C575.839 162.576 575.043 163.415 574.086 164.038" fill="black"/>
<path d="M531.395 174.323C531.454 175.463 531.781 176.572 532.35 177.56C532.92 178.549 533.715 179.389 534.67 180.012L537.366 181.562C538.291 182.026 539.304 182.289 540.338 182.334C541.372 182.378 542.404 182.202 543.365 181.818C541.828 182.411 540.669 181.535 540.669 179.661V155.236C540.713 154.092 541.047 152.979 541.639 152L532.392 146.608C531.804 147.588 531.475 148.702 531.435 149.844L531.395 174.323Z" fill="black"/>
<path opacity="0.1" d="M531.395 174.323C531.454 175.463 531.781 176.572 532.35 177.56C532.92 178.549 533.715 179.389 534.67 180.012L537.366 181.562C538.291 182.026 539.304 182.289 540.338 182.334C541.372 182.378 542.404 182.202 543.365 181.818C541.828 182.411 540.669 181.535 540.669 179.661V155.236C540.713 154.092 541.047 152.979 541.639 152L532.392 146.608C531.804 147.588 531.475 148.702 531.435 149.844L531.395 174.323Z" fill="black"/>
<path d="M555.106 175.078L559.811 183.234C559.881 183.348 559.981 183.441 560.101 183.502C560.221 183.562 560.356 183.587 560.489 183.575C560.623 183.562 560.75 183.512 560.857 183.43C560.963 183.348 561.045 183.238 561.092 183.112L566.066 168.756V162.434L555.106 168.756V175.078Z" fill="black"/>
<path d="M559.016 166.734L555.646 165.845C552.438 164.995 548.609 163.149 548.609 159.01C548.771 157.324 549.328 155.7 550.234 154.269C551.14 152.838 552.371 151.641 553.826 150.774C554.303 150.433 554.863 150.226 555.447 150.175C556.031 150.124 556.619 150.231 557.147 150.484C557.676 150.738 558.127 151.128 558.454 151.616C558.78 152.103 558.97 152.669 559.002 153.254C559.339 150.558 561.523 146.326 564.179 144.789C567.063 143.131 569.396 144.115 569.396 147C569.396 151.124 565.581 157.406 562.372 161.962L559.016 166.734Z" fill="#E76F51"/>
<path d="M113.367 247.628L143.535 230.171C144.552 229.653 145.677 229.383 146.818 229.383C147.959 229.383 149.084 229.653 150.1 230.171L152.796 231.708C153.75 232.333 154.543 233.174 155.112 234.162C155.681 235.15 156.01 236.258 156.072 237.397V261.822C156.01 262.961 155.681 264.069 155.112 265.057C154.543 266.045 153.75 266.885 152.796 267.511L122.668 284.967C121.65 285.486 120.523 285.756 119.379 285.756C118.236 285.756 117.109 285.486 116.09 284.967L113.394 283.431C112.425 282.805 111.619 281.958 111.043 280.96C110.466 279.961 110.136 278.84 110.078 277.688V253.316C110.138 252.176 110.467 251.065 111.039 250.077C111.61 249.088 112.408 248.249 113.367 247.628Z" fill="black"/>
<path opacity="0.3" d="M113.367 247.628L143.535 230.171C144.552 229.653 145.677 229.383 146.818 229.383C147.959 229.383 149.084 229.653 150.1 230.171L152.796 231.708C153.75 232.333 154.543 233.174 155.112 234.162C155.681 235.15 156.01 236.258 156.072 237.397V261.822C156.01 262.961 155.681 264.069 155.112 265.057C154.543 266.045 153.75 266.885 152.796 267.511L122.668 284.967C121.65 285.486 120.523 285.756 119.379 285.756C118.236 285.756 117.109 285.486 116.09 284.967L113.394 283.431C112.425 282.805 111.619 281.958 111.043 280.96C110.466 279.961 110.136 278.84 110.078 277.688V253.316C110.138 252.176 110.467 251.065 111.039 250.077C111.61 249.088 112.408 248.249 113.367 247.628Z" fill="#E76F51"/>
<path d="M138.75 286.895L134.301 278.524L137.887 268.198V261.876L126.928 268.252V274.574L131.646 282.662C131.717 282.786 131.825 282.885 131.956 282.945L138.75 286.895Z" fill="black"/>
<path opacity="0.1" d="M138.75 286.895L134.301 278.524L137.887 268.198V261.876L126.928 268.252V274.574L131.646 282.662C131.717 282.786 131.825 282.885 131.956 282.945L138.75 286.895Z" fill="black"/>
<path d="M122.668 284.967C120.848 286.019 119.379 285.17 119.379 283.067V258.641C119.442 257.503 119.772 256.396 120.344 255.409C120.915 254.423 121.712 253.586 122.668 252.966L152.85 235.442C154.656 234.404 156.125 235.253 156.125 237.342V261.768C156.063 262.907 155.734 264.015 155.165 265.003C154.596 265.991 153.803 266.831 152.85 267.457" fill="black"/>
<path d="M110.078 277.688C110.141 278.828 110.471 279.937 111.043 280.925C111.614 281.914 112.411 282.753 113.367 283.377L116.063 284.913C116.991 285.377 118.005 285.64 119.041 285.687C120.076 285.733 121.11 285.562 122.075 285.183C120.525 285.763 119.379 284.886 119.379 283.013V258.641C119.419 257.499 119.748 256.385 120.336 255.406L111.103 250.081C110.51 251.06 110.176 252.173 110.132 253.316L110.078 277.688Z" fill="black"/>
<path opacity="0.1" d="M110.078 277.688C110.141 278.828 110.471 279.937 111.043 280.925C111.614 281.914 112.411 282.753 113.367 283.377L116.063 284.913C116.991 285.377 118.005 285.64 119.041 285.687C120.076 285.733 121.11 285.562 122.075 285.183C120.525 285.763 119.379 284.886 119.379 283.013V258.641C119.419 257.499 119.748 256.385 120.336 255.406L111.103 250.081C110.51 251.06 110.176 252.173 110.132 253.316L110.078 277.688Z" fill="black"/>
<path d="M133.803 278.483L138.507 286.571C138.575 286.687 138.674 286.781 138.793 286.842C138.912 286.903 139.046 286.929 139.18 286.916C139.313 286.903 139.44 286.853 139.545 286.77C139.651 286.688 139.73 286.577 139.774 286.45L144.748 272.094V265.772L133.803 272.094V278.483Z" fill="black"/>
<path d="M126.309 263.898C125.399 264.483 124.644 265.279 124.107 266.217C123.57 267.156 123.266 268.21 123.222 269.29C123.222 271.258 124.57 271.986 126.309 271.07C127.212 270.478 127.962 269.681 128.499 268.744C129.035 267.807 129.343 266.756 129.395 265.678C129.409 263.709 128.061 262.86 126.309 263.898Z" fill="#E76F51"/>
<path d="M137.7 257.306C136.793 257.895 136.039 258.691 135.499 259.628C134.96 260.566 134.652 261.618 134.6 262.698C134.6 264.666 135.948 265.462 137.7 264.478C138.603 263.886 139.354 263.089 139.89 262.152C140.427 261.215 140.734 260.164 140.787 259.086C140.787 257.118 139.398 256.322 137.7 257.306Z" fill="#E76F51"/>
<path d="M149.076 250.728C148.173 251.32 147.422 252.117 146.886 253.054C146.35 253.991 146.042 255.042 145.989 256.12C145.989 258.088 147.337 258.816 149.076 257.9C149.986 257.314 150.741 256.519 151.278 255.58C151.815 254.642 152.119 253.588 152.163 252.508C152.163 250.526 150.788 249.731 149.076 250.728Z" fill="#E76F51"/>
<path d="M433.261 70.6757L302.209 146.299C300.51 147.407 299.097 148.9 298.083 150.656C297.069 152.413 296.483 154.383 296.372 156.409V446.485C296.372 450.205 298.987 451.715 302.209 449.855L433.261 374.232C434.96 373.123 436.373 371.631 437.387 369.874C438.402 368.118 438.988 366.147 439.098 364.122V74.0457C439.098 70.3253 436.483 68.8155 433.261 70.6757Z" fill="black"/>
<path d="M302.209 146.299L433.262 70.6758C436.147 69.0178 438.533 70.0557 439.004 72.9539C438.738 71.1305 438.089 69.3841 437.099 67.8297C436.109 66.2754 434.802 64.9483 433.262 63.9358L428.503 61.2398C426.695 60.3221 424.695 59.8438 422.667 59.8438C420.638 59.8438 418.639 60.3221 416.83 61.2398L285.777 136.822C284.053 137.898 282.633 139.397 281.652 141.176L298.084 150.612C299.071 148.847 300.49 147.363 302.209 146.299Z" fill="black"/>
<path d="M279.94 436.995C280.049 439.02 280.634 440.992 281.648 442.749C282.663 444.505 284.077 445.998 285.777 447.105L290.536 449.801C292.181 450.63 293.983 451.101 295.823 451.182C297.664 451.264 299.5 450.953 301.212 450.272C298.516 451.31 296.373 449.76 296.373 446.431V156.368C296.44 154.334 297.03 152.352 298.085 150.612L281.652 141.176C280.6 142.917 280.011 144.899 279.94 146.932V436.995Z" fill="black"/>
<path d="M305.351 182.425L430.121 110.428C432.049 109.31 433.626 110.213 433.626 112.45V332.053C433.557 333.268 433.204 334.449 432.595 335.503C431.987 336.557 431.139 337.453 430.121 338.119L305.351 410.102C303.423 411.221 301.846 410.318 301.846 408.08V188.491C301.91 187.275 302.262 186.092 302.871 185.038C303.48 183.984 304.33 183.088 305.351 182.425Z" fill="#FAFAFA"/>
<path d="M366.414 119.743C365.818 120.134 365.322 120.66 364.966 121.278C364.61 121.897 364.404 122.59 364.365 123.302C364.365 124.65 365.282 125.148 366.414 124.488C367.012 124.098 367.509 123.573 367.865 122.954C368.221 122.336 368.426 121.642 368.463 120.929C368.463 119.622 367.547 119.096 366.414 119.743Z" fill="black"/>
<path d="M347.017 140.61C345.833 141.397 344.85 142.451 344.148 143.687C343.445 144.924 343.043 146.307 342.973 147.727C342.973 150.342 344.806 151.407 347.017 150.1C348.214 149.321 349.21 148.27 349.925 147.033C350.639 145.797 351.051 144.409 351.128 142.982C351.128 140.367 349.281 139.302 347.017 140.61Z" fill="black"/>
<path d="M357.059 139.72C357.059 141.473 358.407 142.133 359.984 141.203L386.944 125.607C387.776 125.083 388.473 124.371 388.978 123.528C389.484 122.685 389.785 121.735 389.855 120.754C389.855 119.015 388.507 118.355 386.944 119.285L359.984 134.881C359.15 135.401 358.451 136.111 357.943 136.951C357.435 137.792 357.132 138.741 357.059 139.72Z" fill="black"/>
<path d="M289.025 191.106C289.984 191.727 290.782 192.566 291.353 193.555C291.925 194.544 292.254 195.654 292.314 196.795C292.314 198.884 290.844 199.733 289.025 198.695C288.07 198.068 287.277 197.225 286.708 196.235C286.139 195.244 285.81 194.134 285.749 192.993C285.776 190.904 287.218 190.068 289.025 191.106Z" fill="black"/>
<path d="M289.027 216.408C289.984 217.031 290.78 217.871 291.351 218.859C291.923 219.848 292.253 220.957 292.316 222.097C292.316 224.2 290.847 225.049 289.027 223.997C288.087 223.376 287.305 222.545 286.741 221.569C286.178 220.594 285.848 219.501 285.778 218.376C285.778 216.219 287.221 215.37 289.027 216.408Z" fill="black"/>
<path d="M288.015 191.605C288.971 192.228 289.768 193.068 290.339 194.056C290.911 195.044 291.241 196.153 291.304 197.293C291.304 199.396 289.835 200.246 288.015 199.194C287.06 198.569 286.264 197.729 285.693 196.741C285.122 195.753 284.79 194.645 284.726 193.506C284.726 191.416 286.208 190.567 288.015 191.605Z" fill="black"/>
<path d="M288.015 216.921C288.971 217.544 289.768 218.383 290.339 219.372C290.911 220.36 291.241 221.469 291.304 222.609C291.304 224.712 289.835 225.561 288.015 224.51C287.06 223.885 286.264 223.045 285.693 222.057C285.122 221.069 284.79 219.961 284.726 218.821C284.726 216.718 286.208 215.869 288.015 216.921Z" fill="black"/>
<path d="M367.736 383.803C365.38 385.341 363.42 387.414 362.015 389.852C360.609 392.29 359.799 395.025 359.648 397.835C359.648 403.012 363.275 405.101 367.736 402.526C370.093 400.985 372.053 398.91 373.458 396.469C374.864 394.029 375.674 391.292 375.824 388.48C375.838 383.304 372.212 381.214 367.736 383.803Z" fill="black"/>
<path d="M331.218 406.975C330.072 406.975 329.951 405.627 329.951 405.142V185.552C330.022 184.456 330.344 183.39 330.894 182.439C331.443 181.487 332.205 180.675 333.119 180.066L457.89 108.069C458.262 107.847 458.683 107.717 459.116 107.692C460.262 107.692 460.384 108.959 460.384 109.512V329.114C460.314 330.209 459.992 331.273 459.442 332.223C458.893 333.172 458.131 333.982 457.216 334.587L332.445 406.584C332.077 406.818 331.654 406.952 331.218 406.975Z" fill="white" stroke="#2A9D8F" stroke-miterlimit="10"/>
<path d="M459.116 108.366C459.628 108.366 459.709 109.08 459.709 109.512V329.114C459.641 330.092 459.351 331.041 458.86 331.889C458.369 332.737 457.691 333.462 456.878 334.008L332.107 406.004C331.839 406.173 331.534 406.275 331.217 406.301C330.705 406.301 330.624 405.573 330.624 405.142V185.552C330.692 184.575 330.983 183.626 331.473 182.778C331.964 181.93 332.642 181.205 333.455 180.659L458.226 108.662C458.492 108.488 458.798 108.385 459.116 108.366ZM459.116 107.018C458.562 107.036 458.023 107.199 457.552 107.49L332.781 179.486C331.76 180.15 330.911 181.045 330.301 182.099C329.692 183.153 329.341 184.337 329.276 185.552V405.142C329.276 406.732 330.072 407.649 331.217 407.649C331.772 407.625 332.311 407.458 332.781 407.164L457.552 335.18C458.572 334.516 459.421 333.621 460.03 332.567C460.639 331.513 460.991 330.33 461.057 329.114V109.512C461.057 107.935 460.261 107.018 459.116 107.018Z" fill="#2A9D8F" stroke="#2A9D8F" stroke-miterlimit="10"/>
<path d="M461.017 109.512C461.017 107.274 459.453 106.371 457.512 107.49L332.741 179.486C331.72 180.15 330.871 181.045 330.261 182.099C329.652 183.153 329.301 184.337 329.236 185.552V203.548L461.017 127.507V109.512Z" fill="#2A9D8F"/>
<path opacity="0.1" d="M461.017 109.512C461.017 107.274 459.453 106.371 457.512 107.49L332.741 179.486C331.72 180.15 330.871 181.045 330.261 182.099C329.652 183.153 329.301 184.337 329.236 185.552V203.548L461.017 127.507V109.512Z" fill="black"/>
<path d="M343.028 183.638C342.806 183.554 342.567 183.526 342.332 183.557C342.097 183.587 341.873 183.676 341.68 183.813C340.987 184.273 340.41 184.888 339.994 185.608C339.577 186.328 339.333 187.135 339.281 187.965C339.247 188.204 339.278 188.448 339.37 188.671C339.463 188.893 339.614 189.087 339.807 189.232C340.028 189.323 340.269 189.354 340.506 189.321C340.743 189.287 340.967 189.192 341.155 189.044C341.843 188.583 342.417 187.971 342.831 187.253C343.245 186.535 343.487 185.732 343.541 184.905C343.576 184.667 343.547 184.425 343.457 184.202C343.367 183.979 343.219 183.784 343.028 183.638Z" fill="white"/>
<path d="M345.871 179.041L345.575 179.217V178.61C345.575 177.761 344.982 177.41 344.227 177.842L338.565 181.104C338.176 181.356 337.851 181.696 337.617 182.096C337.383 182.496 337.246 182.946 337.217 183.409V184.029L336.907 184.204C336.39 184.541 335.959 184.994 335.65 185.528C335.341 186.062 335.162 186.662 335.128 187.278V192.764C335.128 193.896 335.923 194.368 336.907 193.802L345.845 188.639C346.363 188.301 346.794 187.845 347.104 187.309C347.413 186.772 347.591 186.17 347.624 185.552V180.039C347.651 178.934 346.856 178.475 345.871 179.041ZM341.666 189.933C341.23 190.199 340.733 190.348 340.223 190.365C339.893 190.368 339.568 190.284 339.28 190.122C338.931 189.887 338.651 189.563 338.469 189.184C338.286 188.805 338.208 188.384 338.242 187.965C338.289 186.955 338.578 185.971 339.084 185.096C339.591 184.221 340.301 183.481 341.153 182.937C341.496 182.69 341.899 182.542 342.32 182.509C342.741 182.476 343.163 182.558 343.539 182.748C343.889 182.982 344.168 183.306 344.349 183.686C344.529 184.065 344.603 184.487 344.564 184.905C344.516 185.914 344.229 186.896 343.724 187.771C343.22 188.645 342.514 189.387 341.666 189.933ZM345.71 182.614C345.251 182.87 344.887 182.614 344.887 182.128C344.901 181.842 344.983 181.563 345.126 181.315C345.269 181.066 345.469 180.855 345.71 180.699C346.168 180.43 346.545 180.699 346.545 181.171C346.535 181.456 346.459 181.734 346.324 181.984C346.188 182.234 345.996 182.45 345.764 182.614H345.71Z" fill="white"/>
<path d="M453.846 115.052L445.125 120.08C444.619 120.409 444.198 120.853 443.896 121.375C443.594 121.898 443.419 122.484 443.386 123.086V128.478C443.386 129.57 444.168 130.028 445.125 129.476L450.314 126.483L452.35 128.518C452.398 128.563 452.457 128.592 452.522 128.603C452.586 128.615 452.652 128.607 452.712 128.581C452.772 128.555 452.823 128.513 452.859 128.459C452.895 128.405 452.915 128.341 452.916 128.276V124.973L453.846 124.434C454.359 124.109 454.788 123.667 455.097 123.145C455.407 122.622 455.588 122.034 455.626 121.428V116.036C455.626 114.944 454.803 114.499 453.846 115.052Z" fill="white"/>
<path d="M346.073 200.34C350.629 197.752 354.323 199.855 354.323 205.058C354.159 207.904 353.327 210.671 351.893 213.135C350.46 215.599 348.466 217.69 346.073 219.239C341.503 221.935 337.81 219.765 337.81 214.521C337.963 211.671 338.792 208.899 340.229 206.433C341.666 203.967 343.669 201.878 346.073 200.34Z" fill="#2A9D8F"/>
<path d="M362.492 193.991L389.87 178.192C391.487 177.262 392.795 177.923 392.795 179.662C392.724 180.644 392.422 181.595 391.913 182.438C391.405 183.282 390.705 183.993 389.87 184.515L362.492 200.313C360.888 201.243 359.58 200.583 359.58 198.844C359.651 197.863 359.951 196.913 360.457 196.07C360.963 195.227 361.66 194.515 362.492 193.991Z" fill="#2A9D8F"/>
<g opacity="0.7">
<path opacity="0.7" d="M362.492 193.991L389.87 178.192C391.487 177.262 392.795 177.923 392.795 179.662C392.724 180.644 392.422 181.595 391.913 182.438C391.405 183.282 390.705 183.993 389.87 184.515L362.492 200.313C360.888 201.243 359.58 200.583 359.58 198.844C359.651 197.863 359.951 196.913 360.457 196.07C360.963 195.227 361.66 194.515 362.492 193.991Z" fill="white"/>
</g>
<path d="M361.575 205.193L380.353 194.409C381.458 193.775 382.348 194.22 382.348 195.42C382.3 196.092 382.094 196.744 381.747 197.322C381.401 197.901 380.923 198.389 380.353 198.749L361.575 209.533C360.47 210.167 359.58 209.708 359.58 208.509C359.629 207.838 359.836 207.189 360.182 206.613C360.529 206.037 361.006 205.55 361.575 205.193Z" fill="#2A9D8F"/>
<g opacity="0.7">
<path opacity="0.7" d="M361.575 205.193L380.353 194.409C381.458 193.775 382.348 194.22 382.348 195.42C382.3 196.092 382.094 196.744 381.747 197.322C381.401 197.901 380.923 198.389 380.353 198.749L361.575 209.533C360.47 210.167 359.58 209.708 359.58 208.509C359.629 207.838 359.836 207.189 360.182 206.613C360.529 206.037 361.006 205.55 361.575 205.193Z" fill="white"/>
</g>
<path d="M346.073 342.069C350.629 339.481 354.323 341.597 354.323 346.787C354.159 349.633 353.327 352.4 351.893 354.864C350.46 357.328 348.466 359.419 346.073 360.968C341.503 363.664 337.81 361.493 337.81 356.25C337.966 353.401 338.797 350.629 340.233 348.164C341.67 345.699 343.671 343.61 346.073 342.069Z" fill="#2A9D8F"/>
<path d="M362.492 335.733L389.87 319.921C391.487 318.991 392.795 319.651 392.795 321.39C392.724 322.372 392.422 323.324 391.913 324.167C391.405 325.01 390.705 325.721 389.87 326.243L362.492 342.055C360.888 342.985 359.58 342.325 359.58 340.572C359.653 339.594 359.954 338.647 360.46 337.806C360.966 336.966 361.662 336.256 362.492 335.733Z" fill="#2A9D8F"/>
<g opacity="0.7">
<path opacity="0.7" d="M362.492 335.733L389.87 319.921C391.487 318.991 392.795 319.651 392.795 321.39C392.724 322.372 392.422 323.324 391.913 324.167C391.405 325.01 390.705 325.721 389.87 326.243L362.492 342.055C360.888 342.985 359.58 342.325 359.58 340.572C359.653 339.594 359.954 338.647 360.46 337.806C360.966 336.966 361.662 336.256 362.492 335.733Z" fill="white"/>
</g>
<path d="M361.575 346.922L380.353 336.138C381.458 335.504 382.348 335.949 382.348 337.149C382.3 337.821 382.094 338.473 381.747 339.051C381.401 339.63 380.923 340.118 380.353 340.478L361.575 351.262C360.47 351.896 359.58 351.437 359.58 350.251C359.627 349.578 359.833 348.926 360.179 348.348C360.526 347.769 361.004 347.28 361.575 346.922Z" fill="#2A9D8F"/>
<g opacity="0.7">
<path opacity="0.7" d="M361.575 346.922L380.353 336.138C381.458 335.504 382.348 335.949 382.348 337.149C382.3 337.821 382.094 338.473 381.747 339.051C381.401 339.63 380.923 340.118 380.353 340.478L361.575 351.262C360.47 351.896 359.58 351.437 359.58 350.251C359.627 349.578 359.833 348.926 360.179 348.348C360.526 347.769 361.004 347.28 361.575 346.922Z" fill="white"/>
</g>
<path d="M343.512 227.084L447.187 167.233C448.805 166.303 450.112 167.058 450.112 168.918V272.458C450.057 273.473 449.763 274.461 449.255 275.342C448.747 276.222 448.038 276.971 447.187 277.526L343.512 337.728C341.895 338.658 340.601 337.903 340.601 336.043V232.139C340.653 231.127 340.944 230.141 341.45 229.263C341.956 228.384 342.663 227.638 343.512 227.084Z" fill="#F5F5F5"/>
<path d="M381.566 250.796C381.301 250.408 380.935 250.1 380.508 249.905C380.081 249.71 379.609 249.635 379.142 249.689C378.676 249.744 378.233 249.924 377.862 250.212C377.491 250.5 377.205 250.883 377.037 251.321L340.641 320.447V336.043C340.641 337.903 341.989 338.658 343.552 337.728L447.227 277.837C448.078 277.281 448.787 276.533 449.295 275.652C449.804 274.771 450.097 273.783 450.152 272.768V238.259L430.458 203.279C429.366 201.324 427.843 201.445 427.047 203.535L400.829 273.024L381.566 250.796Z" fill="#2A9D8F"/>
<g opacity="0.3">
<path opacity="0.3" d="M381.566 250.796C381.301 250.408 380.935 250.1 380.508 249.905C380.081 249.71 379.609 249.635 379.142 249.689C378.676 249.744 378.233 249.924 377.862 250.212C377.491 250.5 377.205 250.883 377.037 251.321L340.641 320.447V336.043C340.641 337.903 341.989 338.658 343.552 337.728L447.227 277.837C448.078 277.281 448.787 276.533 449.295 275.652C449.804 274.771 450.097 273.783 450.152 272.768V238.259L430.458 203.279C429.366 201.324 427.843 201.445 427.047 203.535L400.829 273.024L381.566 250.796Z" fill="white"/>
</g>
<path d="M351.533 255.096C360.672 249.852 368.1 237.073 368.1 226.559C368.1 221.167 366.159 217.473 363.072 215.775L343.512 227.057C342.663 227.611 341.956 228.357 341.45 229.236C340.944 230.114 340.653 231.1 340.601 232.112V256.565C343.512 257.873 347.327 257.468 351.533 255.096Z" fill="#2A9D8F"/>
<g opacity="0.6">
<path opacity="0.6" d="M351.533 255.096C360.672 249.852 368.1 237.073 368.1 226.559C368.1 221.167 366.159 217.473 363.072 215.775L343.512 227.057C342.663 227.611 341.956 228.357 341.45 229.236C340.944 230.114 340.653 231.1 340.601 232.112V256.565C343.512 257.873 347.327 257.468 351.533 255.096Z" fill="white"/>
</g>
<path d="M343.512 369.352L447.187 309.487C448.805 308.557 450.112 309.218 450.112 310.97C450.039 311.95 449.736 312.899 449.228 313.739C448.719 314.58 448.02 315.289 447.187 315.81L343.512 375.674C341.895 376.604 340.601 375.944 340.601 374.191C340.669 373.212 340.969 372.263 341.475 371.422C341.981 370.581 342.679 369.871 343.512 369.352Z" fill="#2A9D8F"/>
<g opacity="0.6">
<path opacity="0.6" d="M343.512 369.352L447.187 309.487C448.805 308.557 450.112 309.218 450.112 310.97C450.039 311.95 449.736 312.899 449.228 313.739C448.719 314.58 448.02 315.289 447.187 315.81L343.512 375.674C341.895 376.604 340.601 375.944 340.601 374.191C340.669 373.212 340.969 372.263 341.475 371.422C341.981 370.581 342.679 369.871 343.512 369.352Z" fill="white"/>
</g>
<path d="M343.512 381.997L447.187 322.172C448.805 321.242 450.112 321.903 450.112 323.655C450.039 324.635 449.736 325.583 449.228 326.424C448.719 327.265 448.02 327.974 447.187 328.494L343.512 388.359C341.895 389.289 340.601 388.629 340.601 386.876C340.664 385.89 340.961 384.934 341.467 384.085C341.974 383.237 342.675 382.521 343.512 381.997Z" fill="#2A9D8F"/>
<g opacity="0.6">
<path opacity="0.6" d="M343.512 381.997L447.187 322.172C448.805 321.242 450.112 321.903 450.112 323.655C450.039 324.635 449.736 325.583 449.228 326.424C448.719 327.265 448.02 327.974 447.187 328.494L343.512 388.359C341.895 389.289 340.601 388.629 340.601 386.876C340.664 385.89 340.961 384.934 341.467 384.085C341.974 383.237 342.675 382.521 343.512 381.997Z" fill="white"/>
</g>
<path d="M359.499 170.724L433.464 128.06C435.729 126.712 437.508 127.817 437.508 130.419C437.438 131.832 437.035 133.208 436.332 134.435C435.63 135.663 434.647 136.707 433.464 137.483L359.513 180.026C357.248 181.374 355.469 180.295 355.469 177.734C355.546 176.332 355.95 174.967 356.65 173.75C357.35 172.532 358.326 171.496 359.499 170.724Z" fill="#FAFAFA"/>
<path d="M576.809 251.645L582.053 261.256L573.897 268.252L566.416 256.403L576.809 251.645Z" fill="#F28F8F"/>
<path d="M557.129 230.225C562.332 230.225 568.061 232.166 570.029 236.251L578.117 253.02C578.117 253.02 573.521 259.76 566.228 259.275L557.129 230.225Z" fill="#E0E0E0"/>
<path d="M576.406 262.752C577.929 259.922 578.307 259.787 579.21 259.167C580.113 258.547 585.667 257.724 587.972 257.522C590.668 257.293 591.652 257.792 590.897 260.124C588.821 266.005 586.278 271.712 583.294 277.189C582.566 278.147 582.432 279.036 579.372 279.346C576.527 279.616 572.955 279.778 571.904 279.832C570.852 279.885 569.396 280.169 570.327 277.068C571.53 273.566 572.925 270.132 574.505 266.783C575.678 264.208 576.406 262.752 576.406 262.752Z" fill="#2A9D8F"/>
<path d="M515.665 358.123C514.317 357.449 513.548 359.094 512.376 360.415C511.368 361.386 510.582 362.563 510.071 363.866C509.787 365.416 511.203 367.91 512.767 369.258C514.33 370.606 516.137 371.59 516.703 374.555C516.849 375.916 517.377 377.208 518.226 378.282C519.075 379.355 520.211 380.166 521.502 380.621C524.872 382.077 529.387 381.605 530.938 380.621C532.744 379.449 531.086 378.155 528.552 374.515C525.236 369.77 522.647 366.427 522.647 361.938L515.665 358.123Z" fill="black"/>
<path d="M518.319 354.228L515.623 358.272C515.042 359.098 514.811 360.121 514.983 361.117C515.155 362.113 515.715 362.999 516.54 363.583L516.621 363.65C517.45 364.142 518.425 364.33 519.378 364.179C520.33 364.029 521.2 363.551 521.838 362.828L526.097 358.191L518.319 354.228Z" fill="#FFA8A7"/>
<path d="M568.385 276.259C568.56 281.355 567.117 301.939 563.599 311.038C560.081 320.137 558.045 325.798 556.94 327.699C555.835 329.6 523.941 360.631 523.941 360.631C523.941 360.631 518.549 360.24 517.673 354.996C517.673 354.996 530.735 332.781 533.566 328.225C536.397 323.668 546.426 316.686 546.426 316.686L545.509 276.839L568.385 276.259Z" fill="black"/>
<path d="M521.137 271.299C521.137 270.422 523.833 260.353 525.181 255.702L535.062 259.099L532.743 266.432L524.049 275.423C523.127 275.24 522.312 274.71 521.77 273.942C521.228 273.174 521.001 272.228 521.137 271.299Z" fill="#FFA8A7"/>
<path d="M561.358 384.701L568.102 383.168L565.869 373.349L559.126 374.882L561.358 384.701Z" fill="#FFA8A7"/>
<path d="M568.384 276.259H536.032C535.326 280.983 534.92 285.746 534.819 290.521C534.563 304.54 547.612 330.004 547.612 330.004C546.986 335.67 547.268 341.399 548.447 346.975C551.305 358.137 559.097 377.049 559.097 377.049C559.097 377.049 563.99 377.737 566.403 374.919C566.403 374.919 562.089 336.542 560.93 326.715C559.676 316.066 556.441 296.641 556.441 296.641C558.576 294.513 560.512 292.194 562.224 289.712C565.225 285.717 567.322 281.118 568.371 276.232" fill="black"/>
<path d="M546.453 230.508C540.252 232.005 531.8 233.946 529.361 240.659C526.921 247.372 523.402 259.275 523.402 259.275C524.75 261.634 532.232 263.588 534.833 262.227L536.047 258.183V276.219C540.899 281.503 557.803 283.957 568.399 276.219V242.519C568.399 237.127 565.406 230.657 557.143 230.185L546.453 230.508Z" fill="#EBEBEB"/>
<path d="M536.046 258.223L539.16 248.423L536.046 262.604V258.223Z" fill="#E0E0E0"/>
<path d="M544.122 202.969C543.565 202.907 543.002 202.972 542.475 203.158C541.947 203.345 541.469 203.649 541.075 204.047C539.727 205.395 540.037 207.862 541.075 213.564L545.119 214.022L544.122 202.969Z" fill="black"/>
<path d="M567.724 201.324C568.574 201.333 569.417 201.172 570.205 200.852C571.445 200.138 571.768 201.553 571.081 202.78C570.632 203.659 569.965 204.408 569.143 204.955C568.322 205.503 567.374 205.831 566.39 205.907C566.39 205.732 565.23 202.739 565.23 202.739L567.724 201.324Z" fill="black"/>
<path d="M546.021 214.022C545.428 214.386 544.565 213.227 543.824 212.459C543.534 212.124 543.163 211.868 542.746 211.717C542.33 211.565 541.882 211.523 541.445 211.593C541.007 211.663 540.595 211.844 540.247 212.118C539.899 212.392 539.627 212.751 539.456 213.159C538.229 215.748 541.02 219.199 542.664 220.331C543.12 220.73 543.691 220.973 544.294 221.026C544.897 221.08 545.502 220.94 546.021 220.627L546.452 230.535C547.179 232.122 548.286 233.505 549.676 234.561C551.066 235.617 552.695 236.313 554.419 236.588C560.242 237.37 559.042 232.544 557.115 230.225V226.626C558.572 226.934 560.069 227.007 561.55 226.842C562.305 226.639 564.111 224.456 565.284 222.002C567.771 217.09 568.324 211.423 566.834 206.123C564.744 197.253 555.214 196.983 549.539 200.556C543.864 204.128 546.021 214.022 546.021 214.022Z" fill="#FFA8A7"/>
<path d="M546.021 215.033C545.725 215.033 544.579 213.132 543.824 212.458C542.786 211.515 544.121 203.022 544.121 203.022C543.834 202.11 543.777 201.14 543.953 200.2C544.129 199.26 544.534 198.378 545.132 197.63C547.18 195.474 551.144 195.838 554.042 195.743C557.608 195.757 561.139 195.046 564.421 193.654C568.546 191.861 568.856 191.659 569.355 193.465C569.754 194.958 569.803 196.522 569.499 198.037C569.195 199.552 568.546 200.977 567.603 202.2L566.255 204.384C566.255 204.384 565.001 205.435 561.159 205.907C557.317 206.379 550.766 204.303 549.944 204.195C548.825 204.047 548.596 205.125 547.989 208.077C547.477 210.625 547.046 215.02 546.021 215.033Z" fill="black"/>
<path d="M544.135 203.643L540.495 201.688C540.611 201.45 540.774 201.238 540.972 201.063C541.171 200.888 541.402 200.754 541.653 200.669C541.903 200.584 542.168 200.549 542.432 200.567C542.696 200.584 542.954 200.654 543.191 200.771C543.691 201.033 544.069 201.48 544.245 202.016C544.421 202.552 544.382 203.135 544.135 203.643Z" fill="black"/>
<path d="M557.116 226.626C554.636 226.15 552.204 225.451 549.851 224.537C548.748 223.954 547.843 223.058 547.249 221.962C547.534 223.063 548.038 224.094 548.732 224.995C550.08 226.761 557.116 228.055 557.116 228.055V226.626Z" fill="#F28F8F"/>
<path d="M557.291 213.834C557.295 214.124 557.183 214.405 556.982 214.614C556.78 214.824 556.503 214.945 556.213 214.952C556.067 214.949 555.924 214.917 555.792 214.858C555.659 214.799 555.539 214.715 555.439 214.61C555.339 214.505 555.26 214.381 555.208 214.245C555.156 214.11 555.131 213.965 555.134 213.82C555.13 213.529 555.242 213.249 555.444 213.039C555.645 212.83 555.922 212.708 556.213 212.701C556.358 212.705 556.501 212.737 556.634 212.796C556.766 212.854 556.886 212.939 556.986 213.044C557.087 213.149 557.165 213.273 557.217 213.408C557.27 213.544 557.295 213.688 557.291 213.834Z" fill="black"/>
<path d="M556.144 209.749L553.839 211.097C553.751 210.941 553.696 210.769 553.676 210.591C553.655 210.413 553.671 210.232 553.721 210.061C553.771 209.889 553.855 209.728 553.968 209.589C554.081 209.45 554.22 209.335 554.378 209.25C554.681 209.095 555.031 209.06 555.359 209.153C555.687 209.245 555.967 209.458 556.144 209.749Z" fill="black"/>
<path d="M556.629 221.072L559.096 222.002C558.974 222.325 558.733 222.59 558.422 222.74C558.111 222.891 557.754 222.916 557.424 222.811C557.258 222.749 557.105 222.656 556.974 222.535C556.844 222.414 556.739 222.268 556.665 222.107C556.591 221.945 556.55 221.771 556.544 221.593C556.538 221.415 556.567 221.238 556.629 221.072Z" fill="#F28F8F"/>
<path d="M566.915 210.652L564.812 209.034C565.024 208.761 565.332 208.58 565.673 208.527C566.014 208.475 566.362 208.555 566.646 208.751C566.789 208.858 566.91 208.991 567.002 209.145C567.093 209.298 567.153 209.468 567.178 209.645C567.203 209.822 567.193 210.002 567.148 210.175C567.103 210.348 567.024 210.51 566.915 210.652Z" fill="black"/>
<path d="M566.269 213.523C566.273 213.814 566.162 214.095 565.96 214.304C565.758 214.514 565.482 214.635 565.191 214.642C565.046 214.639 564.903 214.607 564.77 214.548C564.637 214.489 564.517 214.405 564.417 214.3C564.317 214.194 564.239 214.071 564.186 213.935C564.134 213.8 564.109 213.655 564.113 213.51C564.109 213.219 564.22 212.939 564.422 212.729C564.624 212.52 564.9 212.398 565.191 212.391C565.483 212.402 565.759 212.526 565.961 212.738C566.162 212.949 566.273 213.231 566.269 213.523Z" fill="black"/>
<path d="M561.187 213.389L560.176 219.805L563.721 219.387L561.187 213.389Z" fill="#F28F8F"/>
<path d="M567.333 379.894L567.118 378.923C567.819 379.058 570.852 384.086 573.858 386.27C577.147 388.656 579.991 390.071 581.46 391.149C583.428 392.592 580.584 395.544 575.745 395.814C573.345 395.935 569.005 395.207 567.657 393.926C566.309 392.646 565.338 390.529 564.26 389.613C563.181 388.696 561.038 387.887 560.297 386.714C559.9 385.55 559.758 384.313 559.879 383.088C559.879 381.821 559.973 380.392 560.405 380.46L560.566 381.188C561.816 381.826 563.208 382.136 564.61 382.091C565.783 382.037 567.899 381.781 567.333 379.894Z" fill="black"/>
<path d="M560.094 320.191C560.094 320.191 557.222 299.795 556.454 296.641C558.761 295.381 560.906 293.847 562.844 292.071C561.507 293.983 560.048 295.807 558.476 297.531L560.094 320.191Z" fill="black"/>
<path d="M542.773 319.476C542.773 319.476 546.224 328.063 547.626 329.963C547.626 329.963 547.276 336.515 547.316 337.836L545.51 339.413C545.463 336.449 545.734 333.489 546.319 330.584C544.734 327.022 543.545 323.297 542.773 319.476Z" fill="black"/>
<path d="M532.783 266.432C532.783 266.432 559.972 269.344 563.167 268.36C566.362 267.376 570.649 264.208 572.9 262.86C575.151 261.512 576.863 261.431 576.863 261.984C576.863 262.537 574.895 265.543 574.45 266.796C574.005 268.05 576.566 268.05 579.95 267.268C583.333 266.486 584.681 264.572 585.557 265.678C586.434 266.783 583.684 272.418 578.076 274.534C572.468 276.65 568.303 275.235 563.666 275.437C559.029 275.639 530.465 277.459 524.035 275.437C523.865 274.407 523.982 273.349 524.375 272.381C524.767 271.413 525.419 270.572 526.259 269.951C528.202 268.391 530.413 267.199 532.783 266.432Z" fill="#FFA8A7"/>
<path d="M382.051 396.312C382.118 395.436 383.776 386 384.909 380.716L396.003 384.113L394.223 391.513L385.003 400.437C384.074 400.262 383.249 399.736 382.699 398.967C382.149 398.199 381.917 397.248 382.051 396.312Z" fill="#FFA8A7"/>
<path d="M406.369 316.43H411.761C415.741 316.43 419.557 318.01 422.37 320.824C425.184 323.638 426.765 327.454 426.765 331.433V369.662H391.366V331.433C391.366 327.454 392.947 323.638 395.761 320.824C398.574 318.01 402.39 316.43 406.369 316.43Z" fill="black"/>
<path d="M435.713 376.483L440.957 386.094L432.788 393.077L425.32 381.228L435.713 376.483Z" fill="#F28F8F"/>
<path d="M416.033 355.05C421.236 355.05 426.966 356.991 428.934 361.075L437.022 377.845C437.022 377.845 432.425 384.585 425.132 384.113L416.033 355.05Z" fill="black"/>
<path d="M420.239 521.353C422.03 523.748 424.043 525.968 426.251 527.985C426.606 528.27 426.888 528.635 427.074 529.05C427.303 529.751 427.599 531.436 424.486 532.123C422.907 532.469 421.273 532.471 419.693 532.129C418.114 531.788 416.627 531.11 415.333 530.142C413.055 528.308 413.324 525.087 411.221 522.97C409.658 521.42 407.541 520.813 406.368 518.926C405.546 517.578 405.991 515.974 406.732 513.993C407.474 512.011 408 510.205 408.714 510.461L408.471 511.458C409.213 513.036 413.863 514.033 416.141 513.278C417.367 516.038 418.735 518.734 420.239 521.353Z" fill="black"/>
<path d="M422.072 523.671C421.438 522.93 420.818 522.175 420.239 521.353C419.046 519.368 417.979 517.31 417.044 515.192C416.436 513.93 416.33 512.485 416.747 511.148L418.284 505.958L410.196 504.098L408.444 511.364C408.066 513.022 409.266 514.666 411.463 517.066C413.661 519.465 416.195 524.75 418.203 526.246C420.212 527.742 421.856 527.89 422.881 527.378C423.905 526.866 424.161 526.394 422.072 523.671Z" fill="#FFA8A7"/>
<path d="M398.482 525.922V524.776C398.941 526.124 401.016 531.867 404.171 534.752C406.691 537.03 410.115 539.685 410.978 542.233C411.841 544.781 406.22 545.778 403.874 545.36C400.744 544.836 397.874 543.296 395.705 540.979C394.357 539.321 393.495 537.353 392.524 536.046C391.554 534.738 389.343 533.35 388.831 531.786C388.668 530.377 388.82 528.95 389.275 527.607C389.653 526.259 390.044 524.655 390.529 524.776V525.72C391.683 526.619 393.11 527.095 394.573 527.068C395.678 527.068 398.496 526.812 398.482 525.922Z" fill="black"/>
<path d="M406.45 536.76L404.172 534.738C402.059 532.5 400.41 529.865 399.319 526.987C398.767 525.658 398.483 524.234 398.483 522.795V518.252H390.53V525.639V525.841C390.908 527.499 394.574 531.894 396.637 534.765C398.328 537.233 400.907 538.952 403.835 539.564C406.868 539.968 408.445 539.025 406.45 536.76Z" fill="#FFA8A7"/>
<path d="M392.107 402.23C385.947 415.71 392.336 463.173 392.336 463.173C392.148 465.37 389.641 469.67 388.724 479.349C387.619 490.726 390.449 519.277 390.449 519.277C391.667 519.991 393.042 520.395 394.453 520.451C395.864 520.508 397.266 520.215 398.537 519.6C398.537 519.6 406.127 476.586 407.555 465.276L412.112 428.988L418.852 464.4C417.048 467.175 415.556 470.14 414.403 473.242C412.799 478.244 409.55 506.74 409.55 506.74C410.647 507.742 411.957 508.481 413.382 508.899C414.808 509.317 416.309 509.404 417.773 509.153C417.773 509.153 433.343 470.061 434.044 462.081C434.461 457.296 427.479 400.316 427.479 400.316L392.107 402.23Z" fill="black"/>
<path d="M412.058 428.934L413.136 421.142C413.136 421.142 421.615 419.39 425.457 415.75C422.804 418.86 419.335 421.166 415.441 422.409L414.309 429.931L415.657 447.361L412.058 428.934Z" fill="black"/>
<path d="M403.052 355.414C400.782 355.966 398.665 357.02 396.857 358.5C395.049 359.979 393.596 361.845 392.605 363.96C391.15 367.177 391.014 370.836 392.228 374.151L397.66 390.098C397.66 390.098 395.085 396.339 392.079 402.23C405.923 409.954 423.191 405.896 427.357 400.262C427.532 399.062 427.289 393.67 427.626 387.55C427.977 381.012 428.88 373.625 427.855 369.595C425.941 362.086 422.369 355.05 415.265 355.05L403.052 355.414Z" fill="black"/>
<path d="M400.937 355.414C396.219 356.074 389.291 357.031 386.891 368.247C384.492 379.462 383.777 383.574 383.777 383.574C385.316 385.083 387.149 386.26 389.162 387.03C391.175 387.8 393.325 388.147 395.478 388.049L397.918 379.422L400.937 355.414Z" fill="black"/>
<path d="M403.62 364.877C402.805 364.877 401.999 364.716 401.247 364.405C400.495 364.093 399.811 363.636 399.235 363.061C398.659 362.485 398.203 361.801 397.891 361.049C397.579 360.297 397.419 359.49 397.419 358.676V340.626H403.62V364.877Z" fill="black"/>
<path d="M420.953 323.587C422.827 324.693 425.132 329.397 424.903 339.251C424.714 347.609 422.005 349.685 420.643 350.278C419.282 350.871 416.667 350.507 414.119 350.076V355.09C414.119 355.09 417.637 359.134 417.422 361.493C417.206 363.852 412.326 364.337 409.024 362.086C406.896 360.543 405.069 358.625 403.632 356.425V344.293C403.363 344.621 403.032 344.894 402.658 345.093C402.283 345.293 401.873 345.417 401.45 345.457C401.028 345.497 400.602 345.453 400.196 345.327C399.791 345.201 399.414 344.996 399.089 344.724C396.272 342.85 396.164 338.227 397.808 336.636C399.453 335.045 402.971 335.504 403.632 337.795C406.963 337.649 410.206 336.676 413.068 334.965C415.189 333.828 417.011 332.204 418.382 330.226C419.753 328.248 420.634 325.973 420.953 323.587Z" fill="#FFA8A7"/>
<path d="M415.575 337.162C415.578 337.368 415.52 337.57 415.408 337.744C415.296 337.917 415.136 338.054 414.947 338.136C414.758 338.219 414.55 338.245 414.346 338.21C414.143 338.175 413.955 338.082 413.804 337.94C413.654 337.799 413.549 337.617 413.501 337.416C413.453 337.216 413.466 337.006 413.537 336.812C413.608 336.619 413.734 336.45 413.9 336.328C414.066 336.205 414.264 336.135 414.47 336.124C414.611 336.119 414.752 336.141 414.884 336.191C415.016 336.24 415.137 336.315 415.24 336.412C415.343 336.508 415.425 336.624 415.483 336.753C415.541 336.882 415.572 337.021 415.575 337.162Z" fill="black"/>
<path d="M415.859 344.239L418.299 345.021C418.256 345.185 418.179 345.339 418.075 345.473C417.971 345.607 417.84 345.718 417.691 345.8C417.542 345.882 417.379 345.933 417.21 345.949C417.041 345.966 416.87 345.948 416.708 345.897C416.38 345.783 416.109 345.547 415.951 345.238C415.793 344.929 415.76 344.571 415.859 344.239Z" fill="#F28F8F"/>
<path d="M424.189 333.926L422.072 332.457C422.161 332.314 422.278 332.19 422.417 332.093C422.555 331.996 422.711 331.929 422.877 331.895C423.042 331.861 423.213 331.861 423.378 331.895C423.543 331.929 423.7 331.996 423.838 332.093C424.122 332.294 424.317 332.598 424.382 332.939C424.447 333.281 424.378 333.635 424.189 333.926Z" fill="black"/>
<path d="M423.705 336.393C423.723 336.677 423.629 336.957 423.442 337.172C423.255 337.386 422.991 337.518 422.707 337.539C422.425 337.543 422.151 337.437 421.945 337.243C421.739 337.05 421.616 336.784 421.602 336.501C421.595 336.363 421.615 336.225 421.661 336.095C421.708 335.964 421.779 335.844 421.872 335.742C421.964 335.639 422.076 335.556 422.201 335.496C422.326 335.437 422.461 335.403 422.6 335.396C422.738 335.389 422.876 335.409 423.006 335.455C423.136 335.501 423.256 335.573 423.359 335.666C423.461 335.758 423.545 335.87 423.604 335.995C423.664 336.12 423.698 336.255 423.705 336.393Z" fill="black"/>
<path d="M418.744 335.801L418.919 342.123L422.249 341.085L418.744 335.801Z" fill="#F28F8F"/>
<path d="M414.12 350.076C411.424 349.725 405.897 348.135 405.034 345.951C405.378 347.059 406.056 348.034 406.975 348.741C408.62 350.157 414.12 351.761 414.12 351.761V350.076Z" fill="#F28F8F"/>
<path d="M435.296 387.577C436.82 384.746 437.197 384.625 438.114 384.005C439.03 383.385 444.571 382.549 446.876 382.347C449.572 382.118 450.556 382.616 449.801 384.962C447.699 390.838 445.139 396.539 442.144 402.014C441.416 402.985 441.268 403.874 438.222 404.171C435.175 404.468 431.792 404.602 430.74 404.67C429.689 404.737 428.233 404.993 429.177 401.893C430.378 398.392 431.769 394.958 433.342 391.608C434.569 389.06 435.296 387.577 435.296 387.577Z" fill="#2A9D8F"/>
<path d="M394.223 391.567C394.223 391.567 418.878 394.169 422.072 393.185C425.267 392.201 429.554 389.006 431.859 387.685C434.164 386.364 435.822 386.256 435.822 386.795C435.822 387.335 433.854 390.368 433.396 391.608C432.937 392.848 435.525 392.861 438.895 392.079C442.265 391.298 443.627 389.383 444.517 390.489C445.406 391.594 442.643 397.229 437.035 399.345C431.428 401.462 427.262 400.06 422.625 400.248C417.988 400.437 391.432 402.513 385.002 400.491C384.832 399.46 384.95 398.403 385.343 397.435C385.735 396.467 386.387 395.626 387.227 395.005C389.306 393.403 391.685 392.234 394.223 391.567Z" fill="#FFA8A7"/>
<path d="M396.004 385.231C397.062 382.367 397.962 379.446 398.7 376.483C398.7 376.483 398.255 382.994 396.422 386.485L396.004 385.231Z" fill="black"/>
<path d="M196.511 305.066L192.13 314.529L200.285 321.511L207.335 309.609L196.511 305.066Z" fill="#F28F8F"/>
<path d="M216.623 283.417C211.42 283.417 205.691 285.372 203.723 289.443C201.755 293.514 195.635 306.225 195.635 306.225C195.635 306.225 200.231 312.965 207.524 312.48L216.623 283.417Z" fill="black"/>
<path d="M239.19 433.571H231.991V444.044H239.19V433.571Z" fill="#FFA8A7"/>
<path d="M213.881 420.611L206.687 420.859L207.047 431.326L214.241 431.079L213.881 420.611Z" fill="#FFA8A7"/>
<path d="M238.702 331.311C238.702 338.186 239.592 382.616 239.592 382.616C239.767 384.584 241.614 388.237 241.209 395.827C240.67 406.139 239.78 434.784 239.78 434.784C239.78 434.784 236.41 438.127 231.692 434.784C231.692 434.784 225.168 395.854 223.887 385.636C222.755 376.726 220.854 352.502 220.854 352.502L214.182 381.012C214.182 381.012 215.355 387.752 215.624 392.443C215.894 397.134 214.397 424.512 214.397 424.512C213.231 425.24 211.895 425.65 210.521 425.702C209.147 425.754 207.784 425.446 206.566 424.809C206.566 424.809 200.796 384.881 200.055 380.608C199.313 376.335 205.11 331.311 205.11 331.311H238.702Z" fill="black"/>
<path d="M227.878 283.741H227.986C231.074 284.517 233.814 286.304 235.768 288.818C237.722 291.332 238.779 294.427 238.77 297.611V331.311C233.729 336.798 216.151 339.399 205.07 331.311V296.263C205.07 290.669 208.184 283.929 216.771 283.43L227.878 283.741Z" fill="black"/>
<path d="M230.305 255.068C230.883 255.004 231.468 255.071 232.017 255.265C232.565 255.458 233.063 255.774 233.472 256.187C234.82 257.535 234.551 260.164 233.472 266.082L229.267 266.567L230.305 255.068Z" fill="black"/>
<path d="M205.759 253.424C204.856 253.426 203.962 253.248 203.13 252.898C201.782 252.157 201.499 253.626 202.2 254.893C202.67 255.808 203.366 256.587 204.223 257.156C205.08 257.724 206.068 258.064 207.093 258.142C207.093 257.967 208.293 254.866 208.293 254.866L205.759 253.424Z" fill="black"/>
<path d="M228.324 266.567C228.958 266.945 229.847 265.745 230.616 264.936C230.917 264.585 231.303 264.318 231.737 264.16C232.171 264.001 232.639 263.957 233.095 264.032C233.551 264.106 233.98 264.297 234.342 264.585C234.703 264.873 234.984 265.249 235.158 265.677C236.506 268.373 233.527 271.959 231.829 273.132C231.352 273.547 230.756 273.801 230.127 273.856C229.497 273.912 228.866 273.767 228.324 273.442L227.879 283.741C227.125 285.393 225.972 286.832 224.526 287.931C223.079 289.029 221.383 289.753 219.589 290.036C213.536 290.858 214.79 285.87 216.772 283.417V279.67C215.262 279.997 213.71 280.079 212.175 279.912C211.38 279.697 209.479 277.418 208.279 274.871C206.931 272.013 204.653 266.945 206.675 258.358C208.845 249.124 218.807 248.841 224.657 252.561C230.508 256.282 228.324 266.567 228.324 266.567Z" fill="#FFA8A7"/>
<path d="M228.324 267.618C228.648 267.618 229.834 265.65 230.616 264.922C231.694 263.938 230.306 255.055 230.306 255.055C230.306 255.055 231.397 251.699 229.268 249.461C227.138 247.223 222.999 247.601 219.98 247.493C216.275 247.515 212.604 246.777 209.196 245.322C204.909 243.462 204.586 243.247 204.06 245.12C203.644 246.673 203.592 248.3 203.908 249.876C204.223 251.452 204.898 252.933 205.88 254.206L208.01 254.988C208.01 254.988 209.155 256.012 213.159 256.497C216.851 256.771 220.56 256.703 224.24 256.295C225.399 256.133 225.588 257.252 226.275 260.339C226.814 263.035 227.273 267.605 228.324 267.618Z" fill="black"/>
<path d="M230.292 255.77L234.079 253.734C233.959 253.479 233.789 253.252 233.578 253.065C233.367 252.879 233.12 252.737 232.853 252.649C232.586 252.561 232.303 252.528 232.023 252.552C231.742 252.576 231.47 252.657 231.222 252.79C230.714 253.073 230.335 253.54 230.162 254.094C229.988 254.649 230.035 255.248 230.292 255.77Z" fill="black"/>
<path d="M216.784 279.669C219.367 279.184 221.899 278.458 224.346 277.499C225.498 276.895 226.438 275.955 227.042 274.803C226.748 275.947 226.225 277.02 225.506 277.957C224.077 279.791 216.771 281.139 216.771 281.139L216.784 279.669Z" fill="#F28F8F"/>
<path d="M218.133 265.165C218.138 265.388 218.209 265.605 218.338 265.788C218.466 265.971 218.645 266.112 218.853 266.193C219.062 266.274 219.289 266.292 219.507 266.244C219.725 266.196 219.925 266.085 220.08 265.924C220.235 265.763 220.339 265.56 220.379 265.341C220.419 265.121 220.393 264.894 220.305 264.689C220.216 264.484 220.069 264.31 219.882 264.188C219.694 264.067 219.475 264.003 219.252 264.006C218.95 264.013 218.664 264.138 218.454 264.355C218.245 264.572 218.129 264.863 218.133 265.165Z" fill="black"/>
<path d="M219.32 260.932L221.733 262.28C221.901 261.949 221.935 261.567 221.83 261.211C221.725 260.855 221.488 260.553 221.167 260.366C221.009 260.28 220.836 260.226 220.656 260.207C220.477 260.189 220.296 260.207 220.124 260.259C219.952 260.312 219.792 260.399 219.654 260.514C219.516 260.63 219.403 260.772 219.32 260.932Z" fill="black"/>
<path d="M218.213 272.781L215.651 273.752C215.707 273.923 215.797 274.082 215.916 274.218C216.034 274.354 216.179 274.465 216.341 274.544C216.503 274.623 216.68 274.669 216.86 274.679C217.04 274.689 217.221 274.662 217.39 274.601C217.738 274.465 218.018 274.199 218.172 273.859C218.326 273.518 218.34 273.132 218.213 272.781Z" fill="#F28F8F"/>
<path d="M208.116 261.862L210.286 260.164C210.182 260.016 210.049 259.891 209.895 259.796C209.742 259.701 209.57 259.638 209.392 259.61C209.213 259.582 209.031 259.591 208.856 259.635C208.681 259.679 208.516 259.758 208.372 259.867C208.081 260.103 207.892 260.442 207.844 260.814C207.796 261.185 207.894 261.561 208.116 261.862Z" fill="black"/>
<path d="M208.79 264.855C208.786 265.157 208.902 265.447 209.111 265.664C209.321 265.881 209.607 266.007 209.909 266.014C210.214 266.007 210.504 265.88 210.716 265.66C210.928 265.441 211.045 265.147 211.041 264.841C211.058 264.683 211.042 264.523 210.994 264.372C210.945 264.22 210.865 264.081 210.759 263.962C210.652 263.844 210.522 263.749 210.377 263.684C210.232 263.619 210.075 263.586 209.916 263.586C209.756 263.586 209.599 263.619 209.454 263.684C209.309 263.749 209.179 263.844 209.072 263.962C208.966 264.081 208.886 264.22 208.837 264.372C208.789 264.523 208.773 264.683 208.79 264.841V264.855Z" fill="black"/>
<path d="M214.521 263.79L214.143 270.544L210.625 269.344L214.521 263.79Z" fill="#F28F8F"/>
<path d="M231.989 440.486V439.448C231.301 439.744 229.697 445.851 226.853 448.453C224.575 450.515 221.461 452.914 220.693 455.193C219.924 457.471 225.006 458.913 227.123 458.536C229.589 458.104 233.863 456.365 234.927 454.761C235.992 453.157 236.505 450.785 237.367 449.598C238.23 448.412 240.252 447.105 240.724 445.743C240.863 444.47 240.72 443.181 240.306 441.969C239.969 440.702 239.619 439.273 239.187 439.421C239.187 439.569 239.187 440.203 239.187 440.203C238.163 441.011 236.892 441.439 235.588 441.416C234.55 441.497 231.975 441.295 231.989 440.486Z" fill="black"/>
<path d="M206.984 429.095C206.606 429.095 206.296 429.634 205.474 430.524C204.247 431.773 202.815 432.803 201.241 433.571C198.545 434.919 193.315 436.995 190.943 438.06C189.473 438.734 189.595 440.513 191.064 441.537C192.533 442.562 196.294 443.29 200.729 442.292C203.142 441.753 206.296 439.529 208.278 439.596C210.259 439.664 213.993 439.691 215.463 438.68C216.932 437.669 216.352 435.498 215.935 433.638C215.517 431.778 214.829 428.516 214.155 428.65V429.284C213.292 430.632 208.884 431.131 206.984 430.174V429.095Z" fill="black"/>
<path d="M197.36 315.958C195.837 313.113 195.459 312.992 194.543 312.372C193.626 311.752 188.086 310.916 185.781 310.727C183.085 310.498 182.101 310.997 182.855 313.329C184.943 319.206 187.485 324.912 190.458 330.395C191.186 331.352 191.334 332.241 194.381 332.538C197.427 332.835 200.811 332.969 201.862 333.037C202.914 333.104 204.369 333.36 203.426 330.26C202.222 326.76 200.831 323.326 199.261 319.975C198.155 317.427 197.36 315.958 197.36 315.958Z" fill="#2A9D8F"/>
<path d="M252.615 324.504C252.548 323.614 249.919 313.558 248.571 308.907L238.704 312.304L241.023 319.624L249.704 328.615C250.624 328.435 251.44 327.907 251.982 327.142C252.524 326.376 252.751 325.432 252.615 324.504Z" fill="#FFA8A7"/>
<path d="M240.982 319.624C240.982 319.624 213.78 322.536 210.585 321.552C207.39 320.568 203.103 317.373 200.798 316.052C198.493 314.731 196.835 314.623 196.835 315.176C196.835 315.728 198.803 318.735 199.262 319.975C199.72 321.215 197.132 321.228 193.762 320.446C190.392 319.665 189.03 317.75 188.141 318.856C187.251 319.961 190.014 325.596 195.622 327.712C201.23 329.829 205.395 328.427 210.032 328.615C214.669 328.804 243.233 330.637 249.663 328.615C249.834 327.587 249.716 326.531 249.324 325.565C248.931 324.599 248.279 323.76 247.439 323.142C245.514 321.594 243.327 320.403 240.982 319.624Z" fill="#FFA8A7"/>
<path d="M230.157 284.509C234.43 285.924 242.909 286.639 245.646 295.886C248.382 305.133 249.757 311.132 249.757 311.132C248.14 313.289 241.669 315.782 238.704 314.852L230.157 284.509Z" fill="black"/>
<path d="M238.703 314.852L235.778 304.473L238.703 319.085V314.852Z" fill="black"/>
<path d="M177.343 336.663C177.208 336.838 176.062 338.739 176.062 338.739L170.792 346.288L165.656 353.985C165.494 354.219 165.262 354.397 164.993 354.491C164.724 354.586 164.433 354.592 164.16 354.511L163.809 354.389C162.03 353.729 159.361 352.61 155.816 350.979C152.971 349.631 153.12 349.24 153.12 348.755C153.083 348.369 153.083 347.981 153.12 347.595C153.699 346.49 155.492 343.727 157.905 340.235C162.192 334.008 164.254 331.244 165.535 329.451C165.717 329.19 165.987 329.001 166.296 328.92C166.604 328.839 166.932 328.869 167.22 329.006C169.525 329.775 174.202 331.783 176.656 332.781H176.763C178.084 333.495 177.357 336.609 177.343 336.663Z" fill="#2A9D8F"/>
<path d="M177.479 336.42L176.131 338.739L170.982 346.436L165.59 353.944C165.428 354.179 165.196 354.356 164.927 354.45C164.658 354.545 164.366 354.552 164.093 354.47L163.743 354.349C161.963 353.688 159.294 352.569 155.749 350.938C152.905 349.59 153.053 349.199 153.053 348.714C153.016 348.328 153.016 347.94 153.053 347.555C155.749 348.741 164.282 352.785 164.565 352.637C165.239 352.313 171.022 343.039 174.095 338.307C175.632 335.948 176.32 334.951 176.791 334.142C176.878 334.046 176.943 333.931 176.98 333.807C177.018 333.683 177.029 333.553 177.011 333.424C176.993 333.296 176.947 333.173 176.876 333.064C176.806 332.955 176.713 332.863 176.603 332.794H176.495C176.798 332.954 177.059 333.182 177.258 333.46C177.457 333.739 177.588 334.06 177.641 334.398C177.788 334.721 177.85 335.076 177.822 335.43C177.793 335.784 177.675 336.125 177.479 336.42Z" fill="#2A9D8F"/>
<path opacity="0.1" d="M177.479 336.42L176.131 338.739L170.982 346.436L165.59 353.944C165.428 354.179 165.196 354.356 164.927 354.45C164.658 354.545 164.366 354.552 164.093 354.47L163.743 354.349C161.963 353.688 159.294 352.569 155.749 350.938C152.905 349.59 153.053 349.199 153.053 348.714C153.016 348.328 153.016 347.94 153.053 347.555C155.749 348.741 164.282 352.785 164.565 352.637C165.239 352.313 171.022 343.039 174.095 338.307C175.632 335.948 176.32 334.951 176.791 334.142C176.878 334.046 176.943 333.931 176.98 333.807C177.018 333.683 177.029 333.553 177.011 333.424C176.993 333.296 176.947 333.173 176.876 333.064C176.806 332.955 176.713 332.863 176.603 332.794H176.495C176.798 332.954 177.059 333.182 177.258 333.46C177.457 333.739 177.588 334.06 177.641 334.398C177.788 334.721 177.85 335.076 177.822 335.43C177.793 335.784 177.675 336.125 177.479 336.42Z" fill="black"/>
<path d="M165.602 331.217L175.065 335.18L164.982 350.17L155.573 345.843L165.602 331.217Z" fill="#FAFAFA"/>
<path d="M162.946 383.452C165.534 382.711 169.443 373.086 172.382 362.167C175.32 351.248 176.87 348.835 176.965 345.398C177.059 341.961 176.816 337.445 176.816 337.445L171.694 344.926C171.472 343.483 171.017 342.085 170.346 340.788C169.686 339.44 168.445 338.375 167.434 339.184C166.895 339.615 168.324 341.462 168.014 345.587C167.989 347.231 168.152 348.873 168.499 350.48L158.982 373.531L162.946 383.452Z" fill="#FFA8A7"/>
<path d="M124.65 335.652C121.644 334.803 119.096 336.407 117.681 341.192C115.2 350.202 113.398 359.385 112.289 368.665C111.885 371.994 111.426 376.038 114.608 376.348C117.034 376.591 124.044 375.243 125.27 374.03C126.915 372.439 126.618 366.023 126.618 366.023H122.979C122.979 366.023 123.761 360.968 123.99 359.431C124.799 354.268 125.998 347.757 125.998 347.757L124.65 335.652Z" fill="#F28F8F"/>
<path d="M142.296 330.92L141.069 341.718L130.42 342.958L131.957 328.629L142.296 330.92Z" fill="#FFA8A7"/>
<path d="M119.5 315.162C120.376 305.187 125.782 301.089 129.96 300.092C138.399 298.11 146.73 300.941 150.181 306.832C150.97 308.676 151.378 310.662 151.378 312.669C151.378 314.675 150.97 316.661 150.181 318.505C148.347 322.684 119.54 315.135 119.54 315.135" fill="black"/>
<path d="M150.706 320.527C150.706 320.527 152.23 324.639 151.825 324.949C151.19 325.178 150.519 325.297 149.844 325.299L150.706 320.527Z" fill="#FFA8A7"/>
<path d="M146.164 307.533C148.172 309.258 151.556 312.385 150.652 321.013C149.655 329.936 147.498 332.349 146.042 333.212C145.072 333.792 140.772 332.781 138.777 331.608C136.296 330.138 130.796 326.351 129.125 321.242C127.143 315.23 128.141 308.058 132.481 306.185C134.69 305.234 137.104 304.86 139.496 305.095C141.889 305.331 144.183 306.17 146.164 307.533Z" fill="#FFA8A7"/>
<path d="M148.646 307.762C148.689 310.147 148.194 312.512 147.197 314.68C146.201 316.848 144.728 318.764 142.89 320.285C142.89 320.285 141.636 317.036 138.846 317.777C136.055 318.519 136.15 322.199 138.145 324.194C138.662 324.764 139.331 325.175 140.074 325.378C140.816 325.581 141.602 325.568 142.337 325.34C141.939 327.89 140.746 330.249 138.927 332.08C136.024 332.747 132.992 332.583 130.178 331.605C127.364 330.628 124.884 328.877 123.02 326.553C116.86 319.152 118.68 307.398 128.304 303.933C131.707 302.568 135.43 302.203 139.033 302.881C142.637 303.559 145.972 305.253 148.646 307.762Z" fill="black"/>
<path d="M129.14 493.368L133.737 499.757C131.643 500.705 129.362 501.166 127.064 501.105C122.953 501.267 121.82 499.919 121.672 499.596C120.971 498.099 122.063 495.417 122.36 493.112L129.14 493.368Z" fill="black"/>
<path d="M133.454 496.67C133.454 496.67 139.021 496.306 142.89 495.821C146.759 495.336 149.792 497.169 148.888 498.8C147.985 500.431 145.855 501.712 142.553 502.844C139.735 503.801 136.339 504.489 133.386 505.365C130.434 506.241 128.426 507.32 126.714 506.713C124.8 506.053 124.018 505.284 124.139 503.896C124.557 501.916 125.074 499.959 125.689 498.032L133.454 496.67Z" fill="black"/>
<path d="M121.672 486.925C121.672 486.925 122.359 492.721 122.413 493.975C122.467 495.228 128.075 495.619 129.153 493.341L129.329 486.251L121.672 486.925Z" fill="#F28F8F"/>
<path d="M127.32 490.497L125.366 499.299C125.366 499.299 125.163 500.364 129.76 501.051C134.357 501.739 141.528 498.652 142.755 498.032C143.981 497.412 144.103 496.158 139.614 496.401C135.125 496.643 133.521 496.67 133.521 496.67L134.99 492.761L127.32 490.497Z" fill="#FFA8A7"/>
<path d="M121.671 372.654C117.829 378.626 114.19 383.883 113.408 390.596C111.763 404.777 117.155 420.98 118.301 431.468C116.122 434.452 114.861 438.008 114.675 441.699C114.675 446.039 121.671 486.924 121.671 486.924C121.671 486.924 126.753 488.475 129.314 486.25L134.127 411.032L131.593 401.879L121.671 372.654Z" fill="black"/>
<path d="M134.127 411.032L131.593 401.879C126.823 400.639 122.22 398.828 117.884 396.487C117.884 396.487 120.485 401.205 127.913 403.793L131.782 415.561L132.119 442.521L134.127 411.032Z" fill="black"/>
<path d="M121.671 372.654C119.622 375.997 114.702 381.74 115.753 387.24C117.02 393.98 120.606 398.603 131.592 401.879L141.891 439.178C141.891 439.178 136.499 444.206 134.895 448.978C133.29 453.75 127.319 490.497 127.319 490.497C127.319 490.497 129.152 493.489 134.948 492.761C134.948 492.761 155.168 446.673 156.516 443.707C158.241 440.672 158.847 437.128 158.228 433.692C157.581 428.866 150.707 375.997 150.707 375.997L121.671 372.654Z" fill="black"/>
<path d="M119.798 338.995C120.211 337.895 120.989 336.971 122.003 336.377C123.017 335.783 124.204 335.556 125.365 335.733C132.55 337.687 143.725 340.262 145.841 340.882C145.841 340.882 144.884 354.726 153.161 359.606C152.77 362.693 150.667 375.998 150.667 375.998C150.667 375.998 140.719 380.823 132.536 378.451C124.354 376.078 121.604 372.655 121.604 372.655L125.648 365.982C124.772 363.812 121.388 356.438 119.205 349.59C118.447 346.069 118.652 342.409 119.798 338.995Z" fill="#FAFAFA"/>
<path d="M124.65 363.353C128.054 365.4 131.62 367.163 135.313 368.624C131.956 368.537 128.675 367.61 125.769 365.928L124.65 363.353Z" fill="#E0E0E0"/>
<path d="M152.986 358.568C150.046 357.22 147.627 354.948 146.098 352.097C146.346 354.287 147.096 356.39 148.291 358.242C149.486 360.094 151.093 361.645 152.986 362.774V358.568Z" fill="#E0E0E0"/>
<path d="M145.908 340.882C150.423 342.23 153.227 342.662 155.667 344.845C158.875 347.73 162.191 364.041 162.865 367.411C164.038 373.248 165.332 379.314 164.065 382.037C163.149 384.005 158.161 385.474 155.977 379.111C155.519 377.763 155.424 377.143 155.02 375.93C152.958 369.837 149.857 358.19 149.857 358.19C149.857 358.19 143.751 354.82 145.908 340.882Z" fill="#FFA8A7"/>
<path d="M124.017 303.934C122.412 304.864 119.514 305.767 117.708 314.192C116.237 321.26 115.363 328.438 115.093 335.652C115.16 338.267 120.579 345.533 132.01 344.845C143.441 344.158 147.593 337.458 147.593 337.458C147.593 337.458 141.972 335.167 142.417 325.326C142.417 325.326 140.435 329.222 135.003 327.267C129.57 325.313 124.017 303.934 124.017 303.934Z" fill="black"/>
</svg>
