<svg width="100" height="100" viewBox="0 0 100 100" fill="none" xmlns="http://www.w3.org/2000/svg">
<path d="M97.5029 41.1556C88.4668 58.1111 91.0473 74.4361 86.6945 82.6083C82.3418 90.7806 68.4973 105.436 30.9084 85.4083C-6.68046 65.3806 0.102879 39.3556 4.89455 30.3667C27.3168 -11.7167 113.506 11.125 97.5029 41.1556Z" fill="#E76F51" fill-opacity="0.12"/>
<path d="M73.3423 10.8241L75.3065 8.85989L79.2349 12.7883L77.2707 14.7525L73.3423 10.8241Z" fill="#A4AFC1"/>
<path d="M84.6411 22.1305L86.6053 20.1663L90.5336 24.0947L88.5695 26.0589L84.6411 22.1305Z" fill="#A4AFC1"/>
<path d="M84.635 12.2996L88.5634 8.37125L90.5276 10.3354L86.5992 14.2638L84.635 12.2996Z" fill="#A4AFC1"/>
<path d="M80.3044 47.1671C82.474 44.9975 82.474 41.48 80.3044 39.3104C78.1348 37.1408 74.6173 37.1408 72.4477 39.3104C70.2781 41.48 70.2781 44.9975 72.4477 47.1671C74.6173 49.3367 78.1348 49.3367 80.3044 47.1671Z" fill="#2A9D8F"/>
<path d="M51.8356 81.5388L46.9244 76.6277C45.8383 75.5416 45.8383 73.7833 46.9244 72.6999L51.1911 68.4333C52.2328 67.3916 52.8189 65.9777 52.8189 64.5055V61.2499C52.8189 59.7777 53.405 58.3638 54.4467 57.3222L60.6772 51.0916C62.8467 48.9222 66.3633 48.9222 68.5328 51.0916L70.1856 52.7444C71.0272 53.5861 71.5744 54.675 71.7522 55.85L73.0272 64.361C73.2856 65.2638 73.0328 66.2333 72.3689 66.8972L72.3522 66.9138C71.0245 68.2416 68.7661 67.7527 68.1078 65.9944L65.5856 56.0027L62.3022 59.2861C61.2606 60.3277 60.6745 61.7416 60.6745 63.2138V66.4694C60.6745 67.9416 60.0883 69.3555 59.0467 70.3972L53.7994 75.6444L55.7633 77.611C56.305 78.1527 56.305 79.0332 55.7633 79.5749L53.7994 81.5388C53.2578 82.0805 52.3772 82.0805 51.8356 81.5388Z" fill="#F3F3F1"/>
<path d="M48.8914 55.0222L52.8192 58.95L62.6414 49.1278L58.7136 45.2C57.6275 44.1139 55.8692 44.1139 54.7858 45.2L48.8942 51.0917C47.8053 52.1778 47.8053 53.9361 48.8914 55.0222Z" fill="#F3F3F1"/>
<path d="M48.6108 26.3889C51.6803 26.3889 54.1664 23.9028 54.1664 20.8334C54.1664 23.9028 56.6525 26.3889 59.722 26.3889C56.6525 26.3889 54.1664 28.875 54.1664 31.9445C54.1664 28.875 51.6803 26.3889 48.6108 26.3889Z" fill="#2A9D8F"/>
<path d="M78.0164 47.1639C75.8469 44.9945 75.8469 41.4778 78.0164 39.3084C78.3664 38.9584 78.758 38.6862 79.1664 38.45C77.0414 37.2167 74.2803 37.4889 72.4608 39.3084C70.2914 41.4778 70.2914 44.9945 72.4608 47.1639C74.2803 48.9834 77.0414 49.2556 79.1664 48.0223C78.758 47.7862 78.3664 47.5139 78.0164 47.1639Z" fill="#2A9D8F"/>
<path d="M52.48 76.6278C51.3939 75.5417 51.3939 73.7833 52.48 72.7L56.7467 68.4333C57.7884 67.3917 58.3745 65.9778 58.3745 64.5056V61.25C58.3745 59.7778 58.9606 58.3639 60.0022 57.3222L66.2328 51.0917C66.5828 50.7417 66.9745 50.4694 67.3828 50.2333C65.2578 49 62.4967 49.2722 60.6772 51.0917L54.4467 57.3222C53.405 58.3639 52.8189 59.7778 52.8189 61.25V64.5056C52.8189 65.9778 52.2328 67.3917 51.1911 68.4333L46.9244 72.7C45.8383 73.7861 45.8383 75.5444 46.9244 76.6278L51.8356 81.5389C52.3772 82.0806 53.2578 82.0806 53.7995 81.5389L55.5939 79.7444L52.48 76.6278Z" fill="#D5DBE1"/>
<path d="M72.6965 62.1695L71.141 56.0028L67.8576 59.2861C67.4104 59.7333 67.066 60.2583 66.7993 60.8167L68.1049 65.9972C68.766 67.7556 71.0215 68.2445 72.3493 66.9167L72.366 66.9C73.0298 66.2361 73.2798 65.2667 73.0243 64.3639L72.6965 62.1695Z" fill="#D5DBE1"/>
<path d="M54.4473 55.0222C53.3612 53.9361 53.3612 52.1777 54.4473 51.0944L59.5251 46.0166L58.7112 45.2027C57.6251 44.1166 55.8667 44.1166 54.7834 45.2027L48.8917 51.0944C47.8056 52.1805 47.8056 53.9389 48.8917 55.0222L52.8195 58.95L55.5973 56.1722L54.4473 55.0222Z" fill="#D5DBE1"/>
<path d="M76.389 50.1806C74.5335 50.1806 72.789 49.4584 71.4779 48.1473C70.1668 46.8361 69.4446 45.0917 69.4446 43.2361C69.4446 41.3806 70.1668 39.6361 71.4779 38.325C74.0974 35.7028 78.6779 35.7028 81.2974 38.325C82.6113 39.6361 83.3335 41.3806 83.3335 43.2361C83.3335 45.0917 82.6112 46.8334 81.3001 48.1473C79.9862 49.4584 78.2446 50.1806 76.389 50.1806ZM76.389 40.4583C75.6474 40.4583 74.9501 40.7472 74.4251 41.2722C73.9001 41.7972 73.6112 42.4945 73.6112 43.2361C73.6112 43.9778 73.9001 44.675 74.4251 45.2C75.4751 46.25 77.3029 46.25 78.3529 45.2C78.8779 44.675 79.1668 43.9778 79.1668 43.2361C79.1668 42.4945 78.8779 41.7972 78.3529 41.2722C77.8279 40.7472 77.1307 40.4583 76.389 40.4583Z" fill="black"/>
<path d="M53.1689 83.3334C52.2578 83.3334 51.4023 82.9778 50.7606 82.3306C50.7606 82.3306 50.7606 82.3306 50.7578 82.3278L46.0995 77.6278C44.2689 75.7834 44.2689 72.7806 46.0995 70.9334L50.1439 66.8528C50.7495 66.2417 51.0828 65.425 51.0828 64.5584V61.4417C51.0828 59.4667 51.8439 57.6112 53.23 56.2139L59.1384 50.2528C61.9161 47.4473 66.7717 47.4473 69.5495 50.2528L71.1161 51.8334C72.2328 52.9584 72.9467 54.3862 73.1828 55.9639L74.3911 64.1167C74.7856 65.4362 74.3467 67.1445 73.1884 68.3139C72.0772 69.4334 70.5217 69.8889 69.0078 69.5723C67.4884 69.2445 66.255 68.175 65.7106 66.7112L64.1522 60.5112L63.6384 61.0306C63.0411 61.6334 62.6995 62.4695 62.6995 63.325V66.4417C62.6995 68.4167 61.9384 70.2723 60.5522 71.6695L57.0273 75.225L57.4384 75.6389C58.7522 76.9667 58.7522 79.125 57.4356 80.4528L55.5745 82.3306C54.9356 82.975 54.08 83.3334 53.1689 83.3334ZM64.3467 52.2445C63.4995 52.2445 62.7022 52.5778 62.0995 53.1834L56.1911 59.1445C55.5939 59.7473 55.2523 60.5834 55.2523 61.4389V64.5556C55.2523 66.5278 54.4911 68.3834 53.105 69.7834L49.0578 73.8667C48.8356 74.0917 48.8356 74.4695 49.0578 74.6917L53.1689 78.8417L53.9634 78.0389L52.6217 76.6862C51.8161 75.875 51.8161 74.5667 52.6217 73.7528L57.5995 68.7278C58.205 68.1167 58.5384 67.3028 58.5384 66.4334V63.3167C58.5384 61.3445 59.2995 59.4889 60.6856 58.0917L63.7995 54.95C64.3272 54.4167 65.1022 54.2056 65.83 54.4084C66.555 54.6084 67.1161 55.1806 67.2995 55.9112L69.6911 65.475C69.6717 65.3834 69.7661 65.4695 69.8911 65.4945C70.0106 65.5195 70.1245 65.4862 70.2161 65.3945C70.3328 65.2778 70.3717 65.1278 70.3328 64.9889L69.0661 56.575C68.9606 55.8834 68.6495 55.2556 68.1606 54.7639L66.5939 53.1834C65.9911 52.5778 65.1939 52.2445 64.3467 52.2445Z" fill="black"/>
<path d="M53.5144 61.7278C52.9811 61.7278 52.4478 61.525 52.0422 61.1166L48.1144 57.1889C47.195 56.2694 46.6895 55.05 46.6895 53.7527C46.6895 52.4527 47.195 51.2333 48.1144 50.3139L54.0061 44.4222C55.9033 42.5277 58.9839 42.5277 60.8811 44.4222L64.8089 48.3527C65.6228 49.1666 65.6228 50.4861 64.8089 51.3C63.995 52.1139 62.6756 52.1139 61.8617 51.3L57.9339 47.3694C57.6617 47.0972 57.2228 47.1 56.9506 47.3694L51.0589 53.2639C50.8811 53.4416 50.8561 53.6472 50.8561 53.7555C50.8561 53.8639 50.8839 54.0694 51.0589 54.2472L54.9867 58.175C55.8006 58.9889 55.8006 60.3083 54.9867 61.1222C54.5783 61.5222 54.0478 61.7278 53.5144 61.7278Z" fill="black"/>
<path d="M43.0358 58.3277C39.1747 58.3277 35.4636 56.6555 32.7469 53.4972C28.6691 48.761 28.2275 42.3138 31.6219 37.0666C33.3358 34.4166 33.6441 31.2166 32.4664 28.2888C31.2886 25.3611 28.8497 23.2666 25.7775 22.5444L16.2441 20.3L17.1997 16.2444L26.733 18.4888C31.1414 19.525 34.6414 22.5305 36.333 26.7333C38.0247 30.9361 37.5858 35.5277 35.1247 39.3305C32.2497 43.7722 33.7497 48.2749 35.908 50.7805C38.0636 53.286 42.2969 55.4277 47.1136 53.2555L49.6552 52.1055L51.3747 55.9027L48.833 57.0527C46.933 57.9083 44.9664 58.3277 43.0358 58.3277Z" fill="black"/>
<path d="M52.0825 19.4445H56.2492V33.3334H52.0825V19.4445Z" fill="black"/>
<path d="M47.2217 24.3055H61.1106V28.4722H47.2217V24.3055Z" fill="black"/>
</svg>
