<svg width="100" height="100" viewBox="0 0 100 100" fill="none" xmlns="http://www.w3.org/2000/svg">
<path d="M76.1579 10.8723C56.9496 11.2306 43.569 1.52503 34.3135 1.70003C25.0579 1.87503 5.7135 7.55836 6.51072 50.1445C7.30794 92.7306 33.5774 98.4889 43.7607 98.3C91.4357 97.4084 110.18 10.2361 76.1579 10.8723Z" fill="#E76F51" fill-opacity="0.12"/>
<path d="M34.3208 10.3653L38.2492 6.43691L40.2134 8.40109L36.285 12.3295L34.3208 10.3653Z" fill="#A4AFC1"/>
<path d="M23.0269 21.6579L26.9552 17.7295L28.9194 19.6937L24.991 23.622L23.0269 21.6579Z" fill="#A4AFC1"/>
<path d="M23.0269 7.90834L24.991 5.94416L28.9194 9.87252L26.9552 11.8367L23.0269 7.90834Z" fill="#A4AFC1"/>
<path d="M18.7499 90.2778C16.4527 90.2778 14.5833 88.4084 14.5833 86.1111C14.5833 83.8139 16.4527 81.9445 18.7499 81.9445C21.0471 81.9445 22.9166 83.8139 22.9166 86.1111C22.9166 88.4084 21.0471 90.2778 18.7499 90.2778ZM18.7499 84.7222C17.9832 84.7222 17.361 85.3445 17.361 86.1111C17.361 86.8778 17.9832 87.5 18.7499 87.5C19.5166 87.5 20.1388 86.8778 20.1388 86.1111C20.1388 85.3445 19.5166 84.7222 18.7499 84.7222Z" fill="#A4AFC1"/>
<path d="M68.0559 40.2779L72.917 45.139L77.7782 40.2779H68.0559Z" fill="#2A9D8F"/>
<path d="M31.9444 59.7221L27.0833 54.861L22.2222 59.7221H31.9444Z" fill="#2A9D8F"/>
<path d="M18.75 42.361V40.9721C18.75 37.9027 21.2361 35.4166 24.3056 35.4166H36.8056C39.875 35.4166 42.3611 37.9027 42.3611 40.9721V42.361H18.75Z" fill="#2A9D8F"/>
<path d="M69.4441 67.3612C72.1289 67.3612 74.3053 65.1848 74.3053 62.5001C74.3053 59.8154 72.1289 57.639 69.4441 57.639C66.7594 57.639 64.583 59.8154 64.583 62.5001C64.583 65.1848 66.7594 67.3612 69.4441 67.3612Z" fill="#F3F3F1"/>
<path d="M57.6392 81.2501V79.8612C57.6392 76.7917 60.1253 74.3056 63.1947 74.3056H75.6947C78.7642 74.3056 81.2503 76.7917 81.2503 79.8612V81.2501H57.6392Z" fill="#2A9D8F"/>
<path d="M29.8611 35.4166H24.3056C21.2361 35.4166 18.75 37.9027 18.75 40.9721V42.361H24.3056V40.9721C24.3056 37.9027 26.7917 35.4166 29.8611 35.4166Z" fill="#2A9D8F"/>
<path d="M68.7503 74.3056H63.1947C60.1253 74.3056 57.6392 76.7917 57.6392 79.8612V81.2501H63.1947V79.8612C63.1947 76.7917 65.6808 74.3056 68.7503 74.3056Z" fill="#2A9D8F"/>
<path d="M30.5552 28.4722C33.2399 28.4722 35.4163 26.2958 35.4163 23.6111C35.4163 20.9264 33.2399 18.75 30.5552 18.75C27.8705 18.75 25.6941 20.9264 25.6941 23.6111C25.6941 26.2958 27.8705 28.4722 30.5552 28.4722Z" fill="#F3F3F1"/>
<path d="M31.2496 23.6111C31.2496 21.9611 32.0746 20.5083 33.333 19.6306C32.5441 19.0806 31.5885 18.75 30.5552 18.75C27.8719 18.75 25.6941 20.9278 25.6941 23.6111C25.6941 26.2945 27.8719 28.4722 30.5552 28.4722C31.5885 28.4722 32.5441 28.1445 33.333 27.5917C32.0746 26.7139 31.2496 25.2611 31.2496 23.6111Z" fill="#D5DBE1"/>
<path d="M70.1386 62.5001C70.1386 60.8501 70.9636 59.3973 72.2219 58.5195C71.433 57.9695 70.4774 57.639 69.4441 57.639C66.7608 57.639 64.583 59.8168 64.583 62.5001C64.583 65.1834 66.7608 67.3612 69.4441 67.3612C70.4774 67.3612 71.433 67.0334 72.2219 66.4807C70.9636 65.6029 70.1386 64.1501 70.1386 62.5001Z" fill="#D5DBE1"/>
<path d="M75.0001 45.1389H70.8334V32.6389C70.8334 30.725 69.2751 29.1667 67.3612 29.1667H46.5278V25H67.3612C71.5751 25 75.0001 28.425 75.0001 32.6389V45.1389Z" fill="black"/>
<path d="M72.9166 47.2223C72.3833 47.2223 71.85 47.0195 71.4444 46.6112L65.1111 40.2778L68.0583 37.3306L72.9194 42.1917L77.7805 37.3306L80.7277 40.2778L74.3944 46.6112C73.9833 47.0195 73.45 47.2223 72.9166 47.2223Z" fill="black"/>
<path d="M47.9166 74.9999H32.6389C28.425 74.9999 25 71.5749 25 67.361V54.861H29.1667V67.361C29.1667 69.2749 30.725 70.8332 32.6389 70.8332H47.9166V74.9999Z" fill="black"/>
<path d="M31.9443 62.6693L27.0832 57.8082L22.2221 62.6693L19.2749 59.7221L25.6082 53.3887C26.4221 52.5748 27.7416 52.5748 28.5555 53.3887L34.8888 59.7221L31.9443 62.6693Z" fill="black"/>
<path d="M30.5553 30.5556C26.7275 30.5556 23.6108 27.4389 23.6108 23.6112C23.6108 19.7834 26.7275 16.6667 30.5553 16.6667C34.3831 16.6667 37.4997 19.7834 37.4997 23.6112C37.4997 27.4389 34.3831 30.5556 30.5553 30.5556ZM30.5553 20.8334C29.0247 20.8334 27.7775 22.0806 27.7775 23.6112C27.7775 25.1417 29.0247 26.3889 30.5553 26.3889C32.0858 26.3889 33.3331 25.1417 33.3331 23.6112C33.3331 22.0806 32.0858 20.8334 30.5553 20.8334Z" fill="black"/>
<path d="M44.4445 42.3612H40.2779V40.9723C40.2779 39.0584 38.7195 37.5001 36.8056 37.5001H24.3056C22.3917 37.5001 20.8334 39.0584 20.8334 40.9723V42.3612H16.6667V40.9723C16.6667 36.7584 20.0917 33.3334 24.3056 33.3334H36.8056C41.0195 33.3334 44.4445 36.7584 44.4445 40.9723V42.3612Z" fill="black"/>
<path d="M69.4444 69.4445C65.6167 69.4445 62.5 66.3278 62.5 62.5C62.5 58.6722 65.6167 55.5556 69.4444 55.5556C73.2722 55.5556 76.3889 58.6722 76.3889 62.5C76.3889 66.3278 73.2722 69.4445 69.4444 69.4445ZM69.4444 59.7222C67.9139 59.7222 66.6667 60.9695 66.6667 62.5C66.6667 64.0306 67.9139 65.2778 69.4444 65.2778C70.975 65.2778 72.2222 64.0306 72.2222 62.5C72.2222 60.9695 70.975 59.7222 69.4444 59.7222Z" fill="black"/>
<path d="M83.3337 81.2499H79.167V79.861C79.167 77.9471 77.6087 76.3888 75.6948 76.3888H63.1948C61.2809 76.3888 59.7226 77.9471 59.7226 79.861V81.2499H55.5559V79.861C55.5559 75.6471 58.9809 72.2221 63.1948 72.2221H75.6948C79.9087 72.2221 83.3337 75.6471 83.3337 79.861V81.2499Z" fill="black"/>
</svg>
