<svg width="30" height="30" viewBox="0 0 30 30" fill="none" xmlns="http://www.w3.org/2000/svg">
<g clip-path="url(#clip0)">
<path d="M25.9999 4.70724L19.3863 4.12723C16.4676 3.87328 13.5324 3.87328 10.6138 4.12723L4.00007 4.70724C1.73238 4.89029 -0.0111889 6.78972 6.10806e-05 9.06473V20.9396C-0.011892 23.2151 1.73191 25.1153 4.00007 25.2984L10.6176 25.8733C12.0726 25.9983 13.5376 26.0634 15.0038 26.0634C16.4701 26.0634 17.9351 26.0008 19.3901 25.8733L26.0076 25.2984C28.2727 25.1116 30.0123 23.2124 30.0001 20.9396V9.06473C30.0113 6.78972 28.2676 4.89023 25.9999 4.70724Z" fill="#E53935"/>
<path d="M20.9637 14.477L12.2137 8.85204C11.9236 8.66495 11.5369 8.74844 11.3498 9.03854C11.2847 9.13944 11.2501 9.25698 11.25 9.37703V20.627C11.2501 20.9721 11.5301 21.2519 11.8753 21.2518C11.9953 21.2517 12.1128 21.2171 12.2137 21.152L20.9637 15.527C21.254 15.3403 21.3379 14.9535 21.1512 14.6632C21.1028 14.588 21.0389 14.5241 20.9637 14.4757V14.477Z" fill="#FAFAFA"/>
</g>
<defs>
<clipPath id="clip0">
<rect width="30" height="30" fill="white"/>
</clipPath>
</defs>
</svg>
