<svg width="48" height="48" viewBox="0 0 48 48" fill="none" xmlns="http://www.w3.org/2000/svg">
<path d="M22.3267 29.19C22.242 29.6401 22.3532 30.0611 22.61 30.2626C22.7237 30.3517 22.8529 30.4387 22.9931 30.5235V28.1747C22.6029 28.4153 22.3939 28.8333 22.3267 29.19Z" fill="url(#paint0_linear)"/>
<path d="M24.8682 33.371V36.8079C25.5124 36.4866 25.8953 35.8605 25.9951 35.2666C26.0502 34.939 26.128 33.8451 24.8682 33.371Z" fill="url(#paint1_linear)"/>
<path d="M32.1771 22.7946C30.4734 19.2498 27.9496 16.0776 24.8785 13.6208C24.3649 13.2099 23.6351 13.2099 23.1216 13.6208C20.0505 16.0776 17.5267 19.2499 15.823 22.7946C14.1192 26.3393 13.2188 30.2917 13.2188 34.2246C13.2188 38.2082 13.7737 42.1703 14.8681 46.0008L15.1478 46.9801C15.3203 47.5839 15.8722 48.0001 16.5 48.0001H31.5C32.1278 48.0001 32.6797 47.5839 32.8522 46.9801L33.1319 46.0009C34.2263 42.1703 34.7812 38.2083 34.7812 34.2246C34.7812 30.2917 33.8808 26.3393 32.1771 22.7946ZM27.8441 35.5774C27.6094 36.9737 26.5381 38.3896 24.8681 38.79V39.5626C24.8681 40.0802 24.4484 40.5001 23.9306 40.5001C23.4128 40.5001 22.9931 40.0802 22.9931 39.5626V38.8771C22.1648 38.8131 21.4905 38.6016 20.5265 37.9709C20.0932 37.6875 19.9717 37.1064 20.2552 36.6731C20.5386 36.2399 21.1196 36.1185 21.5529 36.4018C22.1302 36.7795 22.4927 36.9331 22.9931 36.9926V32.6333C22.337 32.3352 21.8501 32.0496 21.4529 31.738C20.6392 31.0997 20.2679 29.9903 20.4842 28.8428C20.7203 27.5899 21.5916 26.5934 22.7583 26.242C22.8376 26.2181 22.9157 26.197 22.9932 26.1773V25.5001C22.9932 24.9824 23.4129 24.5626 23.9307 24.5626C24.4485 24.5626 24.8682 24.9824 24.8682 25.5001V26.0712C25.8547 26.2276 26.5498 26.7087 26.883 27.0912C27.2231 27.4816 27.1823 28.0737 26.7919 28.4138C26.4031 28.7524 25.8141 28.7133 25.4734 28.3275C25.4497 28.303 25.2526 28.1097 24.8682 27.9892V31.3756C25.0614 31.4476 25.2547 31.5173 25.4441 31.5842C27.2052 32.2069 28.1473 33.7743 27.8441 35.5774Z" fill="url(#paint2_linear)"/>
<path d="M42.2505 11.593C42.2709 11.3225 42.2812 11.0516 42.2812 10.7812C42.2812 4.83647 37.4448 0 31.5 0C27.5508 0 23.9847 2.14659 22.1036 5.50313C20.4712 4.36256 18.5378 3.75 16.5 3.75C11.877 3.75 7.94813 6.93553 6.92016 11.3317C3.06544 11.8874 0.09375 15.2126 0.09375 19.2188C0.09375 23.6127 3.66853 27.1875 8.0625 27.1875C9.25444 27.1875 10.4129 26.9233 11.4744 26.4169C11.9355 24.7523 12.5419 23.1288 13.2881 21.5761C15.1733 17.6536 17.9662 14.1432 21.3646 11.4245C22.1097 10.8283 23.0457 10.5 24 10.5C24.9543 10.5 25.8903 10.8283 26.6354 11.4245C30.0338 14.1432 32.8267 17.6536 34.7119 21.5762C35.4581 23.1288 36.0645 24.7522 36.5256 26.4169C37.5871 26.9233 38.7456 27.1875 39.9375 27.1875C44.3315 27.1875 47.9062 23.6127 47.9062 19.2188C47.9062 15.6502 45.5572 12.5891 42.2505 11.593Z" fill="url(#paint3_linear)"/>
<path d="M37.5918 34.4519C37.5753 37.772 37.1974 41.0765 36.4655 44.3096C37.7304 44.8703 38.8898 45.6598 39.8806 46.6506C40.7665 47.5365 42.2812 46.9091 42.2812 45.6562V42.8437C42.2812 39.314 40.4254 36.1901 37.5918 34.4519Z" fill="url(#paint4_linear)"/>
<path d="M5.71875 42.8437V45.6562C5.71875 46.9091 7.23347 47.5365 8.11941 46.6506C9.11016 45.6598 10.2697 44.8703 11.5345 44.3096C10.8025 41.0765 10.4247 37.7719 10.4082 34.4519C7.57463 36.1901 5.71875 39.314 5.71875 42.8437Z" fill="url(#paint5_linear)"/>
<defs>
<linearGradient id="paint0_linear" x1="22.6459" y1="28.1747" x2="22.6459" y2="30.5235" gradientUnits="userSpaceOnUse">
<stop offset="0.578125" stop-color="#388087"/>
<stop offset="1" stop-color="#44EE74"/>
</linearGradient>
<linearGradient id="paint1_linear" x1="25.4442" y1="33.371" x2="25.4442" y2="36.8079" gradientUnits="userSpaceOnUse">
<stop offset="0.578125" stop-color="#388087"/>
<stop offset="1" stop-color="#44EE74"/>
</linearGradient>
<linearGradient id="paint2_linear" x1="24" y1="13.3126" x2="24" y2="48.0001" gradientUnits="userSpaceOnUse">
<stop offset="0.578125" stop-color="#388087"/>
<stop offset="1" stop-color="#44EE74"/>
</linearGradient>
<linearGradient id="paint3_linear" x1="24" y1="0" x2="24" y2="27.1875" gradientUnits="userSpaceOnUse">
<stop offset="0.578125" stop-color="#388087"/>
<stop offset="1" stop-color="#44EE74"/>
</linearGradient>
<linearGradient id="paint4_linear" x1="39.3733" y1="34.4519" x2="39.3733" y2="47.0653" gradientUnits="userSpaceOnUse">
<stop offset="0.578125" stop-color="#388087"/>
<stop offset="1" stop-color="#44EE74"/>
</linearGradient>
<linearGradient id="paint5_linear" x1="8.62664" y1="34.4519" x2="8.62664" y2="47.0653" gradientUnits="userSpaceOnUse">
<stop offset="0.578125" stop-color="#388087"/>
<stop offset="1" stop-color="#44EE74"/>
</linearGradient>
</defs>
</svg>
