<svg width="48" height="30" viewBox="0 0 48 30" fill="none" xmlns="http://www.w3.org/2000/svg">
<path fill-rule="evenodd" clip-rule="evenodd" d="M47.8403 21.8936L44.6228 8.2207C43.7564 4.53735 40.3612 0.75 35.191 0.75H12.8093C9.02527 0.75 4.56116 3.18787 3.3772 8.2207L0.159673 21.8936C-0.71374 25.6051 2.10352 29.1658 5.92127 29.1658C7.54358 29.1658 9.06959 28.3015 9.90345 26.911L12.382 22.7809C12.8057 22.0741 13.5806 21.6354 14.4045 21.6354H33.5951C34.4191 21.6354 35.1943 22.0745 35.618 22.7812L38.0962 26.9106C38.9304 28.3015 40.4564 29.1658 42.0806 29.1658C45.8925 29.1658 48.7145 25.6088 47.8403 21.8936ZM17.9758 12.5988H16.3696V14.205C16.3696 14.9813 15.7401 15.6108 14.9634 15.6108C14.187 15.6108 13.5575 14.9813 13.5575 14.205V12.5988H11.9513C11.1749 12.5988 10.5454 11.9692 10.5454 11.1929C10.5454 10.4161 11.1749 9.78662 11.9513 9.78662H13.5575V8.18042C13.5575 7.40405 14.187 6.77454 14.9634 6.77454C15.7401 6.77454 16.3696 7.40405 16.3696 8.18042V9.78662H17.9758C18.7522 9.78662 19.3817 10.4161 19.3817 11.1929C19.3817 11.9692 18.7522 12.5988 17.9758 12.5988ZM30.0242 12.5988C29.2482 12.5988 28.6183 11.9689 28.6183 11.1929C28.6183 10.4165 29.2485 9.78662 30.0242 9.78662C30.8005 9.78662 31.4304 10.4165 31.4304 11.1929C31.4304 11.9689 30.8005 12.5988 30.0242 12.5988ZM33.0366 15.6108C32.2606 15.6108 31.6304 14.981 31.6304 14.205C31.6304 13.429 32.2606 12.7987 33.0366 12.7987C33.8126 12.7987 34.4425 13.429 34.4425 14.205C34.4425 14.981 33.8126 15.6108 33.0366 15.6108ZM33.0366 9.58667C32.2606 9.58667 31.6304 8.95679 31.6304 8.18042C31.6304 7.40442 32.2606 6.77454 33.0366 6.77454C33.8126 6.77454 34.4425 7.40442 34.4425 8.18042C34.4425 8.95679 33.8126 9.58667 33.0366 9.58667ZM36.0487 12.5988C35.2727 12.5988 34.6425 11.9689 34.6425 11.1929C34.6425 10.4165 35.2727 9.78662 36.0487 9.78662C36.8247 9.78662 37.4546 10.4165 37.4546 11.1929C37.4546 11.9689 36.8247 12.5988 36.0487 12.5988Z" fill="url(#paint0_linear)"/>
<defs>
<linearGradient id="paint0_linear" x1="24" y1="0.75" x2="24" y2="29.1658" gradientUnits="userSpaceOnUse">
<stop offset="0.526042" stop-color="#388087"/>
<stop offset="1" stop-color="#44EE74"/>
</linearGradient>
</defs>
</svg>
