<svg width="48" height="48" viewBox="0 0 48 48" fill="none" xmlns="http://www.w3.org/2000/svg">
<path d="M35.9059 42.1202C35.9059 40.9725 35.9059 3.85783 35.9059 2.93309C35.9059 2.15647 35.2763 1.52686 34.4997 1.52686H1.40624C0.629619 1.52686 0 2.15647 0 2.93309V39.3077C0 43.1847 3.15419 46.3389 7.03118 46.3389H37.316C36.4312 45.1628 35.9059 43.7018 35.9059 42.1202ZM7.49993 28.5266H11.9999C12.7765 28.5266 13.4061 29.1562 13.4061 29.9328C13.4061 30.7094 12.7765 31.3391 11.9999 31.3391H7.49993C6.72331 31.3391 6.09369 30.7094 6.09369 29.9328C6.09369 29.1562 6.72331 28.5266 7.49993 28.5266ZM6.09369 23.9329C6.09369 23.1563 6.72331 22.5266 7.49993 22.5266H11.9999C12.7765 22.5266 13.4061 23.1563 13.4061 23.9329C13.4061 24.7095 12.7765 25.3391 11.9999 25.3391H7.49993C6.72331 25.3391 6.09369 24.7095 6.09369 23.9329ZM28.4997 39.589H7.49993C6.72331 39.589 6.09369 38.9594 6.09369 38.1827C6.09369 37.4061 6.72331 36.7765 7.49993 36.7765H28.4997C29.2763 36.7765 29.906 37.4061 29.906 38.1827C29.906 38.9594 29.2763 39.589 28.4997 39.589ZM29.906 32.1828C29.906 32.9594 29.2763 33.589 28.4997 33.589H17.9998C17.2232 33.589 16.5936 32.9594 16.5936 32.1828V21.6829C16.5936 20.9063 17.2232 20.2767 17.9998 20.2767H28.4997C29.2763 20.2767 29.906 20.9063 29.906 21.6829V32.1828ZM28.4997 17.0892H7.49993C6.72331 17.0892 6.09369 16.4596 6.09369 15.683C6.09369 14.9063 6.72331 14.2767 7.49993 14.2767H28.4997C29.2763 14.2767 29.906 14.9063 29.906 15.683C29.906 16.4596 29.2763 17.0892 28.4997 17.0892ZM28.4997 11.0893H7.49993C6.72331 11.0893 6.09369 10.4596 6.09369 9.68303C6.09369 8.90641 6.72331 8.27679 7.49993 8.27679H28.4997C29.2763 8.27679 29.906 8.90641 29.906 9.68303C29.906 10.4596 29.2763 11.0893 28.4997 11.0893Z" fill="url(#paint0_linear)"/>
<path d="M19.406 23.0891H27.0935V30.7766H19.406V23.0891Z" fill="url(#paint1_linear)"/>
<path d="M46.5933 11.2767H38.7183C38.7183 43.1414 38.7137 42.1211 38.7268 42.1211C38.8481 44.0843 40.1898 45.7161 42.0024 46.2691C44.9017 47.1539 47.8743 45.0565 47.9948 42.0174C48.0021 42.0174 47.9995 42.72 47.9995 12.683C47.9995 11.9064 47.3699 11.2767 46.5933 11.2767Z" fill="url(#paint2_linear)"/>
<defs>
<linearGradient id="paint0_linear" x1="18.658" y1="1.52686" x2="18.658" y2="46.3389" gradientUnits="userSpaceOnUse">
<stop offset="0.541667" stop-color="#388087"/>
<stop offset="1" stop-color="#44EE74"/>
</linearGradient>
<linearGradient id="paint1_linear" x1="23.2498" y1="23.0891" x2="23.2498" y2="30.7766" gradientUnits="userSpaceOnUse">
<stop offset="0.541667" stop-color="#388087"/>
<stop offset="1" stop-color="#44EE74"/>
</linearGradient>
<linearGradient id="paint2_linear" x1="43.3587" y1="11.2767" x2="43.3587" y2="46.4732" gradientUnits="userSpaceOnUse">
<stop offset="0.541667" stop-color="#388087"/>
<stop offset="1" stop-color="#44EE74"/>
</linearGradient>
</defs>
</svg>
