<svg width="48" height="48" viewBox="0 0 48 48" fill="none" xmlns="http://www.w3.org/2000/svg">
<path d="M6.54666 36.7497C7.06444 36.7497 7.48416 36.33 7.48416 35.8122V5.41431C7.48416 4.63768 6.85453 4.00806 6.07791 4.00806H2.71875C1.21725 4.00806 0 5.22531 0 6.72681V39.4682C0 37.9668 1.21706 36.7497 2.71847 36.7497H6.54666Z" fill="url(#paint0_linear)"/>
<path d="M13.6522 28.443L13.6521 24.5624C13.6521 22.236 15.5447 20.3435 17.8709 20.3435C17.9198 20.3435 17.9686 20.3444 18.0172 20.346L18.034 20.2906C19.2267 16.352 21.3924 12.7317 24.2973 9.82074L24.4845 9.63306H10.2966V32.9219C10.4343 32.0824 10.8245 31.2767 11.4698 30.6299L13.6522 28.443Z" fill="url(#paint1_linear)"/>
<path d="M16.4647 29.6062L13.4608 32.6164C12.9122 33.1662 12.9131 34.0566 13.4628 34.6051C13.7373 34.8791 14.0968 35.016 14.4562 35.016C14.8166 35.016 15.177 34.8782 15.4517 34.6031L18.4545 31.594C17.0145 31.6525 16.2744 31.0584 16.4647 29.6062Z" fill="url(#paint2_linear)"/>
<path d="M19.2772 25.8897V24.5623C19.2772 23.7856 18.6476 23.156 17.871 23.156C17.0943 23.156 16.4647 23.7856 16.4647 24.5623V29.6063L32.814 13.2229C33.3626 12.6732 34.2529 12.6722 34.8027 13.2208C35.3524 13.7695 35.3534 14.6598 34.8048 15.2096L18.4544 31.5942H23.485C24.2616 31.5942 24.8913 30.9645 24.8913 30.1879C24.8913 29.4113 24.2616 28.7817 23.485 28.7817H22.142L26.9367 27.3238C30.4283 26.2621 33.6375 24.3343 36.2175 21.7491L38.5572 19.4045C44.903 13.0453 47.83 2.2251 47.9515 1.7676C48.0741 1.30588 47.9539 0.813409 47.6324 0.460065C47.3108 0.106721 46.8318 -0.0591227 46.3606 0.0196273C45.9534 0.0876898 36.3003 1.77425 28.6278 9.46278L26.2881 11.8074C23.7085 14.3924 21.7851 17.6077 20.7258 21.1058L19.2772 25.8897Z" fill="url(#paint3_linear)"/>
<path d="M47.5363 10.8992C45.5112 15.2445 43.1642 18.7693 40.5478 21.3911L38.2081 23.7357C35.3022 26.6476 31.6875 28.8188 27.7547 30.0146L27.7007 30.031C27.7026 30.0831 27.7036 30.1354 27.7036 30.188C27.7036 32.5142 25.8111 34.4067 23.4849 34.4067H19.621L17.4423 36.5899C16.645 37.3887 15.5845 37.8286 14.4561 37.8286C13.331 37.8286 12.2726 37.3909 11.4761 36.5961C10.8272 35.9485 10.4347 35.1403 10.2965 34.298V38.1559C10.2965 38.9325 9.66685 39.5621 8.89023 39.5621H4.21866C4.1926 39.5621 4.16729 39.5646 4.1416 39.566H3.83569C3.05907 39.566 2.42944 40.1957 2.42944 40.9723C2.42944 41.7489 3.05907 42.3785 3.83569 42.3785L45.2803 42.3746C46.7817 42.3746 47.9992 43.5914 47.9999 45.0929V12.4455C47.9999 11.8742 47.8291 11.3429 47.5363 10.8992Z" fill="url(#paint4_linear)"/>
<path d="M45.3125 46.5933C45.3125 45.8166 44.6828 45.187 43.9062 45.187H43.4053H40.625H37.7032V46.5933C37.7032 47.3699 38.3329 47.9995 39.1095 47.9995H40.625H43.9062H45.2812C45.4532 47.9995 44.7895 47.9833 44.2609 47.9526C44.8656 47.7952 45.3125 47.2472 45.3125 46.5933Z" fill="url(#paint5_linear)"/>
<defs>
<linearGradient id="paint0_linear" x1="3.74208" y1="4.00806" x2="3.74208" y2="39.4682" gradientUnits="userSpaceOnUse">
<stop offset="0.427083" stop-color="#388087"/>
<stop offset="1" stop-color="#5CB85C"/>
</linearGradient>
<linearGradient id="paint1_linear" x1="17.3906" y1="9.63306" x2="17.3906" y2="32.9219" gradientUnits="userSpaceOnUse">
<stop offset="0.427083" stop-color="#388087"/>
<stop offset="1" stop-color="#5CB85C"/>
</linearGradient>
<linearGradient id="paint2_linear" x1="15.7522" y1="29.6062" x2="15.7522" y2="35.016" gradientUnits="userSpaceOnUse">
<stop offset="0.427083" stop-color="#388087"/>
<stop offset="1" stop-color="#5CB85C"/>
</linearGradient>
<linearGradient id="paint3_linear" x1="32.2317" y1="0.000366211" x2="32.2317" y2="31.5942" gradientUnits="userSpaceOnUse">
<stop offset="0.427083" stop-color="#388087"/>
<stop offset="1" stop-color="#5CB85C"/>
</linearGradient>
<linearGradient id="paint4_linear" x1="25.2147" y1="10.8992" x2="25.2147" y2="45.0929" gradientUnits="userSpaceOnUse">
<stop offset="0.427083" stop-color="#388087"/>
<stop offset="1" stop-color="#5CB85C"/>
</linearGradient>
<linearGradient id="paint5_linear" x1="41.5079" y1="45.187" x2="41.5079" y2="47.9995" gradientUnits="userSpaceOnUse">
<stop offset="0.427083" stop-color="#388087"/>
<stop offset="1" stop-color="#5CB85C"/>
</linearGradient>
</defs>
</svg>
