<svg version="1.2" baseProfile="tiny-ps" xmlns="http://www.w3.org/2000/svg" viewBox="0 0 1684 1191" width="1684" height="1191">
	<title>Nzukoor_1-pdf</title>
	<defs>
		<clipPath clipPathUnits="userSpaceOnUse" id="cp1">
			<path d="M0 0L1684 0L1684 1191L0 1191Z" />
		</clipPath>
	</defs>
	<style>
		tspan { white-space:pre }
		.shp0 { fill: #2a9d8e } 
		.shp1 { fill: #e9c46b } 
		.shp2 { fill: #f3a261 } 
		.shp3 { fill: #e66f51 } 
		.shp4 { fill: #008083 } 
	</style>
	<g id="Page 1" clip-path="url(#cp1)">
		<path id="Path 1" class="shp0" d="M664.51 687.71L541.65 687.71L603.82 597.77L549.23 597.77L549.23 566.57L669.92 566.57L605.5 654.78L664.51 654.78L664.51 687.71ZM683.96 566.57L683.96 628.41C683.96 642.08 685.06 652.24 687.28 658.83C689.45 665.43 693.17 671.28 698.37 676.4C703.74 681.77 710.41 685.78 718.4 688.4C726.43 691.06 735.81 692.37 746.62 692.37C757.35 692.37 766.68 691.06 774.63 688.4C782.61 685.78 789.37 681.77 794.98 676.4C800.18 671.45 803.87 665.63 806.04 658.96C808.21 652.28 809.28 642.08 809.28 628.41L809.28 566.57L768.49 566.57L768.49 631.19C768.49 641.3 766.81 648.64 763.45 653.18C760.09 657.69 754.64 659.94 747.11 659.94C739.49 659.94 734.04 657.73 730.73 653.3C727.41 648.84 725.73 641.47 725.73 631.19L725.73 566.57L683.96 566.57ZM711.73 508.08L748.79 550.1L767.26 550.1L745.43 508.08L711.73 508.08ZM825.81 687.71L825.81 501.7L867.83 501.7L867.83 619.48L911.86 566.57L964.89 566.57L910.42 624.84L969.81 687.71L913.54 687.71L867.83 633.85L867.83 687.71L825.81 687.71Z" />
		<path id="Path 2" fill-rule="evenodd" class="shp0" d="M1091.72 627.42C1091.72 636.15 1090 644.46 1086.6 652.28C1083.2 660.14 1078.29 667.19 1071.78 673.41C1065.23 679.64 1057.9 684.39 1049.79 687.58C1041.64 690.78 1033.04 692.37 1023.9 692.37C1014.61 692.37 1005.93 690.78 997.82 687.58C989.67 684.39 982.42 679.64 976.03 673.41C969.6 667.31 964.73 660.35 961.37 652.49C958.01 644.58 956.33 636.23 956.33 627.42C956.33 618.58 958.01 610.22 961.33 602.36C964.64 594.54 969.52 587.49 976.03 581.23C982.34 575.08 989.54 570.41 997.69 567.3C1005.8 564.19 1014.53 562.63 1023.9 562.63C1033.28 562.63 1042.01 564.19 1050.07 567.3C1058.14 570.41 1065.39 575.08 1071.78 581.23C1078.37 587.57 1083.33 594.66 1086.69 602.48C1090.04 610.3 1091.72 618.66 1091.72 627.42ZM1049.21 627.42C1049.21 618.41 1046.92 611.29 1042.37 606.09C1037.83 600.88 1031.64 598.26 1023.9 598.26C1016.08 598.26 1009.9 600.88 1005.35 606.09C1000.85 611.29 998.6 618.41 998.6 627.42C998.6 636.47 1000.85 643.6 1005.31 648.76C1009.78 653.92 1016 656.5 1023.9 656.5C1031.73 656.5 1037.91 653.92 1042.46 648.76C1046.96 643.6 1049.21 636.47 1049.21 627.42ZM1058.8 508.08L1021.73 550.1L1003.26 550.1L1025.09 508.08L1058.8 508.08ZM1242 627.42C1242 636.15 1240.28 644.46 1236.88 652.28C1233.48 660.14 1228.56 667.19 1222.05 673.41C1215.5 679.64 1208.17 684.39 1200.06 687.58C1191.91 690.78 1183.31 692.37 1174.18 692.37C1164.88 692.37 1156.2 690.78 1148.09 687.58C1139.94 684.39 1132.69 679.64 1126.3 673.41C1119.87 667.31 1115 660.35 1111.64 652.49C1108.28 644.58 1106.6 636.23 1106.6 627.42C1106.6 618.58 1108.28 610.22 1111.6 602.36C1114.92 594.54 1119.79 587.49 1126.3 581.23C1132.61 575.08 1139.82 570.41 1147.97 567.3C1156.08 564.19 1164.8 562.63 1174.18 562.63C1183.56 562.63 1192.28 564.19 1200.35 567.3C1208.41 570.41 1215.66 575.08 1222.05 581.23C1228.64 587.57 1233.6 594.66 1236.96 602.48C1240.32 610.3 1242 618.66 1242 627.42ZM1199.49 627.42C1199.49 618.41 1197.19 611.29 1192.65 606.09C1188.1 600.88 1181.92 598.26 1174.18 598.26C1166.36 598.26 1160.17 600.88 1155.63 606.09C1151.12 611.29 1148.87 618.41 1148.87 627.42C1148.87 636.47 1151.12 643.6 1155.58 648.76C1160.05 653.92 1166.27 656.5 1174.18 656.5C1182 656.5 1188.18 653.92 1192.73 648.76C1197.23 643.6 1199.49 636.47 1199.49 627.42ZM1209.07 508.08L1172.01 550.1L1153.54 550.1L1175.36 508.08L1209.07 508.08ZM1258.72 687.71L1258.72 566.57L1299.06 566.57L1299.06 595.11C1303.24 584.67 1308.89 576.89 1316.1 571.68C1323.3 566.48 1332.03 563.86 1342.27 563.86C1343.94 563.86 1345.66 563.9 1347.38 564.03C1349.1 564.15 1350.82 564.35 1352.59 564.6L1348.41 603.42C1345.87 602.56 1343.33 601.95 1340.87 601.54C1338.37 601.17 1336 600.97 1333.67 600.97C1323.3 600.97 1315.32 604.16 1309.67 610.51C1304.06 616.86 1301.23 625.87 1301.23 637.54L1301.23 687.71L1258.72 687.71Z" />
		<path id="Path 3" class="shp1" d="M396.19 649.01L363.68 667.79L331.16 686.56L331.16 649.01L331.16 611.47L363.68 630.24L396.19 649.01ZM331.13 575.1L363.65 593.87L396.17 612.65L396.17 575.1L396.17 537.55L363.65 556.33L331.13 575.1Z" />
		<path id="Path 4" class="shp2" d="M396.17 537.43L363.65 556.2L331.13 574.98L331.13 537.43L331.13 499.88L363.65 518.66L396.17 537.43Z" />
		<path id="Path 5" class="shp3" d="M396.06 612.52L428.58 631.29L461.09 650.06L461.09 612.52L461.09 574.97L428.58 593.74L396.06 612.52Z" />
		<path id="Path 6" class="shp2" d="M461.09 574.85L428.58 593.62L396.06 612.4L396.06 574.85L396.06 537.3L428.58 556.07L461.09 574.85Z" />
		<path id="Path 7" class="shp0" d="M461.1 650.16L493.61 668.93L526.13 687.71L526.13 650.16L526.13 612.61L493.61 631.38L461.1 650.16Z" />
		<path id="Path 8" class="shp4" d="M526.13 612.49L493.61 631.26L461.1 650.04L461.1 612.49L461.1 574.94L493.61 593.72L526.13 612.49Z" />
		<path id="Path 9" class="shp3" d="M460.98 541.37L493.5 560.15L526.01 578.92L526.01 541.37L526.01 503.83L493.5 522.6L460.98 541.37Z" />
	</g>
</svg>