<svg width="55" height="50" viewBox="0 0 55 50" fill="none" xmlns="http://www.w3.org/2000/svg">
<g clip-path="url(#clip0)">
<path d="M27.4845 5.23599C26.8574 5.23599 26.3485 4.72708 26.3485 4.10003V1.13595C26.3485 0.508907 26.8574 0 27.4845 0C28.1115 0 28.6204 0.508907 28.6204 1.13595V4.10003C28.6204 4.72708 28.1115 5.23599 27.4845 5.23599Z" fill="#388087"/>
<path d="M37.4369 9.35873C37.1461 9.35873 36.8553 9.24816 36.6342 9.02551C36.1904 8.58173 36.1904 7.8623 36.6342 7.41852L38.7304 5.32231C39.1742 4.87853 39.8936 4.87853 40.3374 5.32231C40.7812 5.76608 40.7812 6.48552 40.3374 6.9293L38.2412 9.02551C38.0185 9.24665 37.7277 9.35873 37.4369 9.35873Z" fill="#388087"/>
<path d="M44.5237 19.3112H41.5597C40.9326 19.3112 40.4237 18.8023 40.4237 18.1753C40.4237 17.5482 40.9326 17.0393 41.5597 17.0393H44.5237C45.1508 17.0393 45.6597 17.5482 45.6597 18.1753C45.6597 18.8023 45.1508 19.3112 44.5237 19.3112Z" fill="#388087"/>
<path d="M39.5331 31.3599C39.2423 31.3599 38.9515 31.2493 38.7304 31.0267L36.6342 28.9305C36.1904 28.4867 36.1904 27.7672 36.6342 27.3235C37.0779 26.8797 37.7974 26.8797 38.2412 27.3235L40.3374 29.4197C40.7812 29.8635 40.7812 30.5829 40.3374 31.0267C40.1147 31.2493 39.8239 31.3599 39.5331 31.3599Z" fill="#388087"/>
<path d="M15.4358 31.3599C15.145 31.3599 14.8542 31.2493 14.6331 31.0267C14.1893 30.5829 14.1893 29.8635 14.6331 29.4197L16.7293 27.3235C17.1731 26.8797 17.8925 26.8797 18.3363 27.3235C18.7801 27.7672 18.7801 28.4867 18.3363 28.9305L16.2401 31.0267C16.0174 31.2493 15.7266 31.3599 15.4358 31.3599Z" fill="#388087"/>
<path d="M13.4092 19.3112H10.4452C9.81811 19.3112 9.3092 18.8023 9.3092 18.1753C9.3092 17.5482 9.81811 17.0393 10.4452 17.0393H13.4092C14.0363 17.0393 14.5452 17.5482 14.5452 18.1753C14.5452 18.8023 14.0363 19.3112 13.4092 19.3112Z" fill="#388087"/>
<path d="M17.532 9.35873C17.2412 9.35873 16.9504 9.24816 16.7293 9.02551L14.6331 6.9293C14.1893 6.48552 14.1893 5.76608 14.6331 5.32231C15.0768 4.87853 15.7963 4.87853 16.2401 5.32231L18.3363 7.41852C18.7801 7.8623 18.7801 8.58173 18.3363 9.02551C18.1121 9.24665 17.8228 9.35873 17.532 9.35873Z" fill="#388087"/>
<path d="M32.0283 31.8067V33.7C32.0283 35.154 30.8318 36.3505 29.3777 36.3505H25.5912C24.319 36.3505 22.9407 35.3812 22.9407 33.2607V31.8067H32.0283Z" fill="#388087"/>
<path d="M34.1638 9.93581C31.6799 7.92139 28.4083 7.13379 25.2125 7.81536C21.1988 8.6484 17.9424 11.9199 17.1094 15.9336C16.2612 20.0534 17.8061 24.1428 21.1079 26.6419C22.0016 27.3083 22.6225 28.3383 22.8346 29.5348V29.5499C22.8649 29.5348 22.9103 29.5348 22.9406 29.5348H32.0282C32.0585 29.5348 32.0737 29.5348 32.104 29.5499V29.5348C32.316 28.3837 32.9976 27.3235 34.0427 26.5056C36.6023 24.476 38.0867 21.4468 38.0867 18.1753C38.0867 14.9643 36.6629 11.9654 34.1638 9.93581ZM33.1642 18.9326C32.5432 18.9326 32.0282 18.4176 32.0282 17.7966C32.0282 15.4944 30.1653 13.6314 27.8631 13.6314C27.2421 13.6314 26.7271 13.1165 26.7271 12.4955C26.7271 11.8745 27.2421 11.3595 27.8631 11.3595C31.4073 11.3595 34.3001 14.2524 34.3001 17.7966C34.3001 18.4176 33.7852 18.9326 33.1642 18.9326Z" fill="#388087"/>
<path d="M22.8347 29.5348H22.9407C22.9104 29.5348 22.8649 29.5348 22.8347 29.5499V29.5348Z" fill="#388087"/>
<path d="M32.104 29.5348V29.5499C32.0737 29.5348 32.0585 29.5348 32.0283 29.5348H32.104Z" fill="#388087"/>
</g>
<path d="M0.270032 48.0346V47.1622H4.0401L4.60094 46.591V45.0642L4.0401 44.493H1.08013L0 43.4129V41.4707L1.08013 40.3802H5.15139V41.2526H1.50595L0.934727 41.8239L0.945113 43.0909L1.50595 43.6622H4.46592L5.54605 44.7527V46.9441L4.46592 48.0346H0.270032Z" fill="#388087"/>
<path d="M7.04372 48.0346V40.3802H7.95768V44.5449H8.18617L10.3672 42.6028H11.572L9.22475 44.8046L11.7277 48.0346H10.6268L8.59122 45.3966L7.95768 45.9886V48.0346H7.04372Z" fill="#388087"/>
<path d="M12.6829 42.0108V40.7853H13.5969V42.0108H12.6829ZM12.6829 48.0346V42.6028H13.5969V48.0346H12.6829Z" fill="#388087"/>
<path d="M15.2895 48.0346V40.3802H16.2035V48.0346H15.2895Z" fill="#388087"/>
<path d="M17.8961 48.0346V40.3802H18.8101V48.0346H17.8961Z" fill="#388087"/>
<path d="M20.5027 48.0346V47.2764H23.3796L23.8678 46.7779V46.1236L23.3485 45.6043H21.1986L20.2431 44.6696V43.5687L21.1986 42.6028H24.2624V43.3713H21.6348L21.157 43.8387V44.3684L21.6556 44.8669H23.8262L24.7817 45.8016V47.0791L23.8366 48.0346H20.5027Z" fill="#388087"/>
<path d="M26.4736 49.9768V49.2186L29.4024 49.2082L29.9736 48.6474V47.183L29.1323 48.0346H27.1383L26.0477 46.9441V43.6933L27.1383 42.6028H29.1323L29.9736 43.4648V42.6028H30.8875V48.8862L29.797 49.9768H26.4736ZM28.9038 47.3076L29.9736 46.2275V44.4203L28.9038 43.3298H27.5329L26.9617 43.901V46.7364L27.5329 47.3076H28.9038Z" fill="#388087"/>
<path d="M33.6106 48.0346L32.5305 46.9441V42.6028H33.4444L33.434 46.726L33.9949 47.3076H35.345L36.4148 46.2378V42.6028H37.3287V48.0346H36.4148V47.1933L35.5839 48.0346H33.6106Z" fill="#388087"/>
<path d="M39.0228 48.0346V42.6028H39.9368V43.5791L40.8819 42.6028H42.2736V43.5167H40.9235L39.9368 44.5346V48.0346H39.0228Z" fill="#388087"/>
<path d="M44.2703 48.0346L43.1902 46.9441V42.6028H44.1041L44.0937 46.726L44.6546 47.3076H46.0047L47.0745 46.2378V42.6028H47.9884V48.0346H47.0745V47.1933L46.2436 48.0346H44.2703Z" fill="#388087"/>
<path d="M49.6825 48.0346V40.3802H50.5965V43.4648L51.4274 42.6028H53.4318L54.512 43.6933V48.0346H53.598V43.9218L53.0476 43.3298H51.6662L50.5965 44.4203V48.0346H49.6825Z" fill="#388087"/>
<defs>
<clipPath id="clip0">
<rect width="36.3505" height="36.3505" fill="white" transform="translate(9.3092)"/>
</clipPath>
</defs>
</svg>
