<svg width="48" height="48" viewBox="0 0 48 48" fill="none" xmlns="http://www.w3.org/2000/svg">
<path d="M29.0976 1.41211H18.9024C16.2531 1.41211 14.0977 3.56751 14.0977 6.21689V7.07226H16.9102V6.21689C16.9102 5.11833 17.8039 4.22461 18.9024 4.22461H29.0976C30.1961 4.22461 31.0898 5.11833 31.0898 6.21689V7.07226H33.9023V6.21689C33.9023 3.56761 31.7469 1.41211 29.0976 1.41211Z" fill="url(#paint0_linear)"/>
<path d="M25.418 25.4121V21.1699H22.582V25.4121C22.582 26.1887 21.9524 26.8184 21.1758 26.8184H16.9336V29.6543H21.1758C21.9524 29.6543 22.582 30.2839 22.582 31.0606V35.3027H25.418V31.0606C25.418 30.2839 26.0476 29.6543 26.8242 29.6543H31.0664V26.8184H26.8242C26.0476 26.8184 25.418 26.1888 25.418 25.4121Z" fill="url(#paint1_linear)"/>
<path d="M0 17.0332V39.4396C0 42.8999 2.47172 45.7931 5.74209 46.4483V10.0244C2.47172 10.6795 0 13.5728 0 17.0332Z" fill="url(#paint2_linear)"/>
<path d="M42.2579 10.0244V46.4483C45.5283 45.7931 48 42.8999 48 39.4395V17.0332C48 13.5728 45.5283 10.6795 42.2579 10.0244Z" fill="url(#paint3_linear)"/>
<path d="M39.4454 9.88489H8.55457V46.588H39.4454V9.88489ZM33.8789 31.0606C33.8789 31.8372 33.2493 32.4668 32.4726 32.4668H28.2304V36.709C28.2304 37.4856 27.6008 38.1153 26.8242 38.1153H21.1758C20.3991 38.1153 19.7695 37.4856 19.7695 36.709V32.4668H15.5273C14.7507 32.4668 14.1211 31.8372 14.1211 31.0606V25.4121C14.1211 24.6355 14.7507 24.0059 15.5273 24.0059H19.7695V19.7637C19.7695 18.9871 20.3991 18.3574 21.1758 18.3574H26.8242C27.6008 18.3574 28.2304 18.9871 28.2304 19.7637V24.0059H32.4726C33.2493 24.0059 33.8789 24.6355 33.8789 25.4121V31.0606Z" fill="url(#paint4_linear)"/>
<defs>
<linearGradient id="paint0_linear" x1="24" y1="1.41211" x2="24" y2="7.07226" gradientUnits="userSpaceOnUse">
<stop offset="0.369792" stop-color="#388087"/>
<stop offset="1" stop-color="#44EE74"/>
</linearGradient>
<linearGradient id="paint1_linear" x1="24" y1="21.1699" x2="24" y2="35.3027" gradientUnits="userSpaceOnUse">
<stop offset="0.369792" stop-color="#388087"/>
<stop offset="1" stop-color="#44EE74"/>
</linearGradient>
<linearGradient id="paint2_linear" x1="2.87105" y1="10.0244" x2="2.87105" y2="46.4483" gradientUnits="userSpaceOnUse">
<stop offset="0.369792" stop-color="#388087"/>
<stop offset="1" stop-color="#44EE74"/>
</linearGradient>
<linearGradient id="paint3_linear" x1="45.129" y1="10.0244" x2="45.129" y2="46.4483" gradientUnits="userSpaceOnUse">
<stop offset="0.369792" stop-color="#388087"/>
<stop offset="1" stop-color="#44EE74"/>
</linearGradient>
<linearGradient id="paint4_linear" x1="24" y1="9.88489" x2="24" y2="46.588" gradientUnits="userSpaceOnUse">
<stop offset="0.369792" stop-color="#388087"/>
<stop offset="1" stop-color="#44EE74"/>
</linearGradient>
</defs>
</svg>
