<svg width="48" height="48" viewBox="0 0 48 48" fill="none" xmlns="http://www.w3.org/2000/svg">
<path d="M8.90625 9.375C11.4951 9.375 13.5938 7.27633 13.5938 4.6875C13.5938 2.09867 11.4951 0 8.90625 0C6.31742 0 4.21875 2.09867 4.21875 4.6875C4.21875 7.27633 6.31742 9.375 8.90625 9.375Z" fill="url(#paint0_linear)"/>
<path d="M14.0865 10.1033C12.7389 11.3928 10.9142 12.1875 8.90625 12.1875C6.89831 12.1875 5.07356 11.3928 3.726 10.1033C1.47159 11.7208 0 14.3636 0 17.3438V20.1563C0 20.9329 0.629625 21.5625 1.40625 21.5625H2.57634C2.48484 22.3721 2.4375 23.187 2.4375 24C2.4375 25.0092 2.508 26.0111 2.64619 27.0011C3.30928 25.9979 4.20647 25.1632 5.25966 24.5744C5.25394 24.3833 5.25 24.1918 5.25 24C5.25 23.1866 5.30438 22.3706 5.40956 21.5625H16.4062C17.1829 21.5625 17.8125 20.9329 17.8125 20.1563V17.3438C17.8125 14.3636 16.3409 11.7208 14.0865 10.1033Z" fill="url(#paint1_linear)"/>
<path d="M39.0938 9.375C41.6826 9.375 43.7812 7.27633 43.7812 4.6875C43.7812 2.09867 41.6826 0 39.0938 0C36.5049 0 34.4062 2.09867 34.4062 4.6875C34.4062 7.27633 36.5049 9.375 39.0938 9.375Z" fill="url(#paint2_linear)"/>
<path d="M44.274 10.1033C42.9264 11.3928 41.1017 12.1875 39.0938 12.1875C37.0858 12.1875 35.2611 11.3928 33.9135 10.1033C31.6591 11.7208 30.1875 14.3636 30.1875 17.3438V20.1563C30.1875 20.9329 30.8171 21.5625 31.5938 21.5625H42.5904C42.6956 22.3706 42.75 23.1866 42.75 24C42.75 24.1918 42.7461 24.3833 42.7403 24.5745C43.7936 25.1632 44.6908 25.998 45.3539 27.0012C45.492 26.0111 45.5625 25.0092 45.5625 24C45.5625 23.187 45.5152 22.3721 45.4237 21.5625H46.5938C47.3704 21.5625 48 20.9329 48 20.1563V17.3438C48 14.3636 46.5284 11.7208 44.274 10.1033Z" fill="url(#paint3_linear)"/>
<path d="M39.0938 35.8125C41.6826 35.8125 43.7812 33.7138 43.7812 31.125C43.7812 28.5362 41.6826 26.4375 39.0938 26.4375C36.5049 26.4375 34.4062 28.5362 34.4062 31.125C34.4062 33.7138 36.5049 35.8125 39.0938 35.8125Z" fill="url(#paint4_linear)"/>
<path d="M44.274 36.5406C42.9264 37.8302 41.1017 38.6249 39.0938 38.6249C37.0858 38.6249 35.2611 37.8302 33.9135 36.5406C31.6591 38.1582 30.1875 40.8009 30.1875 43.7811V46.5937C30.1875 47.3703 30.8171 47.9999 31.5938 47.9999H46.5938C47.3704 47.9999 48 47.3703 48 46.5937V43.7811C48 40.8009 46.5284 38.1582 44.274 36.5406Z" fill="url(#paint5_linear)"/>
<path d="M8.90625 35.8125C11.4951 35.8125 13.5938 33.7138 13.5938 31.125C13.5938 28.5362 11.4951 26.4375 8.90625 26.4375C6.31742 26.4375 4.21875 28.5362 4.21875 31.125C4.21875 33.7138 6.31742 35.8125 8.90625 35.8125Z" fill="url(#paint6_linear)"/>
<path d="M14.0865 36.5406C12.7389 37.8302 10.9142 38.6249 8.90625 38.6249C6.89831 38.6249 5.07356 37.8302 3.726 36.5406C1.47159 38.1582 0 40.8009 0 43.7811V46.5937C0 47.3703 0.629625 47.9999 1.40625 47.9999H16.4062C17.1829 47.9999 17.8125 47.3703 17.8125 46.5937V43.7811C17.8125 40.8009 16.3409 38.1582 14.0865 36.5406Z" fill="url(#paint7_linear)"/>
<path d="M24 5.25C26.7801 5.25 29.49 5.8575 31.968 7.02309C31.7263 6.28744 31.5937 5.50294 31.5937 4.6875C31.5937 4.39847 31.6118 4.11366 31.6438 3.83297C29.22 2.91375 26.6375 2.4375 24 2.4375C21.3625 2.4375 18.78 2.91375 16.3562 3.83297C16.3881 4.11366 16.4062 4.39847 16.4062 4.6875C16.4062 5.50294 16.2737 6.28744 16.032 7.02309C18.51 5.8575 21.2198 5.25 24 5.25Z" fill="url(#paint8_linear)"/>
<path d="M20.5457 42.4316C20.5979 42.8772 20.6251 43.3277 20.6251 43.7813V45.2988C21.7344 45.4733 22.8609 45.5625 24.0001 45.5625C25.1392 45.5625 26.2657 45.4733 27.3751 45.2988V43.7813C27.3751 43.3277 27.4023 42.8772 27.4545 42.4316C26.3229 42.6426 25.1693 42.75 24.0001 42.75C22.8308 42.75 21.6772 42.6426 20.5457 42.4316Z" fill="url(#paint9_linear)"/>
<defs>
<linearGradient id="paint0_linear" x1="8.90625" y1="0" x2="8.90625" y2="9.375" gradientUnits="userSpaceOnUse">
<stop offset="0.541667" stop-color="#388087"/>
<stop offset="1" stop-color="#44EE74"/>
</linearGradient>
<linearGradient id="paint1_linear" x1="8.90625" y1="10.1033" x2="8.90625" y2="27.0011" gradientUnits="userSpaceOnUse">
<stop offset="0.541667" stop-color="#388087"/>
<stop offset="1" stop-color="#44EE74"/>
</linearGradient>
<linearGradient id="paint2_linear" x1="39.0938" y1="0" x2="39.0938" y2="9.375" gradientUnits="userSpaceOnUse">
<stop offset="0.541667" stop-color="#388087"/>
<stop offset="1" stop-color="#44EE74"/>
</linearGradient>
<linearGradient id="paint3_linear" x1="39.0938" y1="10.1033" x2="39.0938" y2="27.0012" gradientUnits="userSpaceOnUse">
<stop offset="0.541667" stop-color="#388087"/>
<stop offset="1" stop-color="#44EE74"/>
</linearGradient>
<linearGradient id="paint4_linear" x1="39.0938" y1="26.4375" x2="39.0938" y2="35.8125" gradientUnits="userSpaceOnUse">
<stop offset="0.541667" stop-color="#388087"/>
<stop offset="1" stop-color="#44EE74"/>
</linearGradient>
<linearGradient id="paint5_linear" x1="39.0938" y1="36.5406" x2="39.0938" y2="47.9999" gradientUnits="userSpaceOnUse">
<stop offset="0.541667" stop-color="#388087"/>
<stop offset="1" stop-color="#44EE74"/>
</linearGradient>
<linearGradient id="paint6_linear" x1="8.90625" y1="26.4375" x2="8.90625" y2="35.8125" gradientUnits="userSpaceOnUse">
<stop offset="0.541667" stop-color="#388087"/>
<stop offset="1" stop-color="#44EE74"/>
</linearGradient>
<linearGradient id="paint7_linear" x1="8.90625" y1="36.5406" x2="8.90625" y2="47.9999" gradientUnits="userSpaceOnUse">
<stop offset="0.541667" stop-color="#388087"/>
<stop offset="1" stop-color="#44EE74"/>
</linearGradient>
<linearGradient id="paint8_linear" x1="24" y1="2.4375" x2="24" y2="7.02309" gradientUnits="userSpaceOnUse">
<stop offset="0.541667" stop-color="#388087"/>
<stop offset="1" stop-color="#44EE74"/>
</linearGradient>
<linearGradient id="paint9_linear" x1="24.0001" y1="42.4316" x2="24.0001" y2="45.5625" gradientUnits="userSpaceOnUse">
<stop offset="0.541667" stop-color="#388087"/>
<stop offset="1" stop-color="#44EE74"/>
</linearGradient>
</defs>
</svg>
