<svg width="48" height="48" viewBox="0 0 48 48" fill="none" xmlns="http://www.w3.org/2000/svg">
<path d="M43.7812 25.4062C41.9482 25.4062 40.3851 26.5822 39.8045 28.2188H36.75V19.7812H39.8045C40.3851 21.4178 41.9482 22.5938 43.7812 22.5938C46.1072 22.5938 48 20.7009 48 18.375C48 16.0491 46.1072 14.1562 43.7812 14.1562C41.9482 14.1562 40.3851 15.3322 39.8045 16.9688H36.75V12.6562C36.75 11.88 36.12 11.25 35.3438 11.25H28.2188V5.625H32.6945C33.2751 7.26159 34.8382 8.4375 36.6712 8.4375C38.9981 8.4375 40.89 6.54469 40.89 4.21875C40.89 1.89281 38.9981 0 36.6712 0C34.8382 0 33.2751 1.17591 32.6945 2.8125H26.8125C26.0359 2.8125 25.4062 3.44212 25.4062 4.21875V11.25H22.5938V4.21875C22.5938 3.44212 21.9641 2.8125 21.1875 2.8125H15.3055C14.7249 1.17591 13.1617 0 11.3287 0C9.00187 0 7.11 1.89281 7.11 4.21875C7.11 6.54469 9.00187 8.4375 11.3287 8.4375C13.1617 8.4375 14.7249 7.26159 15.3055 5.625H19.7812V11.25H12.6562C11.88 11.25 11.25 11.88 11.25 12.6562V16.9688H8.19553C7.61494 15.3322 6.05175 14.1562 4.21875 14.1562C1.89281 14.1562 0 16.0491 0 18.375C0 20.7009 1.89281 22.5938 4.21875 22.5938C6.05175 22.5938 7.61494 21.4178 8.19553 19.7812H11.25V28.2188H8.19553C7.61494 26.5822 6.05175 25.4062 4.21875 25.4062C1.89281 25.4062 0 27.2991 0 29.625C0 31.9509 1.89281 33.8438 4.21875 33.8438C6.05175 33.8438 7.61494 32.6678 8.19553 31.0312H11.25V35.3438C11.25 36.12 11.88 36.75 12.6562 36.75H19.7812V42.375H15.3055C14.7249 40.7384 13.1617 39.5625 11.3287 39.5625C9.00187 39.5625 7.11 41.4553 7.11 43.7812C7.11 46.1072 9.00187 48 11.3287 48C13.1617 48 14.7249 46.8241 15.3055 45.1875H21.1875C21.9641 45.1875 22.5938 44.5579 22.5938 43.7812V36.75H25.4062V43.7812C25.4062 44.5579 26.0359 45.1875 26.8125 45.1875H32.6945C33.2751 46.8241 34.8382 48 36.6712 48C38.9981 48 40.89 46.1072 40.89 43.7812C40.89 41.4553 38.9981 39.5625 36.6712 39.5625C34.8382 39.5625 33.2751 40.7384 32.6945 42.375H28.2188V36.75H35.3438C36.12 36.75 36.75 36.12 36.75 35.3438V31.0312H39.8045C40.3851 32.6678 41.9482 33.8438 43.7812 33.8438C46.1072 33.8438 48 31.9509 48 29.625C48 27.2991 46.1072 25.4062 43.7812 25.4062ZM30.1931 28.9706C30.1931 29.6447 29.6447 30.1931 28.9706 30.1931H19.0294C18.3553 30.1931 17.8069 29.6447 17.8069 28.9706V19.0294C17.8069 18.3553 18.3553 17.8069 19.0294 17.8069H28.9706C29.6447 17.8069 30.1931 18.3553 30.1931 19.0294V28.9706Z" fill="url(#paint0_linear)"/>
<defs>
<linearGradient id="paint0_linear" x1="24" y1="0" x2="24" y2="48" gradientUnits="userSpaceOnUse">
<stop offset="0.369792" stop-color="#388087"/>
<stop offset="1" stop-color="#44EE74"/>
</linearGradient>
</defs>
</svg>
