<svg width="647" height="750" viewBox="0 0 647 750" fill="none" xmlns="http://www.w3.org/2000/svg">
<path d="M143.845 583.86C247.21 633.12 414.79 633.135 518.155 583.86C621.52 534.585 621.505 454.725 518.155 405.465C414.805 356.205 247.21 356.205 143.845 405.465C40.4798 454.725 40.4948 534.6 143.845 583.86Z" fill="#E76F51" fill-opacity="0.07"/>
<path d="M136 533.385L148.195 526.35C155.004 520.794 160.186 513.502 163.195 505.245C166.96 494.865 166.435 486.975 163.735 483.015C160.42 478.14 151.825 478.995 151.48 489.255C150.76 509.475 144.865 523.5 136 533.385Z" fill="#E76F51"/>
<path opacity="0.2" d="M136 533.385L148.195 526.35C155.004 520.794 160.186 513.502 163.195 505.245C166.96 494.865 166.435 486.975 163.735 483.015C160.42 478.14 151.825 478.995 151.48 489.255C150.76 509.475 144.865 523.5 136 533.385Z" fill="black"/>
<path d="M136 534.135C135.841 534.133 135.687 534.081 135.56 533.986C135.433 533.89 135.339 533.757 135.292 533.606C135.246 533.454 135.248 533.291 135.3 533.141C135.352 532.991 135.45 532.861 135.58 532.77C163.78 513.27 158.32 486.075 158.26 485.805C158.239 485.706 158.238 485.605 158.257 485.506C158.275 485.407 158.313 485.313 158.368 485.228C158.423 485.144 158.494 485.072 158.578 485.015C158.661 484.958 158.754 484.918 158.853 484.897C158.951 484.877 159.053 484.876 159.152 484.894C159.25 484.913 159.345 484.951 159.429 485.006C159.513 485.061 159.586 485.132 159.643 485.215C159.7 485.298 159.739 485.391 159.76 485.49C159.76 485.775 165.52 513.9 136.48 534C136.339 534.096 136.171 534.144 136 534.135Z" fill="white"/>
<path d="M111.565 547.5C111.565 547.5 107.32 544.05 108.34 539.37C109.36 534.69 112.105 531.33 107.41 525.3C102.715 519.27 101.41 511.23 107.02 506.88C111.295 503.505 117.97 508.275 120.37 499.38C122.14 492.87 121.54 478.455 129.835 473.655C138.13 468.855 143.335 476.085 142.03 485.865C140.89 494.61 139.27 503.025 140.53 505.365C142.96 509.865 147.115 509.25 146.92 517.47C146.755 525.12 139.51 531.45 139.51 531.45L111.565 547.5Z" fill="#E76F51"/>
<path d="M125.5 540.165C125.317 540.163 125.14 540.095 125.002 539.974C124.865 539.853 124.775 539.687 124.75 539.505C122.605 521.73 127.75 491.04 131.95 481.92C131.985 481.819 132.042 481.726 132.116 481.649C132.19 481.572 132.28 481.511 132.38 481.471C132.479 481.431 132.586 481.413 132.693 481.418C132.8 481.423 132.905 481.451 133 481.5C133.09 481.54 133.17 481.598 133.237 481.67C133.304 481.742 133.356 481.827 133.389 481.919C133.423 482.011 133.437 482.109 133.432 482.207C133.427 482.305 133.403 482.402 133.36 482.49C129.205 491.49 124.24 522.27 126.295 539.265C126.316 539.462 126.259 539.659 126.135 539.813C126.011 539.968 125.832 540.067 125.635 540.09L125.5 540.165Z" fill="white"/>
<path d="M125.095 526.32C124.98 526.326 124.866 526.3 124.765 526.245C119.56 523.71 116.26 514.665 116.125 514.245C116.088 514.152 116.071 514.052 116.073 513.952C116.075 513.851 116.098 513.753 116.139 513.661C116.18 513.57 116.24 513.488 116.313 513.42C116.387 513.352 116.473 513.299 116.568 513.265C116.662 513.231 116.762 513.216 116.862 513.221C116.962 513.226 117.06 513.252 117.151 513.296C117.241 513.339 117.321 513.401 117.387 513.476C117.453 513.552 117.504 513.64 117.535 513.735C117.535 513.825 120.76 522.585 125.425 524.85C125.578 524.924 125.701 525.048 125.775 525.201C125.848 525.355 125.867 525.529 125.829 525.694C125.79 525.86 125.697 526.008 125.564 526.113C125.43 526.219 125.265 526.276 125.095 526.275V526.32Z" fill="white"/>
<path d="M125.005 532.32C124.854 532.32 124.708 532.274 124.584 532.188C124.461 532.103 124.367 531.981 124.315 531.84C124.24 531.657 124.241 531.452 124.317 531.269C124.393 531.087 124.537 530.941 124.72 530.865C133.48 527.355 138.94 516.93 139 516.81C139.091 516.633 139.249 516.5 139.439 516.439C139.629 516.379 139.835 516.396 140.012 516.488C140.189 516.579 140.323 516.737 140.383 516.927C140.444 517.117 140.426 517.323 140.335 517.5C140.095 517.95 134.56 528.54 125.335 532.26C125.232 532.309 125.118 532.329 125.005 532.32Z" fill="white"/>
<path d="M431.2 451.62C431.2 451.62 424.645 441 424 429.465C423.355 417.93 425.89 413.13 429.37 411.75C432.85 410.37 433.12 414.615 434.905 417.12C436.69 419.625 440.335 418.2 441.685 410.385C443.035 402.57 447.955 389.385 458.185 386.82C469.435 384.03 463.405 397.23 460.57 402.375C457.735 407.52 455.545 414.54 457.405 416.445C459.265 418.35 462.16 414.825 464.905 418.095C468.25 422.04 457.855 436.245 451.885 439.68L431.2 451.62Z" fill="#E76F51"/>
<path d="M440.185 447.165C440.086 447.161 439.99 447.138 439.9 447.097C439.811 447.055 439.73 446.997 439.663 446.924C439.596 446.852 439.544 446.767 439.51 446.674C439.476 446.582 439.461 446.484 439.465 446.385C440.481 427.829 446.267 409.85 456.265 394.185C456.322 394.103 456.394 394.034 456.478 393.981C456.563 393.929 456.657 393.893 456.755 393.878C456.853 393.863 456.953 393.867 457.049 393.892C457.146 393.916 457.236 393.96 457.315 394.02C457.472 394.137 457.577 394.31 457.608 394.504C457.639 394.697 457.593 394.895 457.48 395.055C447.661 410.491 441.979 428.193 440.98 446.46C440.974 446.559 440.949 446.655 440.906 446.744C440.863 446.833 440.803 446.912 440.729 446.978C440.655 447.043 440.569 447.093 440.476 447.126C440.382 447.158 440.284 447.171 440.185 447.165Z" fill="white"/>
<path d="M441.04 438.3C440.914 438.299 440.791 438.268 440.68 438.21C436.48 435.885 434.155 428.985 434.065 428.7C434.032 428.606 434.018 428.507 434.023 428.408C434.029 428.309 434.054 428.212 434.097 428.123C434.14 428.034 434.201 427.954 434.275 427.888C434.349 427.822 434.436 427.772 434.53 427.74C434.719 427.679 434.925 427.695 435.102 427.785C435.279 427.875 435.413 428.031 435.475 428.22C435.475 428.22 437.725 434.865 441.475 436.89C441.645 436.99 441.769 437.153 441.822 437.343C441.876 437.533 441.853 437.736 441.76 437.91C441.692 438.039 441.587 438.145 441.459 438.215C441.331 438.284 441.185 438.314 441.04 438.3Z" fill="white"/>
<path d="M441.775 433.755C441.609 433.753 441.448 433.696 441.318 433.593C441.187 433.49 441.095 433.346 441.055 433.185C441.03 433.09 441.025 432.992 441.039 432.895C441.053 432.798 441.086 432.705 441.136 432.622C441.186 432.538 441.253 432.465 441.332 432.407C441.41 432.349 441.5 432.308 441.595 432.285C452.425 429.54 456.175 423.87 456.205 423.81C456.258 423.726 456.327 423.654 456.408 423.597C456.49 423.54 456.581 423.499 456.678 423.478C456.775 423.456 456.875 423.454 456.973 423.471C457.07 423.488 457.164 423.524 457.247 423.578C457.331 423.631 457.404 423.7 457.461 423.781C457.518 423.862 457.558 423.954 457.58 424.051C457.601 424.147 457.603 424.248 457.586 424.345C457.569 424.443 457.533 424.536 457.48 424.62C457.315 424.875 453.415 430.83 441.97 433.74L441.775 433.755Z" fill="white"/>
<path d="M268 428.31C268 428.31 253.615 424.8 252.865 397.86C252.07 368.79 256.39 334.86 239.365 332.115C222.34 329.37 212.89 350.115 213.1 374.34C213.295 395.55 221.845 441.6 267.94 450.63L268 428.31Z" fill="#E76F51"/>
<path opacity="0.2" d="M268 428.31C268 428.31 253.615 424.8 252.865 397.86C252.07 368.79 256.39 334.86 239.365 332.115C222.34 329.37 212.89 350.115 213.1 374.34C213.295 395.55 221.845 441.6 267.94 450.63L268 428.31Z" fill="black"/>
<path d="M268 447.87H267.865C257.5 445.98 249.055 440.265 242.77 430.905C224.14 403.11 230.005 351.21 231.94 342.15C231.983 341.957 232.1 341.788 232.265 341.679C232.43 341.57 232.63 341.529 232.825 341.565C233.019 341.612 233.188 341.731 233.297 341.898C233.406 342.066 233.446 342.269 233.41 342.465C231.505 351.465 225.67 402.705 244.015 430.065C246.685 434.308 250.208 437.95 254.36 440.759C258.512 443.568 263.203 445.484 268.135 446.385C268.233 446.403 268.326 446.44 268.409 446.495C268.493 446.549 268.564 446.619 268.62 446.702C268.676 446.784 268.715 446.877 268.735 446.974C268.754 447.072 268.754 447.172 268.735 447.27C268.703 447.441 268.612 447.595 268.477 447.704C268.343 447.814 268.174 447.873 268 447.87Z" fill="white"/>
<path d="M268 517.005C253.135 519.015 229 518.985 215.065 508.005C201.13 497.025 204.04 487.575 209.395 483.63C214.75 479.685 219.4 475.185 210.19 466.425C200.98 457.665 186.19 443.595 181.39 422.49C176.59 401.385 178.96 388.185 188.38 383.79C197.515 379.53 199.93 386.31 205.525 400.29C211.12 414.27 223.705 402.285 234.475 406.65C245.245 411.015 244.81 419.655 245.485 427.08C246.16 434.505 249.715 436.56 255.82 436.56C261.925 436.56 268 440.07 268 447.06V517.005Z" fill="#E76F51"/>
<path d="M268 492.495C267.936 492.509 267.869 492.509 267.805 492.495C267.16 492.315 251.785 487.845 229.39 467.28C205.54 445.38 194.29 412.53 194.17 412.2C194.112 412.011 194.13 411.807 194.22 411.631C194.309 411.455 194.463 411.32 194.65 411.255C194.837 411.193 195.041 411.207 195.218 411.294C195.395 411.381 195.53 411.534 195.595 411.72C195.7 412.05 206.845 444.54 230.41 466.17C252.49 486.465 268.045 491.01 268.21 491.055C268.304 491.083 268.393 491.128 268.469 491.19C268.546 491.252 268.61 491.328 268.657 491.414C268.705 491.501 268.735 491.596 268.745 491.693C268.756 491.791 268.747 491.89 268.72 491.985C268.671 492.136 268.575 492.268 268.445 492.36C268.315 492.452 268.159 492.499 268 492.495Z" fill="white"/>
<path d="M235.645 472.5C235.494 472.502 235.346 472.457 235.222 472.371C235.099 472.285 235.005 472.162 234.955 472.02C230.14 459.66 229.045 433.215 228.955 432.09C228.951 431.892 229.023 431.7 229.157 431.555C229.292 431.409 229.477 431.322 229.675 431.31C229.871 431.313 230.059 431.388 230.203 431.521C230.346 431.654 230.436 431.835 230.455 432.03C230.455 432.3 231.58 459.345 236.305 471.48C236.341 471.573 236.358 471.671 236.356 471.771C236.354 471.87 236.332 471.968 236.291 472.058C236.251 472.149 236.193 472.231 236.12 472.299C236.048 472.367 235.963 472.42 235.87 472.455C235.797 472.481 235.722 472.496 235.645 472.5Z" fill="white"/>
<path d="M235.525 490.275C234.142 490.286 232.76 490.216 231.385 490.065C231.287 490.053 231.191 490.022 231.105 489.974C231.018 489.925 230.942 489.86 230.881 489.782C230.82 489.704 230.775 489.614 230.748 489.519C230.721 489.423 230.713 489.324 230.725 489.225C230.737 489.127 230.768 489.031 230.817 488.945C230.865 488.858 230.93 488.782 231.008 488.721C231.086 488.66 231.176 488.614 231.271 488.588C231.367 488.561 231.467 488.553 231.565 488.565C231.7 488.565 245.665 490.155 252.07 483.63C252.137 483.551 252.219 483.487 252.312 483.441C252.405 483.395 252.506 483.369 252.609 483.365C252.712 483.36 252.815 483.377 252.912 483.414C253.008 483.451 253.096 483.507 253.17 483.58C253.243 483.652 253.301 483.739 253.339 483.835C253.378 483.931 253.396 484.034 253.393 484.138C253.389 484.241 253.365 484.342 253.321 484.436C253.276 484.529 253.213 484.612 253.135 484.68C248.5 489.465 240.415 490.275 235.525 490.275Z" fill="white"/>
<path d="M224.725 206.235L223.105 196.89L214.765 202.38C214.003 200.88 212.923 199.565 211.6 198.525L215.59 187.725L208.09 186.06L202.6 196.56C200.614 196.895 198.688 197.522 196.885 198.42L194.5 190.5L185.59 197.505L186.175 206.805C184.361 208.837 182.715 211.015 181.255 213.315L173.905 212.94L168.745 224.505L175.06 227.205C174.401 229.597 173.984 232.049 173.815 234.525L165.79 241.905L167.395 251.265L175.75 245.775C176.508 247.274 177.589 248.585 178.915 249.615L175 260.43L182.5 262.08L190.36 254.43C192.175 254.145 191.725 250.725 193.705 249.75L196.09 257.64L204.985 250.65L204.76 246.99C206.56 244.98 213.37 240.555 214.84 238.245L216.685 235.245L221.845 223.68L219.445 219.33L216.775 213.66L224.725 206.235ZM197.5 237C190.66 242.37 188.5 243.555 187.345 236.37C186.19 229.185 190.105 218.265 196.945 212.88C203.785 207.495 206.395 207.12 207.625 214.29C208.855 221.46 204.355 231.69 197.5 237Z" fill="black"/>
<path d="M208.15 186.06L217.885 191.67L212.395 202.14L202.66 196.53L208.15 186.06Z" fill="black"/>
<path d="M232.84 202.5L224.5 207.99L214.765 202.38L223.105 196.89L232.84 202.5Z" fill="black"/>
<path d="M231.505 229.245L225.19 226.56L215.455 220.95L221.77 223.635L231.505 229.245Z" fill="black"/>
<path d="M174.985 260.43L184.72 266.025L188.71 255.225L178.975 249.615L174.985 260.43Z" fill="black"/>
<path d="M205.735 263.25L196.015 257.64L193.63 249.75L203.365 255.36L205.735 263.25Z" fill="black"/>
<path d="M234.445 211.845L232.84 202.5L224.5 207.99C223.732 206.489 222.647 205.174 221.32 204.135L225.31 193.335L217.885 191.67L212.38 202.17C210.394 202.505 208.468 203.132 206.665 204.03L204.295 196.14L195.385 203.145L195.97 212.445C194.154 214.492 192.508 216.684 191.05 219L183.685 218.625L178.525 230.19L184.84 232.89C184.187 235.289 183.77 237.745 183.595 240.225L175.585 247.5L177.19 256.86L185.53 251.37C186.298 252.866 187.383 254.177 188.71 255.21L184.72 266.01L192.22 267.675L197.71 257.175C199.704 256.844 201.636 256.211 203.44 255.3L205.81 263.19L214.72 256.2L214.135 246.9C215.949 244.868 217.595 242.69 219.055 240.39L226.42 240.75L231.58 229.185L225.175 226.5C225.839 224.103 226.261 221.646 226.435 219.165L234.445 211.845ZM207.25 242.67C200.425 248.04 193.885 246.585 192.64 239.415C191.395 232.245 195.94 222.06 202.78 216.69C209.62 211.32 216.145 212.79 217.39 219.96C218.635 227.13 214.09 237.3 207.25 242.67Z" fill="black"/>
<path d="M204.295 196.11L194.56 190.5L185.65 197.505L195.385 203.115L204.295 196.11Z" fill="black"/>
<path d="M185.65 197.505L186.235 206.805L195.97 212.415L195.385 203.115L185.65 197.505Z" fill="black"/>
<path d="M191.05 218.925L181.315 213.315L173.965 212.955L183.685 218.565L191.05 218.925Z" fill="black"/>
<path d="M173.965 212.955L168.805 224.505L178.525 230.115L183.685 218.565L173.965 212.955Z" fill="black"/>
<path d="M183.595 240.135L173.875 234.525L165.85 241.905L175.57 247.515L183.595 240.135Z" fill="black"/>
<path d="M177.19 256.875L167.455 251.265L165.85 241.905L175.57 247.515L177.19 256.875Z" fill="black"/>
<path d="M217.885 191.67L208.15 186.06L215.59 187.725L225.31 193.335L217.885 191.67Z" fill="black"/>
<path d="M181.135 163.815V149.85L170.02 154.86C169.431 152.491 168.415 150.249 167.02 148.245L174.025 134.13L165.475 129.195L156.745 142.32C154.312 142.107 151.861 142.346 149.515 143.025L148.285 130.89L136.195 137.88L134.98 151.38C132.349 153.711 129.93 156.271 127.75 159.03L119.02 156.03L110.47 170.85L117.46 176.85C116.169 180.116 115.165 183.489 114.46 186.93L103.345 194.745V208.725L114.46 203.715C115.049 206.084 116.066 208.326 117.46 210.33L110.5 224.46L119.05 229.395L127.78 216.27C130.213 216.482 132.664 216.243 135.01 215.565L136.225 227.7L148.315 220.71L149.545 207.21C153.319 205.833 156.661 203.484 159.235 200.4L165.505 202.605L174.055 187.8L168.805 183.3C169.945 179.548 170.367 175.614 170.05 171.705L181.135 163.815ZM142.24 198.705C132.97 204.06 127.24 200.205 127.24 189.54C127.24 178.875 134.905 165.69 144.19 160.335C153.475 154.98 159.085 158.835 159.085 169.59C159.085 180.345 151.525 193.335 142.24 198.705Z" fill="black"/>
<path d="M175.195 134.79L165.475 129.195L156.745 142.32L166.465 147.93L175.195 134.79Z" fill="black"/>
<path d="M190.87 155.46L181.135 149.85L170.02 154.86L179.755 160.47L190.87 155.46Z" fill="black"/>
<path d="M145.915 233.31L136.195 227.7L134.98 215.565L144.7 221.175L145.915 233.31Z" fill="black"/>
<path d="M110.455 224.46L120.19 230.07L127.195 215.955L117.46 210.345L110.455 224.46Z" fill="black"/>
<path d="M190.87 169.5V155.535L179.755 160.5C179.173 158.129 178.155 155.886 176.755 153.885L183.76 139.77L175.21 134.82L166.48 147.96C164.047 147.74 161.595 147.979 159.25 148.665L158.02 136.5L145.93 143.49L144.7 156.99C142.073 159.325 139.654 161.885 137.47 164.64L128.74 161.64L120.19 176.46L127.195 182.46C125.897 185.724 124.893 189.097 124.195 192.54L113.08 200.355V214.335L124.195 209.325C124.777 211.697 125.795 213.94 127.195 215.94L120.19 230.055L128.74 234.99L137.47 221.865C139.903 222.078 142.354 221.839 144.7 221.16L145.93 233.295L158.02 226.305L159.235 212.805C161.866 210.474 164.286 207.914 166.465 205.155L175.195 208.155L183.745 193.35L176.74 187.35C178.038 184.086 179.042 180.713 179.74 177.27L190.87 169.5ZM151.975 204.39C142.69 209.745 135.16 205.395 135.16 194.685C135.16 183.975 142.66 170.94 151.975 165.57C161.29 160.2 168.775 164.565 168.775 175.275C168.775 185.985 161.245 198.945 151.975 204.315V204.39Z" fill="black"/>
<path d="M127.75 159.06L137.47 164.67L128.74 161.625L119.02 156L127.75 159.06Z" fill="black"/>
<path d="M119.019 156.015L110.467 170.84L120.199 176.454L128.751 161.629L119.019 156.015Z" fill="black"/>
<path d="M110.455 170.82L120.19 176.43L127.195 182.46L117.46 176.865L110.455 170.82Z" fill="black"/>
<path d="M114.46 186.945L124.195 192.555L113.08 200.37L103.345 194.76L114.46 186.945Z" fill="black"/>
<path d="M103.345 194.76L113.08 200.37V214.35L103.345 208.74V194.76Z" fill="black"/>
<path d="M158.02 136.5L148.285 130.89L136.195 137.88L145.915 143.49L158.02 136.5Z" fill="black"/>
<path d="M282.82 537.075L423.82 455.655C424.13 455.546 424.4 455.343 424.59 455.074C424.78 454.805 424.882 454.484 424.882 454.155C424.882 453.826 424.78 453.505 424.59 453.236C424.4 452.967 424.13 452.764 423.82 452.655L410.785 445.155C409.977 444.749 409.086 444.537 408.182 444.537C407.278 444.537 406.387 444.749 405.58 445.155L264.535 526.5C264.224 526.609 263.955 526.812 263.765 527.081C263.574 527.35 263.472 527.671 263.472 528C263.472 528.329 263.574 528.65 263.765 528.919C263.955 529.188 264.224 529.391 264.535 529.5L277.615 537C278.416 537.418 279.305 537.642 280.208 537.655C281.112 537.668 282.007 537.47 282.82 537.075Z" fill="#E0E0E0"/>
<path d="M419.95 141.3L292.81 214.71C290.92 215.943 289.347 217.605 288.219 219.559C287.09 221.514 286.438 223.707 286.315 225.96V527.565C286.315 531.705 289.225 533.385 292.81 531.315L419.95 457.905C421.842 456.674 423.417 455.014 424.546 453.059C425.675 451.103 426.325 448.909 426.445 446.655V145.05C426.445 140.91 423.55 139.23 419.95 141.3Z" fill="black"/>
<path d="M292.81 214.71L419.95 141.3C423.16 139.44 425.815 140.595 426.355 143.82C426.055 141.792 425.329 139.851 424.225 138.124C423.121 136.397 421.664 134.923 419.95 133.8L414.67 130.8C412.657 129.779 410.432 129.247 408.175 129.247C405.918 129.247 403.692 129.779 401.68 130.8L274.525 204.15C272.609 205.351 271.03 207.018 269.935 208.995L288.22 219.495C289.315 217.533 290.895 215.886 292.81 214.71Z" fill="black"/>
<path d="M268 517.005C268.123 519.259 268.775 521.451 269.904 523.406C271.032 525.36 272.605 527.022 274.495 528.255L279.79 531.255C281.623 532.172 283.628 532.691 285.676 532.779C287.723 532.867 289.766 532.521 291.67 531.765C288.67 532.935 286.285 531.21 286.285 527.505V225.96C286.36 223.697 287.016 221.491 288.19 219.555L269.905 209.055C268.748 210.977 268.092 213.159 268 215.4V517.005Z" fill="#263238"/>
<path d="M296.305 254.895L416.5 185.52C418.66 184.29 420.4 185.295 420.4 187.77V411C420.328 412.353 419.937 413.67 419.259 414.843C418.581 416.016 417.636 417.012 416.5 417.75L296.35 487.125C294.19 488.37 292.45 487.365 292.45 484.875V261.645C292.518 260.296 292.902 258.983 293.572 257.81C294.242 256.638 295.178 255.639 296.305 254.895Z" fill="white"/>
<path d="M356.38 189.435C355.716 189.871 355.164 190.456 354.768 191.144C354.372 191.831 354.143 192.603 354.1 193.395C354.1 194.895 355.12 195.45 356.38 194.715C357.046 194.282 357.599 193.698 357.996 193.009C358.392 192.321 358.62 191.548 358.66 190.755C358.66 189.3 357.64 188.715 356.38 189.435Z" fill="black"/>
<path d="M356.38 463.11C353.758 464.825 351.576 467.134 350.013 469.85C348.449 472.565 347.547 475.611 347.38 478.74C347.38 484.485 351.415 486.825 356.38 483.945C359.001 482.229 361.182 479.92 362.745 477.204C364.309 474.489 365.211 471.444 365.38 468.315C365.41 462.57 361.36 460.23 356.38 463.11Z" fill="black"/>
<path d="M334.795 212.655C333.477 213.53 332.383 214.703 331.601 216.079C330.819 217.454 330.372 218.995 330.295 220.575C330.295 223.485 332.335 224.67 334.795 223.215C336.127 222.348 337.236 221.179 338.031 219.803C338.826 218.427 339.285 216.882 339.37 215.295C339.37 212.385 337.33 211.2 334.795 212.655Z" fill="black"/>
<path d="M346 211.665C346 213.615 347.5 214.35 349.255 213.315L379.255 195.96C380.184 195.38 380.963 194.588 381.529 193.65C382.095 192.711 382.431 191.653 382.51 190.56C382.51 188.625 381.01 187.89 379.255 188.925L349.255 206.28C348.328 206.859 347.55 207.648 346.984 208.584C346.419 209.519 346.082 210.575 346 211.665Z" fill="black"/>
<path d="M278.14 264.555C279.204 265.248 280.09 266.183 280.726 267.283C281.362 268.382 281.73 269.617 281.8 270.885C281.8 273.225 280.165 274.17 278.14 273C277.079 272.304 276.196 271.369 275.563 270.269C274.93 269.17 274.564 267.937 274.495 266.67C274.495 264.345 276.13 263.4 278.14 264.555Z" fill="black"/>
<path d="M278.14 292.725C279.204 293.418 280.09 294.353 280.726 295.453C281.362 296.552 281.73 297.787 281.8 299.055C281.8 301.38 280.165 302.325 278.14 301.17C277.079 300.474 276.196 299.539 275.563 298.439C274.93 297.34 274.564 296.107 274.495 294.84C274.495 292.5 276.13 291.555 278.14 292.725Z" fill="black"/>
<path d="M277 265.125C278.064 265.818 278.95 266.753 279.586 267.853C280.222 268.952 280.59 270.187 280.66 271.455C280.66 273.78 279.025 274.725 277 273.57C275.935 272.877 275.049 271.942 274.413 270.842C273.777 269.743 273.41 268.508 273.34 267.24C273.355 264.9 274.99 264 277 265.125Z" fill="black"/>
<path d="M277 293.28C278.066 293.975 278.954 294.912 279.59 296.014C280.226 297.117 280.592 298.354 280.66 299.625C280.66 301.95 279.025 302.895 277 301.725C275.933 301.034 275.045 300.1 274.409 299C273.772 297.9 273.406 296.664 273.34 295.395C273.355 293.07 274.99 292.125 277 293.28Z" fill="black"/>
<path d="M444.73 194.835C444.73 192.345 442.99 191.34 440.83 192.585L426.445 200.88L320.68 261.96C319.544 262.698 318.598 263.694 317.92 264.867C317.243 266.04 316.852 267.357 316.78 268.71V491.88C316.78 494.37 318.52 495.375 320.68 494.13L426.49 433.035L440.83 424.755C441.966 424.017 442.911 423.021 443.589 421.848C444.267 420.674 444.658 419.358 444.73 418.005V194.835Z" fill="white"/>
<path d="M446.23 194.835C446.324 194.083 446.195 193.319 445.858 192.64C445.52 191.961 444.991 191.397 444.334 191.017C443.678 190.638 442.924 190.461 442.167 190.507C441.411 190.554 440.685 190.823 440.08 191.28L426.355 199.215L319.93 260.715C318.56 261.58 317.42 262.765 316.61 264.168C315.8 265.572 315.344 267.151 315.28 268.77V491.88C315.22 492.629 315.364 493.38 315.697 494.054C316.029 494.727 316.539 495.298 317.17 495.705C317.707 496.017 318.319 496.178 318.94 496.17C319.819 496.143 320.677 495.889 321.43 495.435L427.93 433.935L441.625 426.03C442.987 425.157 444.12 423.97 444.93 422.568C445.739 421.167 446.2 419.592 446.275 417.975L446.23 194.835ZM426.385 431.37L425.155 432.09L319.99 492.81C319.813 492.946 319.608 493.041 319.39 493.087C319.172 493.134 318.947 493.131 318.73 493.08C318.535 492.96 318.34 492.54 318.34 491.85V268.71C318.418 267.621 318.741 266.564 319.287 265.618C319.833 264.672 320.586 263.862 321.49 263.25L426.55 202.5L441.55 193.815C441.727 193.679 441.932 193.585 442.149 193.538C442.367 193.491 442.593 193.494 442.81 193.545C443.005 193.665 443.2 194.085 443.2 194.775V418.005C443.122 419.094 442.798 420.151 442.253 421.097C441.707 422.043 440.954 422.853 440.05 423.465L426.355 431.37H426.385Z" fill="#2A9D8F"/>
<path d="M380.755 246.69C394.255 238.92 405.13 245.19 405.13 260.775C405.13 276.36 394.21 295.275 380.755 302.985C367.3 310.695 356.38 304.485 356.38 288.915C356.38 273.345 367.3 254.475 380.755 246.69Z" fill="#2A9D8F"/>
<path d="M380.755 258.93C385.12 256.41 388.66 258.45 388.66 263.43C388.511 266.173 387.718 268.843 386.345 271.223C384.971 273.602 383.056 275.624 380.755 277.125C376.39 279.645 372.85 277.605 372.85 272.625C372.998 269.882 373.791 267.212 375.164 264.832C376.538 262.453 378.453 260.431 380.755 258.93Z" fill="#2A9D8F"/>
<path d="M396.16 285.81C396.16 277.53 390.355 274.17 383.17 278.31L378.67 280.905C371.5 285.045 365.68 295.125 365.68 303.405V305.64C369.835 307.005 375.055 306.27 380.68 302.985C386.911 299.141 392.18 293.923 396.085 287.73L396.16 285.81Z" fill="#2A9D8F"/>
<path opacity="0.7" d="M380.755 258.93C385.12 256.41 388.66 258.45 388.66 263.43C388.511 266.173 387.718 268.843 386.345 271.223C384.971 273.602 383.056 275.624 380.755 277.125C376.39 279.645 372.85 277.605 372.85 272.625C372.998 269.882 373.791 267.212 375.164 264.832C376.538 262.453 378.453 260.431 380.755 258.93Z" fill="white"/>
<path opacity="0.7" d="M396.16 285.81C396.16 277.53 390.355 274.17 383.17 278.31L378.67 280.905C371.5 285.045 365.68 295.125 365.68 303.405V305.64C369.835 307.005 375.055 306.27 380.68 302.985C386.911 299.141 392.18 293.923 396.085 287.73L396.16 285.81Z" fill="white"/>
<path d="M333.595 337.26L364.96 319.155C366.46 318.33 367.555 318.99 367.555 320.655V321.69C367.507 322.591 367.248 323.469 366.797 324.251C366.346 325.033 365.716 325.697 364.96 326.19L333.595 344.295C332.17 345.12 331 344.445 331 342.795V341.76C331.049 340.859 331.309 339.982 331.76 339.2C332.211 338.418 332.839 337.754 333.595 337.26Z" fill="#2A9D8F"/>
<path opacity="0.1" d="M333.595 337.26L364.96 319.155C366.46 318.33 367.555 318.99 367.555 320.655V321.69C367.507 322.591 367.248 323.469 366.797 324.251C366.346 325.033 365.716 325.697 364.96 326.19L333.595 344.295C332.17 345.12 331 344.445 331 342.795V341.76C331.049 340.859 331.309 339.982 331.76 339.2C332.211 338.418 332.839 337.754 333.595 337.26Z" fill="black"/>
<path d="M332.305 359.115L427.195 304.335C427.9 303.915 428.485 304.245 428.485 305.085V316.155C428.459 316.604 428.328 317.041 428.105 317.432C427.881 317.822 427.569 318.155 427.195 318.405L332.305 373.185C331.585 373.605 331 373.26 331 372.435V361.365C331.026 360.914 331.157 360.475 331.384 360.084C331.611 359.693 331.926 359.361 332.305 359.115Z" fill="#2A9D8F"/>
<path opacity="0.2" d="M332.305 359.115L427.195 304.335C427.9 303.915 428.485 304.245 428.485 305.085V316.155C428.459 316.604 428.328 317.041 428.105 317.432C427.881 317.822 427.569 318.155 427.195 318.405L332.305 373.185C331.585 373.605 331 373.26 331 372.435V361.365C331.026 360.914 331.157 360.475 331.384 360.084C331.611 359.693 331.926 359.361 332.305 359.115Z" fill="white"/>
<path d="M333.595 386.505L364.96 368.4C366.46 367.575 367.555 368.25 367.555 369.9V370.935C367.509 371.837 367.249 372.715 366.798 373.497C366.347 374.279 365.717 374.943 364.96 375.435L333.595 393.54C332.17 394.38 331 393.705 331 392.04V391.005C331.051 390.104 331.312 389.228 331.763 388.447C332.214 387.665 332.841 387 333.595 386.505Z" fill="#2A9D8F"/>
<path opacity="0.1" d="M333.595 386.505L364.96 368.4C366.46 367.575 367.555 368.25 367.555 369.9V370.935C367.509 371.837 367.249 372.715 366.798 373.497C366.347 374.279 365.717 374.943 364.96 375.435L333.595 393.54C332.17 394.38 331 393.705 331 392.04V391.005C331.051 390.104 331.312 389.228 331.763 388.447C332.214 387.665 332.841 387 333.595 386.505Z" fill="black"/>
<path d="M332.305 408.36L427.195 353.58C427.9 353.16 428.485 353.505 428.485 354.33V365.4C428.459 365.849 428.328 366.286 428.105 366.677C427.881 367.067 427.569 367.4 427.195 367.65L332.305 422.43C331.585 422.85 331 422.52 331 421.68V410.61C331.026 410.159 331.157 409.72 331.384 409.329C331.611 408.938 331.926 408.606 332.305 408.36Z" fill="#2A9D8F"/>
<path opacity="0.2" d="M332.305 408.36L427.195 353.58C427.9 353.16 428.485 353.505 428.485 354.33V365.4C428.459 365.849 428.328 366.286 428.105 366.677C427.881 367.067 427.569 367.4 427.195 367.65L332.305 422.43C331.585 422.85 331 422.52 331 421.68V410.61C331.026 410.159 331.157 409.72 331.384 409.329C331.611 408.938 331.926 408.606 332.305 408.36Z" fill="white"/>
<path d="M370.15 414.645L407.65 393.03C409.15 392.19 410.26 392.865 410.26 394.53V406.11C410.21 407.013 409.948 407.891 409.495 408.673C409.041 409.455 408.409 410.119 407.65 410.61L370.15 432.24C368.65 433.065 367.555 432.39 367.555 430.74V419.145C367.607 418.245 367.869 417.369 368.319 416.588C368.77 415.806 369.397 415.141 370.15 414.645Z" fill="#2A9D8F"/>
<path opacity="0.1" d="M370.15 414.645L407.65 393.03C409.15 392.19 410.26 392.865 410.26 394.53V406.11C410.21 407.013 409.948 407.891 409.495 408.673C409.041 409.455 408.409 410.119 407.65 410.61L370.15 432.24C368.65 433.065 367.555 432.39 367.555 430.74V419.145C367.607 418.245 367.869 417.369 368.319 416.588C368.77 415.806 369.397 415.141 370.15 414.645Z" fill="black"/>
<path d="M458.95 365.775C458.95 365.775 440.53 340.365 439.45 337.275C438.595 334.995 439.45 331.605 439.72 330.03C439.99 328.455 440.23 324.945 440.5 324.03C440.95 322.32 438.745 322.665 437.5 324.225C436.255 325.785 435.835 328.905 435.19 329.415C434.545 329.925 429.64 322.77 427.075 319.47C424.51 316.17 422.905 314.16 421.33 315.39C420.205 316.275 421.045 318.195 422.905 321.015C423.991 322.533 424.993 324.111 425.905 325.74C426.19 326.355 424.66 326.4 423.835 327.675C423.19 328.665 423.835 330.27 422.935 331.035C422.381 331.456 422.002 332.067 421.869 332.75C421.736 333.434 421.859 334.142 422.215 334.74C423.885 337.362 426.038 339.643 428.56 341.46C431.32 343.365 432.43 344.04 434.065 346.635C435.7 349.23 450.37 375.735 451.36 377.325C452.35 378.915 454.255 382.155 457.15 382.245C460.045 382.335 483.745 361.935 484.96 360.915C488.86 357.66 490.105 357.195 490.765 360.12C490.993 361.16 491.163 362.211 491.275 363.27C491.74 366.99 494.275 380.28 494.275 380.28C494.275 380.28 506.275 386.085 516.13 383.28C525.985 380.475 529.315 376.29 529.315 376.29L524.38 368.25C525.715 364.935 531.88 351.495 533.875 342.09L502.975 337.095C502.345 336.96 501.325 336.705 499.975 336.36C498.28 335.91 493.975 334.425 490.72 337.275C480.1 346.53 458.98 365.775 458.98 365.775" fill="#FFA8A7"/>
<path d="M520.21 521.685L514.675 529.38C517.191 530.555 519.939 531.144 522.715 531.105C527.68 531.285 529.045 529.605 529.225 529.275C530.065 527.475 528.76 524.235 528.4 521.445L520.21 521.685Z" fill="#37474F"/>
<path d="M514.99 525.69C514.99 525.69 508.27 525.255 503.635 524.685C499 524.115 495.325 526.365 496.405 528.27C497.485 530.175 500.05 531.765 504.04 533.1C507.445 534.255 511.54 535.08 515.08 536.1C518.62 537.12 521.08 538.455 523.135 537.735C525.43 536.94 526.42 536.025 526.225 534.345C525.724 531.955 525.104 529.592 524.365 527.265L514.99 525.69Z" fill="#37474F"/>
<path d="M529.225 513.96C529.225 513.96 528.385 520.95 528.325 522.45C528.265 523.95 521.5 524.43 520.21 521.685L520 513.135L529.225 513.96Z" fill="#F28F8F"/>
<path d="M522.415 518.25L524.83 528.87C524.83 528.87 525.055 530.16 519.535 530.985C514.015 531.81 505.345 528.09 503.86 527.34C502.375 526.59 502.21 525.075 507.64 525.375C513.07 525.675 514.99 525.69 514.99 525.69L513.22 520.995L522.415 518.25Z" fill="#FFA8A7"/>
<path d="M533.785 342L537.61 340.935C537.61 340.935 545.605 366.24 546.49 368.685C547.375 371.13 548.38 373.71 546.655 376.725C544.6 380.31 533.785 394.725 533.785 394.725L526.915 388.005L534.715 373.725L527.815 359.775L533.785 342Z" fill="#F28F8F"/>
<path d="M494.5 309.135C493.603 307.452 493.148 305.568 493.177 303.661C493.206 301.754 493.718 299.886 494.665 298.23C498.475 291.165 506.965 287.73 517.075 289.035C521.755 289.65 527.275 293.535 530.29 299.34C533.62 305.775 533.935 318.735 534.79 323.64L494.5 309.135Z" fill="#37474F"/>
<path d="M494.23 311.91C494.23 311.91 491.83 316.485 492.25 316.905C492.872 317.268 493.552 317.522 494.26 317.655L494.23 311.91Z" fill="#FFA8A7"/>
<path d="M501.52 297.45C498.91 299.145 494.41 302.265 494.215 312.54C494.005 323.04 495.505 326.505 497.065 327.72C498.115 328.545 504.28 328.125 506.92 327.51C509.56 326.895 517.165 323.13 519.91 317.415C523.135 310.695 522.475 300.915 517.69 297.915C515.255 296.475 512.493 295.677 509.665 295.595C506.837 295.514 504.034 296.152 501.52 297.45Z" fill="#FFA8A7"/>
<path d="M529.225 376.23C533.845 383.43 538.225 389.73 539.185 397.86C541.165 414.945 534.685 434.475 533.29 447.12C535.914 450.717 537.426 455.003 537.64 459.45C537.64 464.685 529.225 513.96 529.225 513.96C529.225 513.96 523.105 515.82 520 513.135L514.225 422.49L517.225 411.45L529.225 376.23Z" fill="#2A9D8F"/>
<path opacity="0.2" d="M529.225 376.23C533.845 383.43 538.225 389.73 539.185 397.86C541.165 414.945 534.685 434.475 533.29 447.12C535.914 450.717 537.426 455.003 537.64 459.45C537.64 464.685 529.225 513.96 529.225 513.96C529.225 513.96 523.105 515.82 520 513.135L514.225 422.49L517.225 411.45L529.225 376.23Z" fill="black"/>
<path d="M514.225 422.49L517.225 411.45C522.969 409.938 528.509 407.737 533.725 404.895C533.725 404.895 530.605 410.58 521.635 413.7L517 427.875L516.61 460.35L514.225 422.49Z" fill="#2A9D8F"/>
<path opacity="0.3" d="M514.225 422.49L517.225 411.45C522.969 409.938 528.509 407.737 533.725 404.895C533.725 404.895 530.605 410.58 521.635 413.7L517 427.875L516.61 460.35L514.225 422.49Z" fill="black"/>
<path d="M529.225 376.23C531.7 380.28 537.61 387.18 536.35 393.825C534.85 401.865 530.5 407.52 517.27 411.45L504.85 456.45C504.85 456.45 511.315 462.45 513.295 468.255C515.275 474.06 522.415 518.28 522.415 518.28C522.415 518.28 520.195 521.895 513.22 521.025C513.22 521.025 488.905 465.525 487.195 461.91C485.12 458.249 484.393 453.976 485.14 449.835C485.905 444.015 494.14 380.31 494.14 380.31L529.225 376.23Z" fill="#2A9D8F"/>
<path opacity="0.2" d="M529.225 376.23C531.7 380.28 537.61 387.18 536.35 393.825C534.85 401.865 530.5 407.52 517.27 411.45L504.85 456.45C504.85 456.45 511.315 462.45 513.295 468.255C515.275 474.06 522.415 518.28 522.415 518.28C522.415 518.28 520.195 521.895 513.22 521.025C513.22 521.025 488.905 465.525 487.195 461.91C485.12 458.249 484.393 453.976 485.14 449.835C485.905 444.015 494.14 380.31 494.14 380.31L529.225 376.23Z" fill="black"/>
<path d="M533.785 342L502.885 337.005C502.255 336.87 501.235 336.615 499.885 336.27C499.885 336.27 498.565 355.65 490.63 360.09C490.825 361.02 490.99 362.055 491.14 363.24C491.605 366.96 494.14 380.25 494.14 380.25C494.14 380.25 506.14 386.055 515.995 383.25C525.85 380.445 529.18 376.26 529.18 376.26L524.245 368.22C525.625 364.875 531.835 351.435 533.785 342Z" fill="#2A9D8F"/>
<path opacity="0.7" d="M533.785 342L502.885 337.005C502.255 336.87 501.235 336.615 499.885 336.27C499.885 336.27 498.565 355.65 490.63 360.09C490.825 361.02 490.99 362.055 491.14 363.24C491.605 366.96 494.14 380.25 494.14 380.25C494.14 380.25 506.14 386.055 515.995 383.25C525.85 380.445 529.18 376.26 529.18 376.26L524.245 368.22C525.625 364.875 531.835 351.435 533.785 342Z" fill="white"/>
<path d="M525.64 365.025C521.537 367.489 517.237 369.611 512.785 371.37C516.826 371.289 520.782 370.196 524.29 368.19L525.64 365.025Z" fill="#2A9D8F"/>
<path d="M500.755 297.96C500.755 297.96 499.255 307.71 502.795 313.44C502.795 313.44 504.115 309.555 507.4 310.29C510.685 311.025 510.865 315.36 508.555 317.79C507.968 318.472 507.2 318.974 506.341 319.239C505.481 319.505 504.564 319.522 503.695 319.29C503.695 319.29 503.17 326.34 502.885 332.25C502.6 338.16 501.04 351.045 507.685 356.25C514.33 361.455 531.01 363.285 538.825 352.365C543.175 346.29 537.4 335.55 534.715 323.505C532.24 312.435 530.845 296.025 519.1 293.385C507.355 290.745 500.755 297.96 500.755 297.96Z" fill="#37474F"/>
<path d="M543.85 164.745L541.375 166.245C541.583 165.364 541.699 164.465 541.72 163.56C541.72 158.535 538.195 156.51 533.845 159.06C532.521 159.859 531.34 160.872 530.35 162.06C530.35 155.31 525.61 152.565 519.76 155.94C516.677 157.95 514.112 160.659 512.272 163.847C510.432 167.034 509.369 170.61 509.17 174.285C509.17 174.63 509.17 174.96 509.17 175.29C507.663 175.1 506.138 175.451 504.865 176.28C502.573 177.774 500.665 179.787 499.297 182.156C497.929 184.525 497.138 187.183 496.99 189.915C496.989 190.55 497.055 191.183 497.185 191.805L495.865 192.57C492.28 194.64 489.37 198.675 489.37 201.57C489.37 204.465 492.28 205.155 495.865 203.07L543.865 175.395C547.45 173.325 550.36 169.29 550.36 166.395C550.36 163.5 547.435 162.66 543.85 164.745Z" fill="black"/>
</svg>
